<?xml version="1.0" encoding="UTF-8" standalone="no"?>
<!-- Created with Inkscape (http://www.inkscape.org/) -->

<svg
   width="512"
   height="512"
   viewBox="0 0 135.46667 135.46667"
   version="1.1"
   id="svg5"
   inkscape:version="1.3 (0e150ed6c4, 2023-07-21)"
   sodipodi:docname="com_google_android_googlequicksearchbox.svg"
   xml:space="preserve"
   inkscape:export-filename="com_android_vending.png"
   inkscape:export-xdpi="96"
   inkscape:export-ydpi="96"
   xmlns:inkscape="http://www.inkscape.org/namespaces/inkscape"
   xmlns:sodipodi="http://sodipodi.sourceforge.net/DTD/sodipodi-0.dtd"
   xmlns="http://www.w3.org/2000/svg"
   xmlns:svg="http://www.w3.org/2000/svg"><sodipodi:namedview
     id="namedview7"
     pagecolor="#ffffff"
     bordercolor="#666666"
     borderopacity="1.0"
     inkscape:showpageshadow="2"
     inkscape:pageopacity="0.0"
     inkscape:pagecheckerboard="0"
     inkscape:deskcolor="#d1d1d1"
     inkscape:document-units="px"
     showgrid="false"
     inkscape:zoom="1.1893044"
     inkscape:cx="232.48884"
     inkscape:cy="252.6687"
     inkscape:window-width="1920"
     inkscape:window-height="1009"
     inkscape:window-x="-8"
     inkscape:window-y="-8"
     inkscape:window-maximized="1"
     inkscape:current-layer="layer1" /><defs
     id="defs2"><style
       id="style1">.cls-1{fill:none;stroke:#000000;stroke-linecap:round;stroke-linejoin:round;}</style><style
       id="style1-4">.cls-1{fill:none;stroke:#000000;stroke-miterlimit:10;}</style><style
       id="style1-49">.c{fill:none;stroke:#000000;stroke-linecap:round;stroke-linejoin:round;}</style></defs><g
     inkscape:label="Layer 1"
     inkscape:groupmode="layer"
     id="layer1"><g
       id="g2"
       transform="matrix(1.8112557,0,0,1.8112557,24.263198,24.263108)"
       style="stroke-width:1.16861839;stroke-dasharray:none"><path
         class="c"
         d="m 38.6591,40.3009 c 4.0655,-3.7527 6.4109,-9.2645 6.4109,-15.8123 0,-1.5245 -0.1368,-2.9905 -0.3909,-4.3977 H 24.43 v 8.3264 h 11.5709 c -0.5082,2.6777 -2.0327,4.945 -4.3195,6.4695"
         id="path1-4"
         style="stroke-width:1.16861839;stroke-dasharray:none" /><path
         class="c"
         d="M 5.2364,33.6555 C 8.7741,40.6723 16.0255,45.5 24.43,45.5 c 5.805,0 10.6718,-1.9155 14.2291,-5.1991 l -6.9777,-5.4141 c -1.9155,1.29 -4.3586,2.0718 -7.2514,2.0718 -5.59,0 -10.3395,-3.7723 -12.04,-8.8541"
         id="path2-5"
         style="stroke-width:1.16861839;stroke-dasharray:none" /><path
         class="c"
         d="M 5.2364,14.3641 C 3.7705,17.2568 2.93,20.5209 2.93,24 c 0,3.4791 0.8405,6.7432 2.3064,9.6359 l 5.5705,-4.3391 c 0,0 1.5832,-1.2118 1.5832,-1.2118 -0.43,-1.29 -0.6841,-2.6582 -0.6841,-4.085 0,-1.4268 0.2541,-2.795 0.6841,-4.085"
         id="path3"
         style="stroke-width:1.16861839;stroke-dasharray:none" /><path
         class="c"
         d="m 24.43,11.0609 c 3.1664,0 5.9809,1.0945 8.2286,3.2055 L 38.8154,8.1096 C 35.0822,4.6305 30.2349,2.5001 24.4299,2.5001 16.0254,2.5001 8.774,7.3278 5.2363,14.3642 l 7.1536,5.5509 c 1.7005,-5.0818 6.45,-8.8541 12.04,-8.8541 z"
         id="path4"
         style="stroke-width:1.16861839;stroke-dasharray:none" /></g></g></svg>
