<?xml version="1.0" encoding="UTF-8" standalone="no"?>
<!-- Created with Inkscape (http://www.inkscape.org/) -->

<svg
   width="512"
   height="512"
   viewBox="0 0 135.46667 135.46667"
   version="1.1"
   id="svg5"
   inkscape:version="1.3 (0e150ed6c4, 2023-07-21)"
   sodipodi:docname="com_google_android_calendar.svg"
   xml:space="preserve"
   inkscape:export-filename="com_android_vending.png"
   inkscape:export-xdpi="96"
   inkscape:export-ydpi="96"
   xmlns:inkscape="http://www.inkscape.org/namespaces/inkscape"
   xmlns:sodipodi="http://sodipodi.sourceforge.net/DTD/sodipodi-0.dtd"
   xmlns="http://www.w3.org/2000/svg"
   xmlns:svg="http://www.w3.org/2000/svg"><sodipodi:namedview
     id="namedview7"
     pagecolor="#ffffff"
     bordercolor="#666666"
     borderopacity="1.0"
     inkscape:showpageshadow="2"
     inkscape:pageopacity="0.0"
     inkscape:pagecheckerboard="0"
     inkscape:deskcolor="#d1d1d1"
     inkscape:document-units="px"
     showgrid="false"
     inkscape:zoom="2.3786088"
     inkscape:cx="229.12553"
     inkscape:cy="305.01022"
     inkscape:window-width="1920"
     inkscape:window-height="1009"
     inkscape:window-x="-8"
     inkscape:window-y="-8"
     inkscape:window-maximized="1"
     inkscape:current-layer="layer1" /><defs
     id="defs2"><style
       id="style1">.cls-1{fill:none;stroke:#000000;stroke-linecap:round;stroke-linejoin:round;}</style><style
       id="style1-4">.cls-1{fill:none;stroke:#000000;stroke-miterlimit:10;}</style><style
       id="style1-49">.c{fill:none;stroke:#000000;stroke-linecap:round;stroke-linejoin:round;}</style></defs><g
     inkscape:label="Layer 1"
     inkscape:groupmode="layer"
     id="layer1"><path
       id="rect1"
       style="fill:none;stroke:#000000;stroke-width:2.11667;stroke-linecap:round;stroke-linejoin:round"
       d="M 85.428085,100.77845 H 38.921551 c -2.345267,0 -4.233334,-1.888071 -4.233334,-4.233337 V 38.921555 c 0,-2.345267 1.888067,-4.233334 4.233334,-4.233334 h 57.623558 c 2.345267,0 4.233331,1.888067 4.233331,4.233334 v 46.506529 z"
       sodipodi:nodetypes="csssssscc" /><rect
       style="fill:none;stroke:#000000;stroke-width:2.11667;stroke-linecap:round;stroke-linejoin:round"
       id="rect2"
       width="35.389507"
       height="35.389507"
       x="50.038582"
       y="50.038582" /><path
       style="fill:none;stroke:#000000;stroke-width:2.08449;stroke-linecap:square;stroke-linejoin:miter;stroke-dasharray:none"
       d="M 98.752532,85.428084 H 34.656286"
       id="path2"
       sodipodi:nodetypes="cc" /><path
       style="fill:none;stroke:#000000;stroke-width:2.09237;stroke-linecap:square;stroke-linejoin:miter;stroke-dasharray:none"
       d="M 85.428085,99.245331 V 34.664056"
       id="path3"
       sodipodi:nodetypes="cc" /><path
       style="fill:none;stroke:#000000;stroke-width:2.11667;stroke-linecap:square;stroke-linejoin:miter;stroke-dasharray:none"
       d="m 50.038582,100.77845 0,-50.739868"
       id="path4"
       sodipodi:nodetypes="cc" /><path
       style="fill:none;stroke:#000000;stroke-width:2.11667;stroke-linecap:square;stroke-linejoin:miter;stroke-dasharray:none"
       d="M 50.038582,50.038582 H 100.77845"
       id="path5"
       sodipodi:nodetypes="cc" /><path
       style="font-weight:500;font-size:29.6333px;font-family:'Product Sans Medium';-inkscape-font-specification:'Product Sans Medium,  Medium';text-align:center;text-anchor:middle;stroke-width:2.11667;stroke-linecap:square"
       d="m 61.488956,78.879269 c -0.711199,0 -1.422398,-0.09878 -2.133597,-0.296333 -0.711199,-0.197555 -1.382888,-0.503766 -2.015065,-0.918633 -0.612421,-0.434621 -1.165576,-0.977898 -1.659465,-1.629831 -0.493888,-0.651933 -0.869243,-1.432276 -1.126065,-2.341031 l 3.081863,-1.274232 c 0.276577,1.066799 0.75071,1.886653 1.422399,2.459564 0.671688,0.572911 1.481665,0.859366 2.42993,0.859366 0.474133,0 0.928511,-0.07902 1.363132,-0.237067 0.454377,-0.158044 0.849488,-0.375355 1.185332,-0.651932 0.335844,-0.296333 0.602544,-0.632177 0.800099,-1.007532 0.197555,-0.395111 0.296333,-0.829733 0.296333,-1.303866 0,-0.474133 -0.108655,-0.908754 -0.325966,-1.303865 -0.197555,-0.395111 -0.474133,-0.730955 -0.829732,-1.007532 -0.3556,-0.276577 -0.780344,-0.493888 -1.274232,-0.651933 -0.474133,-0.158044 -0.987777,-0.237066 -1.540932,-0.237066 h -1.23711 v -3.05223 h 1.05931 c 0.474133,0 0.908754,-0.05927 1.303865,-0.1778 0.414867,-0.138289 0.780344,-0.325966 1.096433,-0.563033 0.316088,-0.237066 0.563032,-0.533399 0.740832,-0.888999 0.1778,-0.375355 0.2667,-0.800099 0.2667,-1.274232 0,-0.809977 -0.296333,-1.442154 -0.888999,-1.896531 -0.572911,-0.474133 -1.303865,-0.711199 -2.192864,-0.711199 -0.493889,0 -0.928511,0.06914 -1.303866,0.207433 -0.355599,0.138289 -0.66181,0.325966 -0.918632,0.563033 -0.256822,0.237066 -0.474133,0.503766 -0.651933,0.800099 -0.158044,0.276577 -0.286455,0.563033 -0.385233,0.859366 l -3.022596,-1.274232 c 0.158044,-0.474133 0.404988,-0.958144 0.740832,-1.452032 0.335844,-0.513644 0.760588,-0.977899 1.274232,-1.392765 0.513644,-0.414866 1.116188,-0.75071 1.807632,-1.007532 0.711199,-0.276578 1.531053,-0.414867 2.459564,-0.414867 0.948265,0 1.817509,0.138289 2.60773,0.414867 0.790221,0.276577 1.471787,0.66181 2.044698,1.155698 0.572911,0.493889 1.01741,1.076677 1.333498,1.748365 0.316089,0.671688 0.474133,1.402643 0.474133,2.192864 0,0.572911 -0.07902,1.096432 -0.237066,1.570565 -0.138289,0.474133 -0.335844,0.898877 -0.592666,1.274232 -0.256822,0.3556 -0.543277,0.661811 -0.859366,0.918633 -0.316089,0.256821 -0.642055,0.474132 -0.977899,0.651932 v 0.1778 c 0.454377,0.197555 0.888999,0.454377 1.303865,0.770466 0.414867,0.296333 0.770466,0.651932 1.066799,1.066799 0.316089,0.414866 0.563033,0.888999 0.740833,1.422398 0.177799,0.513644 0.266699,1.076677 0.266699,1.689098 0,0.888999 -0.1778,1.718732 -0.533399,2.489197 -0.355599,0.750711 -0.849488,1.402643 -1.481665,1.955798 -0.612421,0.533399 -1.343376,0.948266 -2.192864,1.244599 -0.849488,0.316089 -1.777998,0.474133 -2.785531,0.474133 z M 76.036682,78.405136 V 63.01135 l -3.055538,2.180413 -1.716526,-2.775836 5.720329,-4.279969 h 2.341031 v 20.269178 z"
       id="text1"
       aria-label="31"
       sodipodi:nodetypes="sscsccsscccscscsccscscscscsccccscsssssccscccccscccscccccccc" /></g></svg>
