<?xml version="1.0" encoding="UTF-8" standalone="no"?>
<!-- Created with Inkscape (http://www.inkscape.org/) -->

<svg
   width="512"
   height="512"
   viewBox="0 0 135.46667 135.46667"
   version="1.1"
   id="svg5"
   inkscape:version="1.2 (dc2aedaf03, 2022-05-15)"
   sodipodi:docname="com_google_android_inputmethod_latin.svg"
   xml:space="preserve"
   inkscape:export-filename="com_android_vending.png"
   inkscape:export-xdpi="96"
   inkscape:export-ydpi="96"
   xmlns:inkscape="http://www.inkscape.org/namespaces/inkscape"
   xmlns:sodipodi="http://sodipodi.sourceforge.net/DTD/sodipodi-0.dtd"
   xmlns="http://www.w3.org/2000/svg"
   xmlns:svg="http://www.w3.org/2000/svg"><sodipodi:namedview
     id="namedview7"
     pagecolor="#ffffff"
     bordercolor="#666666"
     borderopacity="1.0"
     inkscape:showpageshadow="2"
     inkscape:pageopacity="0.0"
     inkscape:pagecheckerboard="0"
     inkscape:deskcolor="#d1d1d1"
     inkscape:document-units="px"
     showgrid="false"
     inkscape:zoom="0.84096521"
     inkscape:cx="372.78593"
     inkscape:cy="269.92793"
     inkscape:window-width="1920"
     inkscape:window-height="1017"
     inkscape:window-x="-8"
     inkscape:window-y="-8"
     inkscape:window-maximized="1"
     inkscape:current-layer="layer1" /><defs
     id="defs2" /><g
     inkscape:label="Layer 1"
     inkscape:groupmode="layer"
     id="layer1"><path
       id="rect1199-5"
       style="fill:none;stroke:#000000;stroke-width:2.11667;stroke-linecap:round;stroke-dasharray:none;stroke-linejoin:round"
       d="m 52.932688,78.654632 9.671244,8.017599 m 10.154936,0.08578 9.775114,-8.103382 m 9.020122,-7.477579 9.921876,-8.225338 V 19.635494 c 0,-4.690519 -3.77615,-8.466666 -8.466668,-8.466666 H 42.457358 c -4.690519,0 -8.466667,3.776147 -8.466667,8.466666 v 43.316221 l 9.741524,8.075993 m 47.821889,0.149345 -9.020122,7.477579 h 7.961788 c 0.586317,0 1.058334,-0.472017 1.058334,-1.058333 z m -18.795236,15.580961 -5.025533,4.166671 -5.129403,-4.252454 c -0.191293,0.191294 -0.309542,0.455634 -0.309542,0.748792 v 8.580355 c 0,0.586316 0.472018,1.058333 1.058334,1.058333 h 8.580355 c 0.586316,0 1.058333,-0.472017 1.058333,-1.058333 v -8.580355 c 0,-0.251598 -0.08697,-0.481772 -0.232544,-0.663009 z m -19.82618,-8.103382 -9.200473,-7.626924 v 6.568591 c 0,0.586317 0.472017,1.058333 1.058334,1.058333 z"
       sodipodi:nodetypes="ccccccssssccccssccccsssssscccssc" /><path
       id="rect474"
       style="fill:none;stroke:#000000;stroke-width:2.11667;stroke-linecap:round"
       d="m 101.65533,52.061752 15.67411,0 c 4.62212,0 8.34318,3.776928 8.34318,8.468447 v 55.755291 c 0,4.69152 -3.72106,8.46845 -8.34318,8.46845 H 18.137232 c -4.622121,0 -8.3431789,-3.77693 -8.3431789,-8.46845 V 60.530199 c 0,-4.691519 3.7210579,-8.468447 8.3431789,-8.468447 l 15.674111,0"
       sodipodi:nodetypes="cssssssssc" /><rect
       style="fill:none;stroke:#000000;stroke-width:2.11667;stroke-linecap:round;stroke-dasharray:none"
       id="rect1199"
       width="10.697034"
       height="10.697034"
       x="25.326801"
       y="67.957626"
       rx="1.0583334"
       ry="1.0583334" /><rect
       style="fill:none;stroke:#000000;stroke-width:2.11667;stroke-linecap:round;stroke-dasharray:none"
       id="rect1199-4"
       width="10.697034"
       height="10.697034"
       x="25.326714"
       y="86.362823"
       rx="1.0583334"
       ry="1.0583334" /><rect
       style="fill:none;stroke:#000000;stroke-width:2.11667;stroke-linecap:round;stroke-dasharray:none"
       id="rect1199-0"
       width="10.697034"
       height="10.697034"
       x="43.731922"
       y="86.362915"
       rx="1.0583334"
       ry="1.0583334" /><path
       id="rect1199-0-1"
       style="fill:none;stroke:#000000;stroke-width:2.11667;stroke-linecap:round"
       d="m 37.525514,104.66239 h 60.415642 c 0.586316,0 1.058333,0.47202 1.058333,1.05834 v 8.58036 c 0,0.58632 -0.472017,1.05834 -1.058333,1.05834 H 37.525514 c -0.586315,0 -1.058332,-0.47202 -1.058332,-1.05834 v -8.58036 c 0,-0.58632 0.472017,-1.05834 1.058332,-1.05834 z"
       sodipodi:nodetypes="sssssssss" /><rect
       style="fill:none;stroke:#000000;stroke-width:2.11667;stroke-linecap:round;stroke-dasharray:none"
       id="rect1199-1"
       width="10.697034"
       height="10.697034"
       x="80.856934"
       y="86.362915"
       rx="1.0583334"
       ry="1.0583334" /><rect
       style="fill:none;stroke:#000000;stroke-width:2.11667;stroke-linecap:round;stroke-dasharray:none"
       id="rect1199-52"
       width="10.697034"
       height="10.697034"
       x="99.576736"
       y="86.362915"
       rx="1.0583334"
       ry="1.0583334" /><rect
       style="fill:none;stroke:#000000;stroke-width:2.11667;stroke-linecap:round;stroke-dasharray:none"
       id="rect1199-02"
       width="10.697034"
       height="10.697034"
       x="99.576805"
       y="67.957703"
       rx="1.0583334"
       ry="1.0583334" /><path
       id="path1433"
       style="fill:none;stroke:#000000;stroke-width:2.11667;stroke-linecap:round;stroke-linejoin:round"
       d="m 68.075433,40.266794 v 8.231539 h 13.181108 c -1.921411,5.84046 -7.374808,9.787812 -13.523206,9.78855 -7.863342,-6.8e-5 -14.237823,-6.374549 -14.237891,-14.237891 6.8e-5,-7.863342 6.374549,-14.237823 14.237891,-14.237891 1.60163,7.5e-5 3.375408,0.362673 5.046061,1.028475 2.213285,0.882054 3.206377,1.71327 4.331897,2.689809 l 6.448633,-6.722128 C 80.881456,24.035874 78.782896,22.484074 76.42491,21.487467 74.066923,20.490861 71.449511,20.049448 67.733335,20.049423 54.463946,20.049539 43.70701,30.806475 43.706894,44.075864 43.70701,57.345253 54.463946,68.102189 67.733335,68.102305 81.002724,68.102189 91.75966,57.345253 91.759776,44.075864 91.759658,42.78141 91.654931,41.489082 91.446617,40.2115 Z"
       sodipodi:nodetypes="ccccccsccscccccc" /><path
       style="fill:none;stroke:#000000;stroke-width:2.11667;stroke-linecap:round;stroke-linejoin:miter;stroke-dasharray:none"
       d="m 47.114144,54.743645 6.449682,-5.112552"
       id="path1452" /><path
       style="fill:none;stroke:#000000;stroke-width:2.11667;stroke-linecap:round;stroke-linejoin:miter;stroke-dasharray:none"
       d="m 46.956833,33.349576 6.921611,5.584482"
       id="path1454" /></g></svg>
