<?xml version="1.0" encoding="UTF-8" standalone="no"?>
<!-- Created with Inkscape (http://www.inkscape.org/) -->

<svg
   width="512"
   height="512"
   viewBox="0 0 135.46667 135.46667"
   version="1.1"
   id="svg5"
   inkscape:version="1.2.1 (9c6d41e410, 2022-07-14)"
   sodipodi:docname="com_kobobooks_android.svg"
   xml:space="preserve"
   xmlns:inkscape="http://www.inkscape.org/namespaces/inkscape"
   xmlns:sodipodi="http://sodipodi.sourceforge.net/DTD/sodipodi-0.dtd"
   xmlns="http://www.w3.org/2000/svg"
   xmlns:svg="http://www.w3.org/2000/svg"><sodipodi:namedview
     id="namedview7"
     pagecolor="#ffffff"
     bordercolor="#666666"
     borderopacity="1.0"
     inkscape:showpageshadow="2"
     inkscape:pageopacity="0.0"
     inkscape:pagecheckerboard="0"
     inkscape:deskcolor="#d1d1d1"
     inkscape:document-units="px"
     showgrid="false"
     inkscape:zoom="1.1893044"
     inkscape:cx="102.58097"
     inkscape:cy="311.94705"
     inkscape:window-width="1920"
     inkscape:window-height="1017"
     inkscape:window-x="-8"
     inkscape:window-y="-8"
     inkscape:window-maximized="1"
     inkscape:current-layer="layer1"
     showguides="true" /><defs
     id="defs2" /><g
     inkscape:label="Layer 1"
     inkscape:groupmode="layer"
     id="layer1"><g
       aria-label="kobo"
       id="text1694"
       style="font-size:45.1556px;fill:none;stroke:#000000;stroke-width:2.11667;stroke-dasharray:none;stroke-opacity:1"
       transform="translate(-0.3207415,-16.927232)"><path
         d="m 19.030243,103.50206 h 6.457251 l -0.07866,-12.928783 2.241819,3.081913 7.320982,9.84687 h 7.179741 L 31.791846,88.476894 41.33858,77.192405 H 34.113684 L 25.668116,87.25486 H 25.487494 V 65.501516 h -6.457251 z"
         style="font-weight:bold;font-family:'Noto Sans JP';-inkscape-font-specification:'Noto Sans JP Bold';fill:none;stroke:#000000;stroke-width:2.11667;stroke-linecap:round;stroke-linejoin:round;stroke-dasharray:none;stroke-opacity:1"
         id="path1696"
         sodipodi:nodetypes="cccccccccccccc" /><path
         d="m 53.246649,104.29154 c 6.321784,0 12.146857,-5.107953 12.146857,-13.857688 0,-8.844326 -5.825073,-13.952279 -12.146857,-13.952279 -6.321784,0 -12.146857,5.107953 -12.146857,13.952279 0,8.749735 5.825073,13.857688 12.146857,13.857688 z m 0,-5.675503 c -3.431825,0 -5.373516,-3.216119 -5.373516,-8.182185 0,-5.013361 1.941691,-8.276775 5.373516,-8.276775 3.431826,0 5.373517,3.263414 5.373517,8.276775 0,4.966066 -1.941691,8.182185 -5.373517,8.182185 z"
         style="font-weight:bold;font-family:'Noto Sans JP';-inkscape-font-specification:'Noto Sans JP Bold';fill:none;stroke:#000000;stroke-width:2.11667;stroke-linecap:round;stroke-linejoin:round;stroke-dasharray:none;stroke-opacity:1"
         id="path1698" /><path
         d="m 80.254191,104.52751 c 5.554139,0 9.803177,-6.428061 9.567213,-15.693674 -0.19658,-7.719106 -2.568094,-12.509573 -8.799568,-12.509573 -2.483558,0 -5.012271,0.825928 -6.999118,2.632152 l 0.135467,-4.064004 V 64.793624 h -6.514063 v 30.685657 c 2.298811,7.405289 6.024767,9.024699 12.610069,9.048229 z m -1.490135,-4.598632 c -1.354668,0 -2.94677,-1.204604 -4.527216,-2.604428 V 83.935187 c 1.761069,-1.761068 3.217704,-2.540369 4.933617,-2.540369 3.476981,0 4.540344,2.66418 4.540344,7.495829 0,5.508984 -1.876164,11.038231 -4.946745,11.038231 z"
         style="font-weight:bold;font-family:'Noto Sans JP';-inkscape-font-specification:'Noto Sans JP Bold';fill:none;stroke:#000000;stroke-width:2.11667;stroke-linecap:round;stroke-linejoin:round;stroke-dasharray:none;stroke-opacity:1"
         id="path1700"
         sodipodi:nodetypes="cssccccccsccsss" /><path
         d="m 104.93106,104.21289 c 6.32178,0 12.14685,-5.136851 12.14685,-13.936079 0,-8.894355 -5.82507,-14.031202 -12.14685,-14.031202 -6.321785,0 -12.146854,5.136847 -12.146854,14.031202 0,8.799228 5.825069,13.936079 12.146854,13.936079 z m 0,-5.707612 c -3.43183,0 -5.373515,-3.234311 -5.373515,-8.228467 0,-5.041721 1.941685,-8.323595 5.373515,-8.323595 3.43182,0 5.37351,3.281874 5.37351,8.323595 0,4.994156 -1.94169,8.228467 -5.37351,8.228467 z"
         style="font-weight:bold;font-family:'Noto Sans JP';-inkscape-font-specification:'Noto Sans JP Bold';fill:none;stroke:#000000;stroke-width:2.11667;stroke-linecap:round;stroke-linejoin:round;stroke-dasharray:none;stroke-opacity:1"
         id="path1702" /></g></g></svg>
