<?xml version="1.0" encoding="UTF-8" standalone="no"?>
<!-- Created with Inkscape (http://www.inkscape.org/) -->

<svg
   width="512"
   height="512"
   viewBox="0 0 135.46667 135.46667"
   version="1.1"
   id="svg5"
   inkscape:version="1.2 (dc2aedaf03, 2022-05-15)"
   sodipodi:docname="com_initialcoms_ridi.svg"
   xml:space="preserve"
   inkscape:export-filename="com_initialcoms_ridi.png"
   inkscape:export-xdpi="96"
   inkscape:export-ydpi="96"
   xmlns:inkscape="http://www.inkscape.org/namespaces/inkscape"
   xmlns:sodipodi="http://sodipodi.sourceforge.net/DTD/sodipodi-0.dtd"
   xmlns="http://www.w3.org/2000/svg"
   xmlns:svg="http://www.w3.org/2000/svg"><sodipodi:namedview
     id="namedview7"
     pagecolor="#ffffff"
     bordercolor="#666666"
     borderopacity="1.0"
     inkscape:showpageshadow="2"
     inkscape:pageopacity="0.0"
     inkscape:pagecheckerboard="0"
     inkscape:deskcolor="#d1d1d1"
     inkscape:document-units="px"
     showgrid="false"
     inkscape:zoom="0.84096521"
     inkscape:cx="82.048579"
     inkscape:cy="290.1428"
     inkscape:window-width="1920"
     inkscape:window-height="1017"
     inkscape:window-x="-8"
     inkscape:window-y="-8"
     inkscape:window-maximized="1"
     inkscape:current-layer="layer1" /><defs
     id="defs2" /><g
     inkscape:label="Layer 1"
     inkscape:groupmode="layer"
     id="layer1"><path
       style="fill:none;stroke:#000000;stroke-width:2.11666672;stroke-linecap:butt;stroke-linejoin:miter;stroke-opacity:1;stroke-dasharray:none"
       d="M 43.260064,96.587926 V 34.293433 c 0,0 24.82698,-2.298364 28.630299,-2.359639 3.803319,-0.06127 7.681167,-0.410323 14.858785,5.697072 3.944326,3.36212 4.184772,4.964323 5.904408,10.313302 0.825619,3.621458 1.46965,7.112528 0.851656,11.28012 -0.617994,4.167593 -2.498012,7.843745 -3.71716,9.888766 -2.438295,4.090043 -10.81877,7.653897 -10.81877,7.653897 L 94.542906,106.1838 75.980406,102.72299 63.395658,77.396188 h -5.663134 v 21.708688 z"
       id="path354"
       sodipodi:nodetypes="cczccssccccccc" /><path
       style="fill:none;stroke:#000000;stroke-width:2.11666672;stroke-linecap:butt;stroke-linejoin:miter;stroke-opacity:1;stroke-dasharray:none"
       d="M 57.675083,46.496016 V 64.01545 c 0,0 8.32014,0.356622 10.400427,0 2.080287,-0.356622 4.523536,-1.260658 5.923236,-2.725245 1.399701,-1.464588 2.363073,-4.122824 2.474967,-6.06228 0.111894,-1.939456 -0.574712,-4.412302 -1.696326,-5.895428 -1.121615,-1.483127 -2.947032,-2.71248 -5.033361,-3.003332 -2.086329,-0.290852 -12.068943,0.166851 -12.068943,0.166851 z"
       id="path452"
       sodipodi:nodetypes="cczzzzzc" /></g></svg>
