<?xml version="1.0" encoding="UTF-8" standalone="no"?>
<!-- Created with Inkscape (http://www.inkscape.org/) -->

<svg
   width="512"
   height="512"
   viewBox="0 0 135.46667 135.46667"
   version="1.1"
   id="svg5"
   inkscape:version="1.2 (dc2aedaf03, 2022-05-15)"
   sodipodi:docname="com_yes24_ebook_fourth.svg"
   xml:space="preserve"
   xmlns:inkscape="http://www.inkscape.org/namespaces/inkscape"
   xmlns:sodipodi="http://sodipodi.sourceforge.net/DTD/sodipodi-0.dtd"
   xmlns="http://www.w3.org/2000/svg"
   xmlns:svg="http://www.w3.org/2000/svg"><sodipodi:namedview
     id="namedview7"
     pagecolor="#ffffff"
     bordercolor="#666666"
     borderopacity="1.0"
     inkscape:showpageshadow="2"
     inkscape:pageopacity="0.0"
     inkscape:pagecheckerboard="0"
     inkscape:deskcolor="#d1d1d1"
     inkscape:document-units="px"
     showgrid="false"
     inkscape:zoom="1.1893044"
     inkscape:cx="165.64304"
     inkscape:cy="292.60802"
     inkscape:window-width="1920"
     inkscape:window-height="1017"
     inkscape:window-x="-8"
     inkscape:window-y="-8"
     inkscape:window-maximized="1"
     inkscape:current-layer="layer1" /><defs
     id="defs2" /><g
     inkscape:label="Layer 1"
     inkscape:groupmode="layer"
     id="layer1"><g
       id="g312"
       transform="matrix(0.61034418,0,0,0.61034418,24.816116,27.500653)"><path
         style="fill:#000000;fill-opacity:1;stroke:#000000;stroke-width:2.11667;stroke-linecap:butt;stroke-linejoin:miter;stroke-dasharray:none;stroke-opacity:1"
         d="m 13.12567,56.618356 6.395983,10.344809 -2.280307,11.012212 h 4.949935 l 1.446048,-10.678509 9.232463,-10.456043 h -5.394873 l -5.005552,5.784194 -3.448269,-5.895427 z"
         id="path1014" /><path
         style="fill:#000000;fill-opacity:1;stroke:#000000;stroke-width:2.11667;stroke-linecap:butt;stroke-linejoin:miter;stroke-dasharray:none;stroke-opacity:1"
         d="M 36.540531,56.840825 32.814176,78.086613 H 45.04997 l 0.55617,-3.83759 h -6.896536 l 0.945493,-4.894319 h 6.618452 l 0.667406,-4.282527 h -6.562833 l 0.945491,-4.560612 h 6.507218 l 0.667406,-3.781973 z"
         id="path1016" /><path
         style="fill:#000000;fill-opacity:1;stroke:#000000;stroke-width:2.11667;stroke-linecap:butt;stroke-linejoin:miter;stroke-dasharray:none;stroke-opacity:1"
         d="m 64.182301,60.734031 c 0,0 -1.520205,-1.381161 -3.976633,-1.112345 -2.456428,0.268817 -3.113936,1.739611 -3.003331,2.808672 0.110604,1.069061 1.308655,2.135342 3.837589,2.586202 0.814235,0.145163 1.473032,0.267144 2.613393,1.17366 0.94106,0.748085 1.139032,1.34239 1.502285,2.413654 0.363254,1.071264 0.531087,2.626891 -0.08342,4.254718 -0.614509,1.627827 -2.65783,3.53206 -4.282527,4.449379 -1.624697,0.917319 -3.23301,0.904662 -4.922128,0.917686 -1.689118,0.01302 -3.813778,-0.445273 -4.977742,-0.862068 -1.163964,-0.416795 -2.05784,-1.167963 -2.05784,-1.167963 l 2.66963,-3.726355 c 0,0 2.953009,2.195014 4.504997,2.280306 1.551988,0.08529 2.987719,-0.296771 4.00444,-1.501664 1.016721,-1.204893 0.701023,-2.497765 0,-3.503887 -0.701023,-1.006122 -2.034831,-0.461565 -3.670738,-1.112344 -1.635908,-0.650779 -3.877771,-1.923793 -4.22691,-3.948826 -0.174569,-1.012516 -0.04943,-2.625416 0.453054,-3.985187 0.502485,-1.359771 1.054008,-1.849871 1.938487,-2.716691 0.88448,-0.866819 2.042525,-1.343083 3.531695,-1.724135 1.489169,-0.381051 3.761291,-0.469647 5.200212,-0.19466 1.438921,0.274987 3.281418,1.446048 3.281418,1.446048 z"
         id="path1018"
         sodipodi:nodetypes="czzsszzzzzcczzzzsszzzcc" /><path
         style="fill:#000000;fill-opacity:1;stroke:#000000;stroke-width:2.11667;stroke-linecap:square;stroke-linejoin:miter;stroke-dasharray:none;stroke-opacity:1"
         d="m 73.859701,78.197847 h 16.740792 v -3.615121 h -7.675179 c 0,0 5.87243,-5.735274 6.963095,-7.100742 1.090665,-1.365467 1.714932,-2.240127 1.923496,-3.468341 0.208565,-1.228214 0.07026,-2.591497 -0.436143,-3.684641 -0.506398,-1.093145 -1.235338,-2.169686 -2.236449,-2.762937 -1.001111,-0.593251 -2.192826,-1.090007 -3.376942,-1.209506 -1.184115,-0.1195 -2.475819,0.167943 -3.625242,0.566533 -1.149423,0.398591 -2.452915,1.164888 -3.487597,2.159291 -1.034682,0.994403 -2.731991,4.098809 -2.731991,4.098809 h 4.504997 c 0,0 0.514562,-1.659554 1.135621,-2.243536 0.621059,-0.583981 1.767608,-1.256014 2.590733,-1.260352 0.823125,-0.0043 1.698882,0.426366 2.282863,0.963999 0.583981,0.537633 0.794712,1.412666 1.024388,2.399447 0.229677,0.98678 -0.508103,1.971469 -1.649433,3.723561 -1.141331,1.752092 -3.616499,3.995982 -5.60804,5.902995 -1.991542,1.907013 -6.338969,5.530541 -6.338969,5.530541 z"
         id="path1850"
         sodipodi:nodetypes="cccczzzzzzzcczzzzzzc" /><path
         id="path1854"
         style="fill:#000000;fill-opacity:1;stroke:#000000;stroke-width:2.11667;stroke-linecap:butt;stroke-linejoin:miter;stroke-dasharray:none;stroke-opacity:1"
         d="m 105.89524,61.067735 -6.284753,8.509439 0.166851,1.167963 h 5.172402 l 2.588,-9.658559 z m -1.33482,12.569499 H 93.548208 L 94.215614,70.689519 105.22783,57.34138 h 5.95104 l -1.9466,13.459373 h 2.50278 v 2.66963 h -2.44716 l -0.94549,1.001109 v 3.392652 h -4.44939 z" /></g><path
       style="fill:none;stroke:#000000;stroke-width:2.11667;stroke-linecap:round;stroke-linejoin:round;stroke-dasharray:none;stroke-opacity:1"
       d="m 32.248412,106.02649 c -2.008452,-0.4462 -2.968249,-1.48249 -4.174287,-2.55744 -1.206038,-1.07494 -2.077982,-2.23128 -2.89509,-4.337183 -0.817108,-2.105899 -0.519671,-58.234628 -0.166852,-60.591081 0.352819,-2.356453 0.923134,-3.363931 2.024299,-4.517533 1.101166,-1.153602 2.369675,-1.916872 4.582693,-2.404078 2.213018,-0.487206 36.338455,0 36.338455,0 v 74.407315 c 0,0 -33.700766,0.4462 -35.709218,0 z"
       id="path368"
       sodipodi:nodetypes="zzzzzzccz" /><path
       style="fill:none;stroke:#000000;stroke-width:2.11667;stroke-linecap:butt;stroke-linejoin:miter;stroke-dasharray:none;stroke-opacity:1"
       d="m 67.797422,31.757449 c 0,0 20.410733,-3.222946 22.914306,-3.058951 2.503574,0.163995 3.605852,0.81572 5.061169,1.807561 1.455318,0.991841 2.973969,2.230968 3.754164,4.254719 0.780199,2.023751 0.506229,64.164893 0.08343,66.851932 -0.4228,2.68704 -1.668517,3.82832 -2.975522,5.06117 -1.307005,1.23285 -3.308658,1.95069 -5.311447,2.19688 -2.002789,0.24618 -23.359244,-2.64182 -23.359244,-2.64182 z"
       id="path1021"
       sodipodi:nodetypes="czzzzzzcc" /><path
       style="fill:none;stroke:#000000;stroke-width:2.11667;stroke-linecap:round;stroke-linejoin:round;stroke-dasharray:none;stroke-opacity:1"
       d="m 98.070306,106.02649 c 0,0 1.887701,0.4462 3.896154,0 2.00845,-0.4462 3.41319,-1.26002 4.61923,-2.33497 1.20603,-1.07494 1.63304,-2.45375 2.45015,-4.559653 0.8171,-2.105899 0.51967,-58.234628 0.16685,-60.591081 -0.35282,-2.356453 -0.92314,-3.363931 -2.0243,-4.517533 -1.10117,-1.153602 -2.36968,-1.916872 -4.58269,-2.404078 -2.21302,-0.487206 -4.525394,0 -4.525394,0"
       id="path1045"
       sodipodi:nodetypes="czzzzzzc" /></g></svg>
