<?xml version="1.0" encoding="UTF-8" standalone="no"?>
<!-- Created with Inkscape (http://www.inkscape.org/) -->

<svg
   width="512"
   height="512"
   viewBox="0 0 135.46667 135.46667"
   version="1.1"
   id="svg5"
   inkscape:version="1.2 (dc2aedaf03, 2022-05-15)"
   sodipodi:docname="com_yes24_yes24viewer.svg"
   xml:space="preserve"
   inkscape:export-filename="com_incube_newepub.png"
   inkscape:export-xdpi="96"
   inkscape:export-ydpi="96"
   xmlns:inkscape="http://www.inkscape.org/namespaces/inkscape"
   xmlns:sodipodi="http://sodipodi.sourceforge.net/DTD/sodipodi-0.dtd"
   xmlns="http://www.w3.org/2000/svg"
   xmlns:svg="http://www.w3.org/2000/svg"><sodipodi:namedview
     id="namedview7"
     pagecolor="#ffffff"
     bordercolor="#666666"
     borderopacity="1.0"
     inkscape:showpageshadow="2"
     inkscape:pageopacity="0.0"
     inkscape:pagecheckerboard="0"
     inkscape:deskcolor="#d1d1d1"
     inkscape:document-units="px"
     showgrid="false"
     inkscape:zoom="1.1893044"
     inkscape:cx="130.32828"
     inkscape:cy="273.26898"
     inkscape:window-width="1920"
     inkscape:window-height="1017"
     inkscape:window-x="-8"
     inkscape:window-y="-8"
     inkscape:window-maximized="1"
     inkscape:current-layer="layer1" /><defs
     id="defs2" /><g
     inkscape:label="Layer 1"
     inkscape:groupmode="layer"
     id="layer1"><path
       style="fill:#000000;fill-opacity:1;stroke:#000000;stroke-width:2.11667;stroke-linecap:butt;stroke-linejoin:miter;stroke-dasharray:none;stroke-opacity:1"
       d="m 12.235794,37.486023 6.395983,10.344809 -2.280307,11.012212 h 4.949935 l 1.446048,-10.678509 9.232463,-10.456043 h -5.394873 l -5.005552,5.784194 -3.448269,-5.895427 z"
       id="path1014" /><path
       style="fill:#000000;fill-opacity:1;stroke:#000000;stroke-width:2.11667;stroke-linecap:butt;stroke-linejoin:miter;stroke-dasharray:none;stroke-opacity:1"
       d="M 35.650655,37.708492 31.9243,58.95428 h 12.235794 l 0.55617,-3.83759 h -6.896536 l 0.945493,-4.894319 h 6.618452 l 0.667406,-4.282527 h -6.562833 l 0.945491,-4.560612 h 6.507218 l 0.667406,-3.781973 z"
       id="path1016" /><path
       style="fill:#000000;fill-opacity:1;stroke:#000000;stroke-width:2.11667;stroke-linecap:butt;stroke-linejoin:miter;stroke-dasharray:none;stroke-opacity:1"
       d="m 63.292425,41.601698 c 0,0 -1.520205,-1.381161 -3.976633,-1.112345 -2.456428,0.268817 -3.113936,1.739611 -3.003331,2.808672 0.110604,1.069061 1.308655,2.135342 3.837589,2.586202 0.814235,0.145163 1.473032,0.267144 2.613393,1.17366 0.94106,0.748085 1.139032,1.34239 1.502285,2.413654 0.363254,1.071264 0.531087,2.626891 -0.08342,4.254718 -0.614509,1.627827 -2.65783,3.53206 -4.282527,4.449379 -1.624697,0.917319 -3.23301,0.904662 -4.922128,0.917686 -1.689118,0.01302 -3.813778,-0.445273 -4.977742,-0.862068 -1.163964,-0.416795 -2.05784,-1.167963 -2.05784,-1.167963 l 2.66963,-3.726355 c 0,0 2.953009,2.195014 4.504997,2.280306 1.551988,0.08529 2.987719,-0.296771 4.00444,-1.501664 1.016721,-1.204893 0.701023,-2.497765 0,-3.503887 -0.701023,-1.006122 -2.034831,-0.461565 -3.670738,-1.112344 -1.635908,-0.650779 -3.877771,-1.923793 -4.22691,-3.948826 -0.174569,-1.012516 -0.04943,-2.625416 0.453054,-3.985187 0.502485,-1.359771 1.054008,-1.849871 1.938487,-2.716691 0.88448,-0.866819 2.042525,-1.343083 3.531695,-1.724135 1.489169,-0.381051 3.761291,-0.469647 5.200212,-0.19466 1.438921,0.274987 3.281418,1.446048 3.281418,1.446048 z"
       id="path1018"
       sodipodi:nodetypes="czzsszzzzzcczzzzsszzzcc" /><path
       style="fill:#000000;fill-opacity:1;stroke:#000000;stroke-width:2.11667;stroke-linecap:square;stroke-linejoin:miter;stroke-dasharray:none;stroke-opacity:1"
       d="m 72.969825,59.065514 h 16.740792 v -3.615121 h -7.675179 c 0,0 5.87243,-5.735274 6.963095,-7.100742 1.090665,-1.365467 1.714932,-2.240127 1.923496,-3.468341 0.208565,-1.228214 0.07026,-2.591497 -0.436143,-3.684641 -0.506398,-1.093145 -1.235338,-2.169686 -2.236449,-2.762937 -1.001111,-0.593251 -2.192826,-1.090007 -3.376942,-1.209506 -1.184115,-0.1195 -2.475819,0.167943 -3.625242,0.566533 -1.149423,0.398591 -2.452915,1.164888 -3.487597,2.159291 -1.034682,0.994403 -2.731991,4.098809 -2.731991,4.098809 h 4.504997 c 0,0 0.514562,-1.659554 1.135621,-2.243536 0.621059,-0.583981 1.767608,-1.256014 2.590733,-1.260352 0.823125,-0.0043 1.698882,0.426366 2.282863,0.963999 0.583981,0.537633 0.794712,1.412666 1.024388,2.399447 0.229677,0.98678 -0.508103,1.971469 -1.649433,3.723561 -1.141331,1.752092 -3.616499,3.995982 -5.60804,5.902995 -1.991542,1.907013 -6.338969,5.530541 -6.338969,5.530541 z"
       id="path1850"
       sodipodi:nodetypes="cccczzzzzzzcczzzzzzc" /><path
       id="path1854"
       style="fill:#000000;fill-opacity:1;stroke:#000000;stroke-width:2.11667;stroke-linecap:butt;stroke-linejoin:miter;stroke-dasharray:none;stroke-opacity:1"
       d="m 105.00536,41.935402 -6.284749,8.509439 0.166851,1.167963 h 5.172398 l 2.588,-9.658559 z m -1.33482,12.569499 H 92.658332 l 0.667406,-2.947715 11.012212,-13.348139 h 5.95104 l -1.9466,13.459373 h 2.50278 v 2.66963 h -2.44716 l -0.94549,1.001109 v 3.392652 h -4.44939 z" /><path
       style="fill:#000000;fill-opacity:1;stroke:#000000;stroke-width:2.11667;stroke-linecap:butt;stroke-linejoin:miter;stroke-dasharray:none;stroke-opacity:1"
       d="m 63.737362,63.959832 c -2.315214,1.839634 -1.043231,3.847133 -1.043231,3.847133 0,0 3.7314,7.572941 11.276806,11.503226 7.545407,3.930286 11.197002,3.843326 16.740792,3.893206 5.54379,0.0499 10.418961,-0.14831 17.908751,-3.448268 7.48979,-3.299956 12.68073,-12.347027 12.68073,-12.347027 0,0 0.49378,-2.382109 -1.26291,-3.601627 -1.75669,-1.219518 -3.74264,0.820763 -3.74264,0.820763 0,0 -4.11568,7.044851 -9.59398,9.872061 -5.4783,2.827211 -9.960282,3.109497 -14.599521,3.086758 -4.639239,-0.02274 -9.751557,-0.463477 -15.322551,-3.503886 -5.570993,-3.040409 -9.348467,-9.752102 -9.348467,-9.752102 0,0 -1.378564,-2.209872 -3.693779,-0.370237 z"
       id="path1857"
       sodipodi:nodetypes="zczzzczczzzcz" /><path
       style="fill:#000000;fill-opacity:1;stroke:#000000;stroke-width:2.11667;stroke-linecap:butt;stroke-linejoin:miter;stroke-dasharray:none;stroke-opacity:1"
       d="m 86.928054,30.026831 c 0.551667,0.16573 1.37318,0.114705 1.956535,-0.06882 0.583356,-0.183528 1.103036,-0.706369 1.504272,-1.169988 0.401235,-0.463618 3.345668,-10.801318 3.43131,-11.503244 0.08564,-0.701926 0.0033,-1.491161 -0.324451,-2.054853 -0.327728,-0.563692 -0.912553,-1.225022 -1.533766,-1.405952 -0.621213,-0.18093 -1.55343,0.05899 -2.123676,0.353946 -0.570246,0.294954 -1.146641,1.19192 -1.533766,1.995861 -0.387125,0.803941 -3.389598,10.555475 -3.352655,11.149297 0.03694,0.593823 0.101595,1.222425 0.442432,1.641917 0.340836,0.419491 0.982098,0.896108 1.533765,1.061838 z"
       id="path2596"
       sodipodi:nodetypes="zzzzzzzzzzz" /><path
       style="fill:#000000;fill-opacity:1;stroke:#000000;stroke-width:2.11667;stroke-linecap:butt;stroke-linejoin:miter;stroke-dasharray:none;stroke-opacity:1"
       d="m 102.03363,30.008345 c 0.55166,0.165731 1.37318,0.114705 1.95653,-0.06882 0.58336,-0.183528 1.10304,-0.706369 1.50427,-1.169988 0.40124,-0.463617 3.34567,-10.801318 3.43131,-11.503244 0.0856,-0.701926 0.003,-1.491161 -0.32445,-2.054853 -0.32773,-0.563692 -0.91255,-1.225022 -1.53376,-1.405952 -0.62122,-0.18093 -1.55343,0.05899 -2.12368,0.353946 -0.57025,0.294954 -1.14664,1.19192 -1.53377,1.995861 -0.38712,0.803941 -3.38959,10.555475 -3.35265,11.149297 0.0369,0.593824 0.10159,1.222426 0.44243,1.641917 0.34084,0.419491 0.9821,0.896108 1.53377,1.061839 z"
       id="path2596-3"
       sodipodi:nodetypes="zzzzzzzzzzz" /><path
       style="fill:none;stroke:#000000;stroke-width:2.11666672;stroke-linecap:butt;stroke-linejoin:miter;stroke-opacity:1;stroke-dasharray:none"
       d="M -4.8943177,94.771787 H 163.73717"
       id="path361" /><text
       xml:space="preserve"
       style="font-size:16.9333px;line-height:1.25;font-family:'Noto Sans JP';-inkscape-font-specification:'Noto Sans JP';stroke-width:0.264583;stroke-dasharray:none"
       x="81.902046"
       y="121.77477"
       id="text972"
       transform="skewX(-3)"><tspan
         sodipodi:role="line"
         id="tspan970"
         style="font-style:normal;font-variant:normal;font-weight:900;font-stretch:normal;font-size:16.9333px;font-family:'Noto Sans JP';-inkscape-font-specification:'Noto Sans JP Heavy';text-align:center;text-anchor:middle;stroke-width:0.264583;stroke-dasharray:none"
         x="81.902046"
         y="121.77477"
         dx="-15"
         rotate="0 0 0 0 0 0 0 0 0">전자도서관 뷰어</tspan></text></g></svg>
