<?xml version="1.0" encoding="UTF-8" standalone="no"?>
<!-- Created with Inkscape (http://www.inkscape.org/) -->

<svg
   width="512"
   height="512"
   viewBox="0 0 135.46667 135.46667"
   version="1.1"
   id="svg5"
   inkscape:version="1.2 (dc2aedaf03, 2022-05-15)"
   sodipodi:docname="com_nhn_android_nbooks.svg"
   xml:space="preserve"
   xmlns:inkscape="http://www.inkscape.org/namespaces/inkscape"
   xmlns:sodipodi="http://sodipodi.sourceforge.net/DTD/sodipodi-0.dtd"
   xmlns="http://www.w3.org/2000/svg"
   xmlns:svg="http://www.w3.org/2000/svg"><sodipodi:namedview
     id="namedview7"
     pagecolor="#ffffff"
     bordercolor="#666666"
     borderopacity="1.0"
     inkscape:showpageshadow="2"
     inkscape:pageopacity="0.0"
     inkscape:pagecheckerboard="0"
     inkscape:deskcolor="#d1d1d1"
     inkscape:document-units="px"
     showgrid="false"
     inkscape:zoom="1.1893044"
     inkscape:cx="68.947866"
     inkscape:cy="172.36966"
     inkscape:window-width="1920"
     inkscape:window-height="1017"
     inkscape:window-x="-8"
     inkscape:window-y="-8"
     inkscape:window-maximized="1"
     inkscape:current-layer="layer1" /><defs
     id="defs2" /><g
     inkscape:label="Layer 1"
     inkscape:groupmode="layer"
     id="layer1"><path
       style="fill:none;stroke:#000000;stroke-width:2.11666672;stroke-linecap:butt;stroke-linejoin:miter;stroke-opacity:1;stroke-dasharray:none"
       d="m 24.800894,80.607534 c -0.908494,0.37032 -0.788923,12.637904 -0.278086,17.064112 0.510836,4.426204 1.475439,6.573904 4.066046,9.058104 2.590606,2.48419 4.49784,3.49647 9.794622,4.33063 5.296782,0.83416 53.820766,0.0737 57.889832,0 4.069062,-0.0737 7.999962,-1.6868 10.688162,-4.39358 2.6882,-2.70677 3.87882,-5.73471 4.23656,-10.511473 0.35774,-4.77676 0.14205,-29.162268 -0.0983,-30.085411 -0.24037,-0.923143 -0.63112,-2.30066 -1.27814,-3.106859 -0.64702,-0.806198 -1.64198,-1.489992 -2.5956,-1.691075 -0.95362,-0.201084 -53.597393,-4.117441 -53.597393,-4.117441 0,0 -0.890239,-0.156491 -1.439641,-0.735292 -0.549402,-0.5788 -0.591478,-1.360985 -0.591478,-1.360985 l -0.09733,-8.351298 c 0,0 -0.129138,-0.653865 0.494556,-1.356214 0.623695,-0.702349 1.175868,-0.674903 1.175868,-0.674903 l 28.001061,1.933787 c 0,0 0.987568,0.02499 1.481352,0.69794 0.493784,0.67295 0.563668,1.615625 0.563668,1.615625 v 4.247351 c 0,0 25.208987,2.121653 27.404977,1.812141 1.15371,-0.162607 0.63529,-10.165717 0.75339,-14.650977 0.1181,-4.48526 -2.28077,-9.469754 -4.3076,-11.589507 -2.02683,-2.119752 -4.6716,-4.303977 -14.207467,-4.359264 -9.535869,-0.05529 -44.842969,-0.127018 -52.278756,0 -7.435787,0.127018 -10.246128,3.430091 -11.59346,4.599182 -1.347331,1.169091 -4.569565,5.886944 -4.530069,9.66035 0.0395,3.773406 0.0139,31.744314 0.0139,31.744314 0,0 0.468291,1.644614 1.613169,2.536443 1.144878,0.891829 3.017504,1.326768 3.017504,1.326768 l 53.485171,4.090043 c 0,0 0.766883,0.222854 1.061838,0.6489 0.294956,0.426046 0.353947,1.081501 0.353947,1.081501 v 8.809324 c 0,0 -0.196637,0.694782 -0.688228,1.199483 -0.491592,0.5047 -1.199484,0.530918 -1.199484,0.530918 L 54.429026,88.722459 c 0,0 -0.702269,-0.137645 -1.338527,-0.570245 -0.636257,-0.432601 -0.827271,-1.317465 -0.827271,-1.317465 v -4.090043 c 0,0 -25.856314,-2.791817 -27.462334,-2.137172 z"
       id="path912"
       sodipodi:nodetypes="szzzzzzzzzczcczcczccszzzzzzczcczcczcczccs" /></g></svg>
