<?xml version="1.0" encoding="UTF-8" standalone="no"?>
<!-- Created with Inkscape (http://www.inkscape.org/) -->

<svg
   width="512"
   height="512"
   viewBox="0 0 135.46667 135.46667"
   version="1.1"
   id="svg5"
   inkscape:version="1.2.1 (9c6d41e410, 2022-07-14)"
   sodipodi:docname="com_monpub_namuwiki_repack.svg"
   xml:space="preserve"
   inkscape:export-filename="com_android_vending.png"
   inkscape:export-xdpi="96"
   inkscape:export-ydpi="96"
   xmlns:inkscape="http://www.inkscape.org/namespaces/inkscape"
   xmlns:sodipodi="http://sodipodi.sourceforge.net/DTD/sodipodi-0.dtd"
   xmlns="http://www.w3.org/2000/svg"
   xmlns:svg="http://www.w3.org/2000/svg"><sodipodi:namedview
     id="namedview7"
     pagecolor="#ffffff"
     bordercolor="#666666"
     borderopacity="1.0"
     inkscape:showpageshadow="2"
     inkscape:pageopacity="0.0"
     inkscape:pagecheckerboard="0"
     inkscape:deskcolor="#d1d1d1"
     inkscape:document-units="px"
     showgrid="false"
     inkscape:zoom="2.2385958"
     inkscape:cx="234.52202"
     inkscape:cy="243.45619"
     inkscape:window-width="1920"
     inkscape:window-height="1017"
     inkscape:window-x="-8"
     inkscape:window-y="-8"
     inkscape:window-maximized="1"
     inkscape:current-layer="layer1" /><defs
     id="defs2" /><g
     inkscape:label="Layer 1"
     inkscape:groupmode="layer"
     id="layer1"><circle
       style="fill:none;stroke:#000000;stroke-width:2.11667;stroke-linecap:square"
       id="path1681"
       cx="37.041088"
       cy="46.718487"
       r="5.0055518" /><circle
       style="fill:none;stroke:#000000;stroke-width:2.11667;stroke-linecap:square"
       id="path1681-1"
       cx="34.705158"
       cy="88.208954"
       r="5.0055518" /><circle
       style="fill:none;stroke:#000000;stroke-width:2.11667;stroke-linecap:square"
       id="path1681-3"
       cx="64.40477"
       cy="55.172306"
       r="5.0055518" /><circle
       style="fill:none;stroke:#000000;stroke-width:2.11667;stroke-linecap:square"
       id="path1681-7"
       cx="106.78511"
       cy="68.520447"
       r="5.0055518" /><path
       id="path1820"
       style="fill:none;stroke:#000000;stroke-width:2.11667;stroke-linecap:round;stroke-linejoin:round"
       d="m 98.653368,75.979988 -17.83568,7.669249 c 0,0 0.852043,1.652695 1.37448,3.287206 0.522438,1.63451 0.220751,3.428042 -2.082372,4.425721 -2.303123,0.997678 -3.793961,-0.665516 -4.568719,-1.645001 -0.774757,-0.979484 -5.61706,-12.674919 -5.61706,-12.674919 l -24.768116,10.599241 0.0053,0.567471 c 0,5.774713 -4.68133,10.456043 -10.456043,10.456042 -5.774713,0 -10.456042,-4.681329 -10.456042,-10.456042 0,-5.774713 4.681329,-10.456042 10.456042,-10.456042 0,0 2.375899,-0.154541 4.641912,0.857441 2.266013,1.011982 3.873666,2.010678 3.873666,2.010678 l 3.85408,-1.730404 -9.384502,-21.77264 -0.649226,0.05654 c -5.774713,0 -10.456042,-4.681329 -10.456042,-10.456042 -10e-7,-5.774713 4.681329,-10.456043 10.456042,-10.456043 5.774713,0 10.456043,4.68133 10.456042,10.456043 0,0 0.184544,1.999081 -0.851435,4.189552 -1.035979,2.190471 -2.35577,3.437385 -2.35577,3.437385 l 9.588519,21.634982 13.13533,-5.663137 -1.798004,-4.634519 -0.811,-0.0544 c -5.774713,0 -10.456042,-4.681329 -10.456042,-10.456042 0,-5.774713 4.681329,-10.456042 10.456042,-10.456042 5.774713,0 10.456042,4.681329 10.456042,10.456042 0,0 0.04715,1.900457 -0.874812,4.505369 -0.92196,2.604912 -1.997633,3.678027 -1.997633,3.678027 l 5.98701,13.7298 18.319857,-8.016242 0.03386,-0.548811 c -10e-7,-5.774713 4.681326,-10.456043 10.456036,-10.456043 5.77471,10e-7 10.45604,4.681331 10.45604,10.456043 0,5.774712 -4.68133,10.456041 -10.45604,10.456042 0,0 -2.03363,0.145529 -4.41897,-0.690574 -2.385341,-0.836104 -3.712792,-2.305931 -3.712792,-2.305931 z"
       sodipodi:nodetypes="ccssscccssczccccssczcccccssczccccssczc" /></g></svg>
