<?xml version="1.0" encoding="UTF-8" standalone="no"?>
<!-- Created with Inkscape (http://www.inkscape.org/) -->

<svg
   width="512"
   height="512"
   viewBox="0 0 135.46667 135.46667"
   version="1.1"
   id="svg5"
   inkscape:version="1.3 (0e150ed6c4, 2023-07-21)"
   sodipodi:docname="com_microsoft_skydrive.svg"
   xml:space="preserve"
   inkscape:export-filename="com_android_vending.png"
   inkscape:export-xdpi="96"
   inkscape:export-ydpi="96"
   xmlns:inkscape="http://www.inkscape.org/namespaces/inkscape"
   xmlns:sodipodi="http://sodipodi.sourceforge.net/DTD/sodipodi-0.dtd"
   xmlns="http://www.w3.org/2000/svg"
   xmlns:svg="http://www.w3.org/2000/svg"><sodipodi:namedview
     id="namedview7"
     pagecolor="#ffffff"
     bordercolor="#666666"
     borderopacity="1.0"
     inkscape:showpageshadow="2"
     inkscape:pageopacity="0.0"
     inkscape:pagecheckerboard="0"
     inkscape:deskcolor="#d1d1d1"
     inkscape:document-units="px"
     showgrid="false"
     inkscape:zoom="1.8594518"
     inkscape:cx="493.69388"
     inkscape:cy="303.58409"
     inkscape:window-width="1920"
     inkscape:window-height="1009"
     inkscape:window-x="-8"
     inkscape:window-y="-8"
     inkscape:window-maximized="1"
     inkscape:current-layer="layer1" /><defs
     id="defs2"><inkscape:path-effect
       effect="copy_rotate"
       starting_point="82.813552,67.733335"
       origin="67.733335,67.733335"
       id="path-effect2"
       is_visible="true"
       lpeversion="1.2"
       lpesatellites=""
       method="normal"
       num_copies="3"
       starting_angle="0"
       rotation_angle="120"
       gap="0"
       copies_to_360="false"
       mirror_copies="false"
       split_items="false"
       link_styles="false" /><inkscape:path-effect
       effect="fillet_chamfer"
       id="path-effect1"
       is_visible="true"
       lpeversion="1"
       nodesatellites_param="F,0,0,1,0,5,0,1 @ F,0,0,1,0,5,0,1 @ F,0,0,1,0,5,0,1 @ F,0,0,1,0,5,0,1 @ F,0,0,1,0,5,0,1 @ F,0,0,1,0,5,0,1"
       radius="5"
       unit="px"
       method="auto"
       mode="F"
       chamfer_steps="1"
       flexible="false"
       use_knot_distance="true"
       apply_no_radius="true"
       apply_with_radius="true"
       only_selected="false"
       hide_knots="false" /><style
       id="style1">.cls-1{fill:none;stroke:#000000;stroke-linecap:round;stroke-linejoin:round;}</style><style
       id="style1-4">.cls-1{fill:none;stroke:#000000;stroke-miterlimit:10;}</style><style
       id="style1-49">.c{fill:none;stroke:#000000;stroke-linecap:round;stroke-linejoin:round;}</style></defs><g
     inkscape:label="Layer 1"
     inkscape:groupmode="layer"
     id="layer1"><path
       id="path5"
       style="fill:none;stroke:#000000;stroke-width:2.11667;stroke-linecap:round;stroke-linejoin:round"
       d="m 91.485374,60.158633 c 0,0 -2.651812,0.139064 -4.643807,0.9502 -1.991995,0.811136 -54.846274,22.869789 -54.846274,22.869789 M 48.393947,52.327039 c 0,0 3.798402,0.0139 6.710248,1.695059 2.911845,1.681155 52.320595,30.291207 52.320595,30.291207 M 68.955999,41.632602 c -9.157517,0 -17.033914,4.391321 -20.562052,10.694438 -0.100061,-0.0032 -0.200144,-0.0056 -0.300241,-0.0072 -11.002299,2.74e-4 -19.921276,8.919483 -19.921265,19.921782 -1.1e-5,11.002299 8.918966,19.921508 19.921265,19.921782 l 45.478363,0.04237 c 8.890781,-8.4e-5 16.098161,-7.207464 16.098241,-16.098243 -8e-5,-8.890779 -7.20746,-16.098159 -16.098241,-16.098243 -0.698067,0.0045 -1.395104,0.05437 -2.086695,0.149345 0.0036,-0.136167 0.0124,-0.274987 0.0124,-0.409277 0,-10.005474 -10.092338,-18.116724 -22.541778,-18.116724 z" /></g></svg>
