<?xml version="1.0" encoding="UTF-8" standalone="no"?>
<!-- Created with Inkscape (http://www.inkscape.org/) -->

<svg
   width="512"
   height="512"
   viewBox="0 0 135.46667 135.46667"
   version="1.1"
   id="svg5"
   inkscape:version="1.2 (dc2aedaf03, 2022-05-15)"
   sodipodi:docname="com_google_android_apps_books.svg"
   xml:space="preserve"
   inkscape:export-filename="com_android_vending.png"
   inkscape:export-xdpi="96"
   inkscape:export-ydpi="96"
   xmlns:inkscape="http://www.inkscape.org/namespaces/inkscape"
   xmlns:sodipodi="http://sodipodi.sourceforge.net/DTD/sodipodi-0.dtd"
   xmlns="http://www.w3.org/2000/svg"
   xmlns:svg="http://www.w3.org/2000/svg"><sodipodi:namedview
     id="namedview7"
     pagecolor="#ffffff"
     bordercolor="#666666"
     borderopacity="1.0"
     inkscape:showpageshadow="2"
     inkscape:pageopacity="0.0"
     inkscape:pagecheckerboard="0"
     inkscape:deskcolor="#d1d1d1"
     inkscape:document-units="px"
     showgrid="false"
     inkscape:zoom="1.6819304"
     inkscape:cx="341.86908"
     inkscape:cy="221.76898"
     inkscape:window-width="1920"
     inkscape:window-height="1017"
     inkscape:window-x="-8"
     inkscape:window-y="-8"
     inkscape:window-maximized="1"
     inkscape:current-layer="layer1" /><defs
     id="defs2" /><g
     inkscape:label="Layer 1"
     inkscape:groupmode="layer"
     id="layer1"><path
       id="path1009"
       style="fill:none;stroke:#000000;stroke-width:2.11667;stroke-linecap:round;stroke-linejoin:round;stroke-dasharray:none;stroke-opacity:1"
       d="m 78.75402,34.705161 v 18.909864 l 6.562836,-4.338145 6.117897,3.893206 V 34.593928 m 9.479177,22.817638 5.10093,2.644529 c 0,0 4.64959,2.796494 4.51481,8.288403 -0.13477,5.491908 -4.51481,8.288402 -4.51481,8.288402 l -62.533637,35.57948 c 0,0 -4.910176,1.82357 -9.299183,-1.28032 -4.389004,-3.1039 -4.312664,-7.47978 -4.312664,-7.47978 V 32.428091 c 0,0 0.314465,-4.447436 4.683284,-7.176544 4.368819,-2.729108 10.00673,-0.50539 10.00673,-0.50539 l 12.693005,9.232657 M 42.316208,111.375 V 33.978814 h 54.121494 c 0,0 2.215104,0.157262 3.22532,1.389952 1.010218,1.23269 1.250908,2.530106 1.250908,2.530106 v 41.07041 M 55.394777,104.56042 V 34.482692"
       sodipodi:nodetypes="cccccccsccsccscccccscccc" /></g></svg>
