<?xml version="1.0" encoding="UTF-8" standalone="no"?>
<!-- Created with Inkscape (http://www.inkscape.org/) -->

<svg
   width="512"
   height="512"
   viewBox="0 0 135.46667 135.46667"
   version="1.1"
   id="svg5"
   inkscape:version="1.2 (dc2aedaf03, 2022-05-15)"
   sodipodi:docname="com_yes24_library.svg"
   xml:space="preserve"
   inkscape:export-filename="com_yes24_library.png"
   inkscape:export-xdpi="96"
   inkscape:export-ydpi="96"
   xmlns:inkscape="http://www.inkscape.org/namespaces/inkscape"
   xmlns:sodipodi="http://sodipodi.sourceforge.net/DTD/sodipodi-0.dtd"
   xmlns="http://www.w3.org/2000/svg"
   xmlns:svg="http://www.w3.org/2000/svg"><sodipodi:namedview
     id="namedview7"
     pagecolor="#ffffff"
     bordercolor="#666666"
     borderopacity="1.0"
     inkscape:showpageshadow="2"
     inkscape:pageopacity="0.0"
     inkscape:pagecheckerboard="0"
     inkscape:deskcolor="#d1d1d1"
     inkscape:document-units="px"
     showgrid="false"
     inkscape:zoom="1.1893044"
     inkscape:cx="132.85077"
     inkscape:cy="249.72581"
     inkscape:window-width="1920"
     inkscape:window-height="1017"
     inkscape:window-x="-8"
     inkscape:window-y="-8"
     inkscape:window-maximized="1"
     inkscape:current-layer="layer1" /><defs
     id="defs2" /><g
     inkscape:label="Layer 1"
     inkscape:groupmode="layer"
     id="layer1"><path
       style="fill:#000000;fill-opacity:1;stroke:#000000;stroke-width:2.11667;stroke-linecap:butt;stroke-linejoin:miter;stroke-dasharray:none;stroke-opacity:1"
       d="M 17.797519,40.155651 24.193502,50.50046 21.913195,61.512672 H 26.86313 L 28.309178,50.834163 37.541641,40.37812 h -5.394873 l -5.005552,5.784194 -3.448269,-5.895427 z"
       id="path1014" /><path
       style="fill:#000000;fill-opacity:1;stroke:#000000;stroke-width:2.11667;stroke-linecap:butt;stroke-linejoin:miter;stroke-dasharray:none;stroke-opacity:1"
       d="m 41.21238,40.37812 -3.726355,21.245788 h 12.235794 l 0.55617,-3.83759 h -6.896536 l 0.945493,-4.894319 h 6.618452 l 0.667406,-4.282527 h -6.562833 l 0.945491,-4.560612 h 6.507218 l 0.667406,-3.781973 z"
       id="path1016" /><path
       style="fill:#000000;fill-opacity:1;stroke:#000000;stroke-width:2.11667;stroke-linecap:butt;stroke-linejoin:miter;stroke-dasharray:none;stroke-opacity:1"
       d="m 68.85415,44.271326 c 0,0 -1.520205,-1.381161 -3.976633,-1.112345 -2.456428,0.268817 -3.113936,1.739611 -3.003331,2.808672 0.110604,1.069061 1.308655,2.135342 3.837589,2.586202 0.814235,0.145163 1.473032,0.267144 2.613393,1.17366 0.94106,0.748085 1.139032,1.34239 1.502285,2.413654 0.363254,1.071264 0.531087,2.626891 -0.08342,4.254718 -0.614509,1.627827 -2.65783,3.53206 -4.282527,4.449379 -1.624697,0.917319 -3.23301,0.904662 -4.922128,0.917686 -1.689118,0.01302 -3.813778,-0.445273 -4.977742,-0.862068 -1.163964,-0.416795 -2.05784,-1.167963 -2.05784,-1.167963 l 2.66963,-3.726355 c 0,0 2.953009,2.195014 4.504997,2.280306 1.551988,0.08529 2.987719,-0.296771 4.00444,-1.501664 1.016721,-1.204893 0.701023,-2.497765 0,-3.503887 -0.701023,-1.006122 -2.034831,-0.461565 -3.670738,-1.112344 -1.635908,-0.650779 -3.877771,-1.923793 -4.22691,-3.948826 -0.174569,-1.012516 -0.04943,-2.625416 0.453054,-3.985187 0.502485,-1.359771 1.054008,-1.849871 1.938487,-2.716691 0.88448,-0.866819 2.042525,-1.343083 3.531695,-1.724135 1.489169,-0.381051 3.761291,-0.469647 5.200212,-0.19466 1.438921,0.274987 3.281418,1.446048 3.281418,1.446048 z"
       id="path1018"
       sodipodi:nodetypes="czzsszzzzzcczzzzsszzzcc" /><path
       style="fill:#000000;fill-opacity:1;stroke:#000000;stroke-width:2.11667;stroke-linecap:square;stroke-linejoin:miter;stroke-dasharray:none;stroke-opacity:1"
       d="m 78.53155,61.735142 h 16.740792 v -3.615121 h -7.675179 c 0,0 5.87243,-5.735274 6.963095,-7.100742 1.090665,-1.365467 1.714932,-2.240127 1.923496,-3.468341 0.208565,-1.228214 0.07026,-2.591497 -0.436143,-3.684641 -0.506398,-1.093145 -1.235338,-2.169686 -2.236449,-2.762937 -1.001111,-0.593251 -2.192826,-1.090007 -3.376942,-1.209506 -1.184115,-0.1195 -2.475819,0.167943 -3.625242,0.566533 -1.149423,0.398591 -2.452915,1.164888 -3.487597,2.159291 -1.034682,0.994403 -2.731991,4.098809 -2.731991,4.098809 h 4.504997 c 0,0 0.514562,-1.659554 1.135621,-2.243536 0.621059,-0.583981 1.767608,-1.256014 2.590733,-1.260352 0.823125,-0.0043 1.698882,0.426366 2.282863,0.963999 0.583981,0.537633 0.794712,1.412666 1.024388,2.399447 0.229677,0.98678 -0.508103,1.971469 -1.649433,3.723561 -1.141331,1.752092 -3.616499,3.995982 -5.60804,5.902995 -1.991542,1.907013 -6.338969,5.530541 -6.338969,5.530541 z"
       id="path1850"
       sodipodi:nodetypes="cccczzzzzzzcczzzzzzc" /><path
       id="path1854"
       style="fill:#000000;fill-opacity:1;stroke:#000000;stroke-width:2.11667;stroke-linecap:butt;stroke-linejoin:miter;stroke-dasharray:none;stroke-opacity:1"
       d="m 110.56709,44.60503 -6.28475,8.509439 0.16685,1.167963 h 5.1724 l 2.588,-9.658559 z m -1.33482,12.569499 H 98.220057 l 0.667406,-2.947715 11.012217,-13.348139 h 5.95104 l -1.9466,13.459373 h 2.50278 v 2.66963 h -2.44716 l -0.94549,1.001109 v 3.392652 h -4.44939 z" /><path
       style="fill:none;stroke:#000000;stroke-width:2.11666672;stroke-linecap:butt;stroke-linejoin:miter;stroke-opacity:1;stroke-dasharray:none"
       d="M -2.0022209,87.65278 H 150.38903"
       id="path361" /><g
       aria-label="전자도서관"
       id="text972"
       style="font-size:22.5778px;line-height:1.25;font-family:NanumGothic;-inkscape-font-specification:NanumGothic;stroke-width:0.264583"
       transform="matrix(1,0,-0.05240778,1,5.7144142,0)"><path
         d="m 27.924527,113.61812 v -7.56268 h -4.134118 v -2.20486 h 4.134118 v -5.446014 h 2.711982 v 15.213554 z m -4.200264,-2.65686 q -2.998614,-1.48828 -4.740456,-4.00182 -0.562241,1.19062 -2.028475,2.63481 -1.466234,1.44418 -2.778128,2.08359 l -1.962328,-1.94028 q 2.226912,-0.84887 3.759292,-2.75608 1.543404,-1.9072 1.543404,-3.85851 v -1.2237 h -4.376653 v -2.293053 h 11.421192 v 2.293053 H 20.2957 v 1.13551 q 0,1.91823 1.466234,3.50573 1.466235,1.57648 3.726219,2.31511 z m -7.000441,7.99263 v -7.11068 h 2.778127 v 4.78455 h 11.355047 v 2.32613 z"
         style="font-weight:bold;font-family:'Noto Sans JP';-inkscape-font-specification:'Noto Sans JP Bold'"
         id="path1024" /><path
         d="m 52.144951,108.89972 v 10.77075 H 49.399897 V 98.404566 h 2.745054 v 8.169014 h 3.329344 v 2.32614 z m -5.886985,5.51215 q -3.340368,-2.39227 -4.784553,-5.08221 -0.848873,1.56546 -2.237937,3.17501 -1.378039,1.59852 -2.524568,2.3151 l -2.039499,-1.76389 q 2.072572,-1.00321 3.737244,-3.41754 1.664672,-2.41432 1.664672,-4.79557 v -2.32613 H 35.46516 v -2.32613 h 11.873189 v 2.32613 h -4.508945 v 2.25998 q 0,2.24896 1.598526,4.47587 1.598526,2.22692 3.660073,3.13091 z"
         style="font-weight:bold;font-family:'Noto Sans JP';-inkscape-font-specification:'Noto Sans JP Bold'"
         id="path1026" /><path
         d="m 57.590964,116.76005 v -2.30408 h 8.466675 v -4.22231 h -5.324745 v -9.95496 h 13.449667 v 2.30408 H 63.511022 v 5.3468 h 10.991244 v 2.30408 h -5.666499 v 4.22231 h 8.488724 v 2.30408 z"
         style="font-weight:bold;font-family:'Noto Sans JP';-inkscape-font-specification:'Noto Sans JP Bold'"
         id="path1028" /><path
         d="M 95.657926,119.67047 V 107.1689 h -4.608164 v -2.32613 h 4.608164 v -6.438204 h 2.756079 v 21.265904 z m -4.178216,-5.28064 q -3.274222,-2.27101 -4.872748,-5.32475 -1.752867,3.46164 -4.905821,5.68855 l -2.138718,-1.89618 q 2.447399,-1.25678 4.056949,-3.7593 1.60955,-2.50252 1.60955,-5.13733 v -4.134117 h 2.756079 v 4.067977 q 0,2.57969 1.576478,4.98299 1.576477,2.39227 3.858511,3.36241 z"
         style="font-weight:bold;font-family:'Noto Sans JP';-inkscape-font-specification:'Noto Sans JP Bold'"
         id="path1030" /><path
         d="m 120.10986,107.70909 v 6.29488 h -2.77812 V 98.404566 h 2.77812 v 6.956344 h 3.14193 v 2.34818 z m -5.03811,-8.180044 q 0,4.497924 -0.38585,7.661904 l -2.70096,-0.25356 q 0.24254,-2.22691 0.30868,-5.08221 h -8.16901 v -2.326134 z m 1.56545,11.090464 q -6.57049,0.38585 -14.11112,0.38585 l -0.27561,-2.32613 q 2.96554,0 4.65226,-0.0441 v -4.22231 h 2.77813 v 4.20026 q 4.82865,-0.11024 6.79098,-0.25356 z m -10.95817,8.33438 v -6.77995 h 2.77813 v 4.45382 h 11.92831 v 2.32613 z"
         style="font-weight:bold;font-family:'Noto Sans JP';-inkscape-font-specification:'Noto Sans JP Bold'"
         id="path1032" /></g></g></svg>
