<?xml version="1.0" encoding="UTF-8" standalone="no"?>
<!-- Created with Inkscape (http://www.inkscape.org/) -->

<svg
   width="512"
   height="512"
   viewBox="0 0 135.46667 135.46667"
   version="1.1"
   id="svg5"
   inkscape:version="1.3 (0e150ed6c4, 2023-07-21)"
   sodipodi:docname="com_navercorp_android_smartboard.svg"
   xml:space="preserve"
   inkscape:export-filename="com_android_vending.png"
   inkscape:export-xdpi="96"
   inkscape:export-ydpi="96"
   xmlns:inkscape="http://www.inkscape.org/namespaces/inkscape"
   xmlns:sodipodi="http://sodipodi.sourceforge.net/DTD/sodipodi-0.dtd"
   xmlns="http://www.w3.org/2000/svg"
   xmlns:svg="http://www.w3.org/2000/svg"><sodipodi:namedview
     id="namedview7"
     pagecolor="#ffffff"
     bordercolor="#666666"
     borderopacity="1.0"
     inkscape:showpageshadow="2"
     inkscape:pageopacity="0.0"
     inkscape:pagecheckerboard="0"
     inkscape:deskcolor="#d1d1d1"
     inkscape:document-units="px"
     showgrid="false"
     inkscape:zoom="1.1893044"
     inkscape:cx="189.60663"
     inkscape:cy="224.92139"
     inkscape:window-width="1920"
     inkscape:window-height="1009"
     inkscape:window-x="-8"
     inkscape:window-y="-8"
     inkscape:window-maximized="1"
     inkscape:current-layer="layer1" /><defs
     id="defs2" /><g
     inkscape:label="Layer 1"
     inkscape:groupmode="layer"
     id="layer1"><rect
       style="fill:none;stroke:#000000;stroke-width:2.11667;stroke-linecap:round;stroke-linejoin:round;stroke-dasharray:none;stroke-opacity:1"
       id="rect229"
       width="90.767487"
       height="90.767487"
       x="22.349592"
       y="22.349592"
       ry="9.5250006"
       rx="9.5250006" /><path
       style="fill:none;stroke:#000000;stroke-width:2.11667;stroke-linecap:round;stroke-linejoin:round;stroke-dasharray:none;stroke-opacity:1"
       d="m 23.28178,61.507946 h 89.19439"
       id="path963" /><path
       style="fill:none;stroke:#000000;stroke-width:2.11667;stroke-linecap:round;stroke-linejoin:miter;stroke-dasharray:none;stroke-opacity:1"
       d="m 35.595037,35.595037 v 16.35147 h 5.116788 v -8.342585 l 6.340364,8.676288 h 4.671848 V 35.595037 h -4.894315 v 8.565055 l -6.117897,-8.676288 z"
       id="path972" /><path
       d="m 76.558757,40.46624 q 0,3.905874 -7.083237,11.392865 -6.995465,-6.907693 -6.995465,-11.392865 0,-1.597459 1.044492,-2.799942 1.070824,-1.246369 2.589287,-1.246369 1.299033,0 2.203089,0.763621 0.877725,0.746066 1.176151,2.036321 0.500303,-1.413137 1.123488,-2.018767 0.798729,-0.781175 2.238197,-0.781175 1.685231,0 2.720946,1.193706 0.983052,1.132265 0.983052,2.852605 z m -1.351696,0.02633 q 0,-1.413137 -0.544189,-2.080208 -0.60563,-0.754843 -1.992435,-0.754843 -0.781175,0 -1.360473,0.763621 -0.333535,0.430085 -0.746066,1.413136 -0.272095,0.640739 -0.41253,0.842616 -0.28965,0.41253 -0.693403,0.41253 -0.614407,0 -1.035715,-1.21126 -0.368644,-1.035715 -0.667071,-1.474577 -0.526634,-0.76362 -1.334141,-0.76362 -2.589288,0 -2.589288,2.852605 0,2.045098 1.887108,5.00303 1.509687,2.369856 3.703998,4.581722 5.784205,-6.275731 5.784205,-9.584752 z"
       id="text1028"
       style="font-size:17.9758px;font-family:'Noto Sans KR';-inkscape-font-specification:'Noto Sans KR';fill:none;stroke:#000000;stroke-width:2.11666672;stroke-linecap:round;stroke-dasharray:none"
       aria-label="♡" /><rect
       style="fill:none;stroke:#000000;stroke-width:2.11667;stroke-linecap:round;stroke-linejoin:miter;stroke-dasharray:none;stroke-opacity:1"
       id="rect1080"
       width="9.899869"
       height="13.125669"
       x="89.21006"
       y="33.036644"
       rx="4.2333336" /><path
       style="fill:none;stroke:#000000;stroke-width:2.11667;stroke-linecap:round;stroke-linejoin:miter;stroke-dasharray:none;stroke-opacity:1"
       d="m 86.206732,43.270216 c 0,0 1.816829,6.674069 8.175733,6.674069 6.358905,0 7.953265,-6.674069 7.953265,-6.674069"
       id="path1084"
       sodipodi:nodetypes="czc" /><path
       style="fill:none;stroke:#000000;stroke-width:2.11667;stroke-linecap:round;stroke-linejoin:miter;stroke-dasharray:none;stroke-opacity:1"
       d="m 94.438083,50.055522 v 3.559503"
       id="path1182" /><rect
       style="fill:none;stroke:#000000;stroke-width:2.11666672;stroke-linecap:round;stroke-linejoin:miter;stroke-dasharray:none;stroke-opacity:1"
       id="rect1197"
       width="7.1081376"
       height="7.1081376"
       x="46.612686"
       y="71.084282"
       rx="0.95253402"
       ry="0.95253402" /><rect
       style="fill:none;stroke:#000000;stroke-width:2.11667;stroke-linecap:round;stroke-linejoin:miter;stroke-dasharray:none;stroke-opacity:1"
       id="rect1197-3"
       width="7.1081376"
       height="7.1081376"
       x="59.07095"
       y="71.084282"
       rx="0.95253402"
       ry="0.95253402" /><rect
       style="fill:none;stroke:#000000;stroke-width:2.11667;stroke-linecap:round;stroke-linejoin:miter;stroke-dasharray:none;stroke-opacity:1"
       id="rect1197-8"
       width="7.1081376"
       height="7.1081376"
       x="71.640442"
       y="71.084282"
       rx="0.95253402"
       ry="0.95253402" /><rect
       style="fill:none;stroke:#000000;stroke-width:2.11667;stroke-linecap:round;stroke-linejoin:miter;stroke-dasharray:none;stroke-opacity:1"
       id="rect1197-81"
       width="7.1081376"
       height="7.1081376"
       x="84.432419"
       y="71.084282"
       rx="0.95253402"
       ry="0.95253402" /><rect
       style="fill:none;stroke:#000000;stroke-width:2.11667;stroke-linecap:round;stroke-linejoin:miter;stroke-dasharray:none;stroke-opacity:1"
       id="rect1197-5"
       width="7.1081376"
       height="7.1081376"
       x="39.493679"
       y="82.318954"
       rx="0.95253402"
       ry="0.95253402" /><rect
       style="fill:none;stroke:#000000;stroke-width:2.11667;stroke-linecap:round;stroke-linejoin:miter;stroke-dasharray:none;stroke-opacity:1"
       id="rect1197-7"
       width="7.1081376"
       height="7.1081376"
       x="52.285645"
       y="82.319023"
       rx="0.95253402"
       ry="0.95253402" /><rect
       style="fill:none;stroke:#000000;stroke-width:2.11667;stroke-linecap:round;stroke-linejoin:miter;stroke-dasharray:none;stroke-opacity:1"
       id="rect1197-6"
       width="7.1081376"
       height="7.1081376"
       x="64.743904"
       y="82.319023"
       rx="0.95253402"
       ry="0.95253402" /><path
       id="rect1197-6-1"
       style="fill:none;stroke:#000000;stroke-width:2.11667;stroke-linecap:round"
       d="m 49.456208,94.665993 38.795885,0 c 0.527704,0 0.952534,0.42483 0.952534,0.952534 v 5.203073 c 0,0.5277 -0.42483,0.95253 -0.952534,0.95253 l -38.795885,0 c -0.527704,0 -0.952534,-0.42483 -0.952534,-0.95253 v -5.203073 c 0,-0.527704 0.42483,-0.952534 0.952534,-0.952534 z"
       sodipodi:nodetypes="sssssssss" /><rect
       style="fill:none;stroke:#000000;stroke-width:2.11667;stroke-linecap:round;stroke-linejoin:miter;stroke-dasharray:none;stroke-opacity:1"
       id="rect1197-65"
       width="7.1081376"
       height="7.1081376"
       x="77.980812"
       y="82.319023"
       rx="0.95253402"
       ry="0.95253402" /><rect
       style="fill:none;stroke:#000000;stroke-width:2.11667;stroke-linecap:round;stroke-linejoin:miter;stroke-dasharray:none;stroke-opacity:1"
       id="rect1197-4"
       width="7.1081376"
       height="7.1081376"
       x="90.105377"
       y="82.319023"
       rx="0.95253402"
       ry="0.95253402" /></g></svg>
