<?xml version="1.0" encoding="UTF-8" standalone="no"?>
<!-- Created with Inkscape (http://www.inkscape.org/) -->

<svg
   width="512"
   height="512"
   viewBox="0 0 135.46667 135.46667"
   version="1.1"
   id="svg5"
   inkscape:version="1.3 (0e150ed6c4, 2023-07-21)"
   sodipodi:docname="com_incube_newepub.svg"
   xml:space="preserve"
   inkscape:export-filename="com_incube_newepub.png"
   inkscape:export-xdpi="96"
   inkscape:export-ydpi="96"
   xmlns:inkscape="http://www.inkscape.org/namespaces/inkscape"
   xmlns:sodipodi="http://sodipodi.sourceforge.net/DTD/sodipodi-0.dtd"
   xmlns="http://www.w3.org/2000/svg"
   xmlns:svg="http://www.w3.org/2000/svg"><sodipodi:namedview
     id="namedview7"
     pagecolor="#ffffff"
     bordercolor="#666666"
     borderopacity="1.0"
     inkscape:showpageshadow="2"
     inkscape:pageopacity="0.0"
     inkscape:pagecheckerboard="0"
     inkscape:deskcolor="#d1d1d1"
     inkscape:document-units="px"
     showgrid="false"
     inkscape:zoom="1.1893044"
     inkscape:cx="167.3247"
     inkscape:cy="273.68939"
     inkscape:window-width="1920"
     inkscape:window-height="1009"
     inkscape:window-x="-8"
     inkscape:window-y="-8"
     inkscape:window-maximized="1"
     inkscape:current-layer="layer1" /><defs
     id="defs2" /><g
     inkscape:label="Layer 1"
     inkscape:groupmode="layer"
     id="layer1"><path
       style="fill:#000000;fill-opacity:1;stroke:#000000;stroke-width:2.11667;stroke-linecap:butt;stroke-linejoin:miter;stroke-dasharray:none;stroke-opacity:1"
       d="m 12.235794,37.486023 6.395983,10.344809 -2.280307,11.012212 h 4.949935 l 1.446048,-10.678509 9.232463,-10.456043 h -5.394873 l -5.005552,5.784194 -3.448269,-5.895427 z"
       id="path1014" /><path
       style="fill:#000000;fill-opacity:1;stroke:#000000;stroke-width:2.11667;stroke-linecap:butt;stroke-linejoin:miter;stroke-dasharray:none;stroke-opacity:1"
       d="M 35.650655,37.708492 31.9243,58.95428 h 12.235794 l 0.55617,-3.83759 h -6.896536 l 0.945493,-4.894319 h 6.618452 l 0.667406,-4.282527 h -6.562833 l 0.945491,-4.560612 h 6.507218 l 0.667406,-3.781973 z"
       id="path1016" /><path
       style="fill:#000000;fill-opacity:1;stroke:#000000;stroke-width:2.11667;stroke-linecap:butt;stroke-linejoin:miter;stroke-dasharray:none;stroke-opacity:1"
       d="m 63.292425,41.601698 c 0,0 -1.520205,-1.381161 -3.976633,-1.112345 -2.456428,0.268817 -3.113936,1.739611 -3.003331,2.808672 0.110604,1.069061 1.308655,2.135342 3.837589,2.586202 0.814235,0.145163 1.473032,0.267144 2.613393,1.17366 0.94106,0.748085 1.139032,1.34239 1.502285,2.413654 0.363254,1.071264 0.531087,2.626891 -0.08342,4.254718 -0.614509,1.627827 -2.65783,3.53206 -4.282527,4.449379 -1.624697,0.917319 -3.23301,0.904662 -4.922128,0.917686 -1.689118,0.01302 -3.813778,-0.445273 -4.977742,-0.862068 -1.163964,-0.416795 -2.05784,-1.167963 -2.05784,-1.167963 l 2.66963,-3.726355 c 0,0 2.953009,2.195014 4.504997,2.280306 1.551988,0.08529 2.987719,-0.296771 4.00444,-1.501664 1.016721,-1.204893 0.701023,-2.497765 0,-3.503887 -0.701023,-1.006122 -2.034831,-0.461565 -3.670738,-1.112344 -1.635908,-0.650779 -3.877771,-1.923793 -4.22691,-3.948826 -0.174569,-1.012516 -0.04943,-2.625416 0.453054,-3.985187 0.502485,-1.359771 1.054008,-1.849871 1.938487,-2.716691 0.88448,-0.866819 2.042525,-1.343083 3.531695,-1.724135 1.489169,-0.381051 3.761291,-0.469647 5.200212,-0.19466 1.438921,0.274987 3.281418,1.446048 3.281418,1.446048 z"
       id="path1018"
       sodipodi:nodetypes="czzsszzzzzcczzzzsszzzcc" /><path
       style="fill:#000000;fill-opacity:1;stroke:#000000;stroke-width:2.11667;stroke-linecap:square;stroke-linejoin:miter;stroke-dasharray:none;stroke-opacity:1"
       d="m 72.969825,59.065514 h 16.740792 v -3.615121 h -7.675179 c 0,0 5.87243,-5.735274 6.963095,-7.100742 1.090665,-1.365467 1.714932,-2.240127 1.923496,-3.468341 0.208565,-1.228214 0.07026,-2.591497 -0.436143,-3.684641 -0.506398,-1.093145 -1.235338,-2.169686 -2.236449,-2.762937 -1.001111,-0.593251 -2.192826,-1.090007 -3.376942,-1.209506 -1.184115,-0.1195 -2.475819,0.167943 -3.625242,0.566533 -1.149423,0.398591 -2.452915,1.164888 -3.487597,2.159291 -1.034682,0.994403 -2.731991,4.098809 -2.731991,4.098809 h 4.504997 c 0,0 0.514562,-1.659554 1.135621,-2.243536 0.621059,-0.583981 1.767608,-1.256014 2.590733,-1.260352 0.823125,-0.0043 1.698882,0.426366 2.282863,0.963999 0.583981,0.537633 0.794712,1.412666 1.024388,2.399447 0.229677,0.98678 -0.508103,1.971469 -1.649433,3.723561 -1.141331,1.752092 -3.616499,3.995982 -5.60804,5.902995 -1.991542,1.907013 -6.338969,5.530541 -6.338969,5.530541 z"
       id="path1850"
       sodipodi:nodetypes="cccczzzzzzzcczzzzzzc" /><path
       id="path1854"
       style="fill:#000000;fill-opacity:1;stroke:#000000;stroke-width:2.11667;stroke-linecap:butt;stroke-linejoin:miter;stroke-dasharray:none;stroke-opacity:1"
       d="m 105.00536,41.935402 -6.284749,8.509439 0.166851,1.167963 h 5.172398 l 2.588,-9.658559 z m -1.33482,12.569499 H 92.658332 l 0.667406,-2.947715 11.012212,-13.348139 h 5.95104 l -1.9466,13.459373 h 2.50278 v 2.66963 h -2.44716 l -0.94549,1.001109 v 3.392652 h -4.44939 z" /><path
       style="fill:#000000;fill-opacity:1;stroke:#000000;stroke-width:2.11667;stroke-linecap:butt;stroke-linejoin:miter;stroke-dasharray:none;stroke-opacity:1"
       d="m 63.737362,63.959832 c -2.315214,1.839634 -1.043231,3.847133 -1.043231,3.847133 0,0 3.7314,7.572941 11.276806,11.503226 7.545407,3.930286 11.197002,3.843326 16.740792,3.893206 5.54379,0.0499 10.418961,-0.14831 17.908751,-3.448268 7.48979,-3.299956 12.68073,-12.347027 12.68073,-12.347027 0,0 0.49378,-2.382109 -1.26291,-3.601627 -1.75669,-1.219518 -3.74264,0.820763 -3.74264,0.820763 0,0 -4.11568,7.044851 -9.59398,9.872061 -5.4783,2.827211 -9.960282,3.109497 -14.599521,3.086758 -4.639239,-0.02274 -9.751557,-0.463477 -15.322551,-3.503886 -5.570993,-3.040409 -9.348467,-9.752102 -9.348467,-9.752102 0,0 -1.378564,-2.209872 -3.693779,-0.370237 z"
       id="path1857"
       sodipodi:nodetypes="zczzzczczzzcz" /><path
       style="fill:#000000;fill-opacity:1;stroke:#000000;stroke-width:2.11667;stroke-linecap:butt;stroke-linejoin:miter;stroke-dasharray:none;stroke-opacity:1"
       d="m 86.928054,30.026831 c 0.551667,0.16573 1.37318,0.114705 1.956535,-0.06882 0.583356,-0.183528 1.103036,-0.706369 1.504272,-1.169988 0.401235,-0.463618 3.345668,-10.801318 3.43131,-11.503244 0.08564,-0.701926 0.0033,-1.491161 -0.324451,-2.054853 -0.327728,-0.563692 -0.912553,-1.225022 -1.533766,-1.405952 -0.621213,-0.18093 -1.55343,0.05899 -2.123676,0.353946 -0.570246,0.294954 -1.146641,1.19192 -1.533766,1.995861 -0.387125,0.803941 -3.389598,10.555475 -3.352655,11.149297 0.03694,0.593823 0.101595,1.222425 0.442432,1.641917 0.340836,0.419491 0.982098,0.896108 1.533765,1.061838 z"
       id="path2596"
       sodipodi:nodetypes="zzzzzzzzzzz" /><path
       style="fill:#000000;fill-opacity:1;stroke:#000000;stroke-width:2.11667;stroke-linecap:butt;stroke-linejoin:miter;stroke-dasharray:none;stroke-opacity:1"
       d="m 102.03363,30.008345 c 0.55166,0.165731 1.37318,0.114705 1.95653,-0.06882 0.58336,-0.183528 1.10304,-0.706369 1.50427,-1.169988 0.40124,-0.463617 3.34567,-10.801318 3.43131,-11.503244 0.0856,-0.701926 0.003,-1.491161 -0.32445,-2.054853 -0.32773,-0.563692 -0.91255,-1.225022 -1.53376,-1.405952 -0.62122,-0.18093 -1.55343,0.05899 -2.12368,0.353946 -0.57025,0.294954 -1.14664,1.19192 -1.53377,1.995861 -0.38712,0.803941 -3.38959,10.555475 -3.35265,11.149297 0.0369,0.593824 0.10159,1.222426 0.44243,1.641917 0.34084,0.419491 0.9821,0.896108 1.53377,1.061839 z"
       id="path2596-3"
       sodipodi:nodetypes="zzzzzzzzzzz" /><path
       style="fill:none;stroke:#000000;stroke-width:2.11666672;stroke-linecap:butt;stroke-linejoin:miter;stroke-opacity:1;stroke-dasharray:none"
       d="M -4.8943177,94.771787 H 163.73717"
       id="path361" /><path
       style="font-weight:900;font-size:22.5778px;line-height:1.25;font-family:'Noto Sans JP';-inkscape-font-specification:'Noto Sans JP Heavy';text-align:center;text-anchor:middle;stroke-width:0.264583"
       d="m 36.605222,104.85835 v 5.26063 h -2.822225 v 2.91253 h 2.822225 v 7.2249 h 3.657604 v -15.39806 z m -10.588989,14.1337 v 6.72819 h 14.675571 v -2.88996 H 29.673837 v -3.83823 z M 23.103697,106.1227 v 2.86739 h 3.883382 c -0.04516,2.46098 -1.219201,5.10258 -4.83165,6.25405 l 1.806224,2.88995 c 2.415825,-0.76764 3.996271,-2.30293 4.921961,-4.22204 0.903112,1.73849 2.393247,3.11573 4.651027,3.83822 l 1.761068,-2.82222 c -3.431825,-1.12889 -4.560715,-3.63503 -4.605871,-5.93796 h 3.838226 v -2.86739 z m 20.365177,0.67734 v 2.98027 h 4.154316 v 0.38382 c 0,3.40925 -1.264357,7.33779 -5.012272,9.07628 l 2.032002,2.86738 c 2.415825,-1.10631 3.973693,-3.22863 4.876805,-5.75734 0.92569,2.28036 2.438403,4.19947 4.741338,5.21547 l 1.986847,-2.86738 c -3.70276,-1.67076 -4.967117,-5.41867 -4.967117,-8.53441 v -0.38382 h 3.928538 v -2.98027 z m 12.779036,-1.94169 v 21.17797 h 3.657603 v -10.38578 h 2.844803 v -2.98027 h -2.844803 v -7.81192 z m 9.798766,1.30951 v 10.76961 h 5.621873 v 3.90596 h -7.744186 v 2.95769 h 19.168553 v -2.95769 h -7.789341 v -3.90596 h 5.825072 v -2.88996 H 69.681702 v -4.98969 H 80.99318 v -2.88996 z m 32.963592,-1.35467 v 6.34436 h -3.58987 v 2.91254 h 3.58987 v 12.01139 h 3.635022 v -21.26829 z m -9.708454,1.53529 v 2.68676 c 0,4.08658 -1.196623,8.19574 -5.057427,9.93423 l 2.25778,2.91254 c 2.280358,-1.10631 3.747915,-3.048 4.628449,-5.48641 0.835379,2.28036 2.25778,4.08659 4.470405,5.14774 l 2.167468,-2.88996 c -3.747914,-1.6256 -4.809071,-5.50898 -4.809071,-9.61814 v -2.68676 z m 16.978506,-0.0226 v 2.88996 h 7.47325 c -0.0451,1.19663 -0.11289,2.59645 -0.4064,4.33494 l 3.52214,0.4064 c 0.47413,-2.57387 0.47413,-4.65103 0.47413,-6.18632 v -1.44498 z m -0.90311,11.78562 c 3.58987,-0.0226 8.4441,-0.11289 12.80161,-0.94827 l -0.22578,-2.57387 c -1.8288,0.27093 -3.81565,0.42898 -5.77991,0.51929 v -3.72534 h -3.58987 v 3.83823 l -3.52214,0.0226 z m 13.56926,-13.27575 v 15.80446 h 3.6576 v -6.6153 h 2.25778 v -2.95769 h -2.25778 v -6.23147 z m -10.8825,14.42721 v 6.45726 h 15.21743 v -2.88996 h -11.55983 v -3.5673 z"
       id="text972"
       transform="skewX(-3)"
       aria-label="전자도서관" /></g></svg>
