<?xml version="1.0" encoding="UTF-8" standalone="no"?>
<!-- Created with Inkscape (http://www.inkscape.org/) -->

<svg
   width="512"
   height="512"
   viewBox="0 0 135.46667 135.46667"
   version="1.1"
   id="svg5"
   inkscape:version="1.3 (0e150ed6c4, 2023-07-21)"
   sodipodi:docname="com_wireguard_android.svg"
   xml:space="preserve"
   inkscape:export-filename="com_android_vending.png"
   inkscape:export-xdpi="96"
   inkscape:export-ydpi="96"
   xmlns:inkscape="http://www.inkscape.org/namespaces/inkscape"
   xmlns:sodipodi="http://sodipodi.sourceforge.net/DTD/sodipodi-0.dtd"
   xmlns="http://www.w3.org/2000/svg"
   xmlns:svg="http://www.w3.org/2000/svg"><sodipodi:namedview
     id="namedview7"
     pagecolor="#ffffff"
     bordercolor="#666666"
     borderopacity="1.0"
     inkscape:showpageshadow="2"
     inkscape:pageopacity="0.0"
     inkscape:pagecheckerboard="0"
     inkscape:deskcolor="#d1d1d1"
     inkscape:document-units="px"
     showgrid="false"
     inkscape:zoom="1.1893044"
     inkscape:cx="189.18622"
     inkscape:cy="266.96277"
     inkscape:window-width="1920"
     inkscape:window-height="1009"
     inkscape:window-x="-8"
     inkscape:window-y="-8"
     inkscape:window-maximized="1"
     inkscape:current-layer="layer1" /><defs
     id="defs2"><linearGradient
       id="a"
       x1="70.79"
       x2="6.447"
       y1="12.39"
       y2="74.47"
       gradientTransform="matrix(1.1808848,0,0,1.1808848,20.479884,20.539389)"
       gradientUnits="userSpaceOnUse"><stop
         stop-color="#fff44f"
         offset=".048"
         id="stop113" /><stop
         stop-color="#ffe847"
         offset=".111"
         id="stop115" /><stop
         stop-color="#ffc830"
         offset=".225"
         id="stop117" /><stop
         stop-color="#ff980e"
         offset=".368"
         id="stop119" /><stop
         stop-color="#ff8b16"
         offset=".401"
         id="stop121" /><stop
         stop-color="#ff672a"
         offset=".462"
         id="stop123" /><stop
         stop-color="#ff3647"
         offset=".534"
         id="stop125" /><stop
         stop-color="#e31587"
         offset=".705"
         id="stop127" /></linearGradient><radialGradient
       id="b"
       cx="-7907"
       cy="-8515"
       r="80.8"
       gradientTransform="matrix(1.1808848,0,0,1.1808848,9438.3904,10086.406)"
       gradientUnits="userSpaceOnUse"><stop
         stop-color="#ffbd4f"
         offset=".129"
         id="stop130" /><stop
         stop-color="#ffac31"
         offset=".186"
         id="stop132" /><stop
         stop-color="#ff9d17"
         offset=".247"
         id="stop134" /><stop
         stop-color="#ff980e"
         offset=".283"
         id="stop136" /><stop
         stop-color="#ff563b"
         offset=".403"
         id="stop138" /><stop
         stop-color="#ff3750"
         offset=".467"
         id="stop140" /><stop
         stop-color="#f5156c"
         offset=".71"
         id="stop142" /><stop
         stop-color="#eb0878"
         offset=".782"
         id="stop144" /><stop
         stop-color="#e50080"
         offset=".86"
         id="stop146" /></radialGradient><radialGradient
       id="c"
       cx="-7937"
       cy="-8482"
       r="80.8"
       gradientTransform="matrix(1.1808848,0,0,1.1808848,9438.3904,10086.406)"
       gradientUnits="userSpaceOnUse"><stop
         stop-color="#960e18"
         offset=".3"
         id="stop149" /><stop
         stop-color="#b11927"
         stop-opacity=".74"
         offset=".351"
         id="stop151" /><stop
         stop-color="#db293d"
         stop-opacity=".343"
         offset=".435"
         id="stop153" /><stop
         stop-color="#f5334b"
         stop-opacity=".094"
         offset=".497"
         id="stop155" /><stop
         stop-color="#ff3750"
         stop-opacity="0"
         offset=".53"
         id="stop157" /></radialGradient><radialGradient
       id="d"
       cx="-7927"
       cy="-8533"
       r="58.53"
       gradientTransform="matrix(1.1808848,0,0,1.1808848,9438.3904,10086.406)"
       gradientUnits="userSpaceOnUse"><stop
         stop-color="#fff44f"
         offset=".132"
         id="stop160" /><stop
         stop-color="#ffdc3e"
         offset=".252"
         id="stop162" /><stop
         stop-color="#ff9d12"
         offset=".506"
         id="stop164" /><stop
         stop-color="#ff980e"
         offset=".526"
         id="stop166" /></radialGradient><radialGradient
       id="e"
       cx="-7946"
       cy="-8461"
       r="38.47"
       gradientTransform="translate(7974,8524)"
       gradientUnits="userSpaceOnUse"><stop
         stop-color="#3a8ee6"
         offset=".353"
         id="stop169" /><stop
         stop-color="#5c79f0"
         offset=".472"
         id="stop171" /><stop
         stop-color="#9059ff"
         offset=".669"
         id="stop173" /><stop
         stop-color="#c139e6"
         offset="1"
         id="stop175" /></radialGradient><radialGradient
       id="f"
       cx="-7936"
       cy="-8492"
       r="20.4"
       gradientTransform="matrix(0.972,-0.235,0.275,1.138,10090,7834)"
       gradientUnits="userSpaceOnUse"><stop
         stop-color="#9059ff"
         stop-opacity="0"
         offset=".206"
         id="stop178" /><stop
         stop-color="#8c4ff3"
         stop-opacity=".064"
         offset=".278"
         id="stop180" /><stop
         stop-color="#7716a8"
         stop-opacity=".45"
         offset=".747"
         id="stop182" /><stop
         stop-color="#6e008b"
         stop-opacity=".6"
         offset=".975"
         id="stop184" /></radialGradient><radialGradient
       id="g"
       cx="-7938"
       cy="-8518"
       r="27.68"
       gradientTransform="matrix(1.1808848,0,0,1.1808848,9438.3904,10086.406)"
       gradientUnits="userSpaceOnUse"><stop
         stop-color="#ffe226"
         offset="0"
         id="stop187" /><stop
         stop-color="#ffdb27"
         offset=".121"
         id="stop189" /><stop
         stop-color="#ffc82a"
         offset=".295"
         id="stop191" /><stop
         stop-color="#ffa930"
         offset=".502"
         id="stop193" /><stop
         stop-color="#ff7e37"
         offset=".732"
         id="stop195" /><stop
         stop-color="#ff7139"
         offset=".792"
         id="stop197" /></radialGradient><radialGradient
       id="h"
       cx="-7916"
       cy="-8536"
       r="118.1"
       gradientTransform="matrix(1.1808848,0,0,1.1808848,9438.3904,10086.406)"
       gradientUnits="userSpaceOnUse"><stop
         stop-color="#fff44f"
         offset=".113"
         id="stop200" /><stop
         stop-color="#ff980e"
         offset=".456"
         id="stop202" /><stop
         stop-color="#ff5634"
         offset=".622"
         id="stop204" /><stop
         stop-color="#ff3647"
         offset=".716"
         id="stop206" /><stop
         stop-color="#e31587"
         offset=".904"
         id="stop208" /></radialGradient><radialGradient
       id="i"
       cx="-7927"
       cy="-8523"
       r="86.5"
       gradientTransform="matrix(0.1239929,1.1749804,-0.77111777,0.08148105,-5510.4303,10022.638)"
       gradientUnits="userSpaceOnUse"><stop
         stop-color="#fff44f"
         offset="0"
         id="stop211" /><stop
         stop-color="#ffe847"
         offset=".06"
         id="stop213" /><stop
         stop-color="#ffc830"
         offset=".168"
         id="stop215" /><stop
         stop-color="#ff980e"
         offset=".304"
         id="stop217" /><stop
         stop-color="#ff8b16"
         offset=".356"
         id="stop219" /><stop
         stop-color="#ff672a"
         offset=".455"
         id="stop221" /><stop
         stop-color="#ff3647"
         offset=".57"
         id="stop223" /><stop
         stop-color="#e31587"
         offset=".737"
         id="stop225" /></radialGradient><radialGradient
       id="j"
       cx="-7938"
       cy="-8508"
       r="73.72"
       gradientTransform="matrix(1.1808848,0,0,1.1808848,9438.3904,10086.406)"
       gradientUnits="userSpaceOnUse"><stop
         stop-color="#fff44f"
         offset=".137"
         id="stop228" /><stop
         stop-color="#ff980e"
         offset=".48"
         id="stop230" /><stop
         stop-color="#ff5634"
         offset=".592"
         id="stop232" /><stop
         stop-color="#ff3647"
         offset=".655"
         id="stop234" /><stop
         stop-color="#e31587"
         offset=".904"
         id="stop236" /></radialGradient><radialGradient
       id="k"
       cx="-7919"
       cy="-8504"
       r="80.69"
       gradientTransform="matrix(1.1808848,0,0,1.1808848,9438.3904,10086.406)"
       gradientUnits="userSpaceOnUse"><stop
         stop-color="#fff44f"
         offset=".094"
         id="stop239" /><stop
         stop-color="#ffe141"
         offset=".231"
         id="stop241" /><stop
         stop-color="#ffaf1e"
         offset=".509"
         id="stop243" /><stop
         stop-color="#ff980e"
         offset=".626"
         id="stop245" /></radialGradient><linearGradient
       id="l"
       x1="70.01"
       x2="15.27"
       y1="12.06"
       y2="66.81"
       gradientTransform="matrix(1.1808848,0,0,1.1808848,20.479884,20.539389)"
       gradientUnits="userSpaceOnUse"><stop
         stop-color="#fff44f"
         stop-opacity=".8"
         offset=".167"
         id="stop248" /><stop
         stop-color="#fff44f"
         stop-opacity=".634"
         offset=".266"
         id="stop250" /><stop
         stop-color="#fff44f"
         stop-opacity=".217"
         offset=".489"
         id="stop252" /><stop
         stop-color="#fff44f"
         stop-opacity="0"
         offset=".6"
         id="stop254" /></linearGradient><style
       id="style1">.cls-1{fill:none;stroke:#000000;stroke-linecap:round;stroke-linejoin:round;}</style></defs><g
     inkscape:label="Layer 1"
     inkscape:groupmode="layer"
     id="layer1"><g
       id="g1"
       transform="matrix(2.56454,0,0,2.56454,6.1713893,6.2095662)"
       style="stroke:#000000;stroke-opacity:1;stroke-width:0.82535921;stroke-dasharray:none"><path
         class="cls-1"
         d="m 30.93,28.16 c 2.24,1.08 3.36,3.67 3.63,5.83 a 8.27,8.27 0 0 1 -4.43,8.55 8.38,8.38 0 1 1 -5.72,-15.61 8.14,8.14 0 0 0 4.5,-2.39 6.61,6.61 0 0 0 1.3,-1.91 5.35,5.35 0 0 0 0.37,-1.94 4.54,4.54 0 0 0 -0.4,-1.66 11.31,11.31 0 0 0 -2.41,-2.78 L 24,13.31 c -0.13,-0.11 -0.28,-0.1 -0.6,-0.07 a 7.7,7.7 0 0 1 -1.79,0 c 0.34,-0.25 1.27,-0.63 1.67,-0.93 -1.21,-0.83 -2.6,-0.53 -3.88,-0.77 A 4.6,4.6 0 0 1 22,10 12.41,12.41 0 0 0 21.77,8.62 1,1 0 0 0 21.33,8.14 C 20.89,7.89 20.42,7.68 19.92,7.42 A 2.84,2.84 0 0 1 21.45,7 5.57,5.57 0 0 1 23,7.11 c 2.34,0.55 2.15,-0.26 2.89,-1.06 A 7.27,7.27 0 0 1 23,4.61 20.83,20.83 0 0 1 25.21,4.5 v 0 a 8.06,8.06 0 0 1 3.46,0.76 c 0.5,0.24 1,0.44 1.5,0.72 a 3.07,3.07 0 0 1 0.58,0.61 2.17,2.17 0 0 0 0.46,0.49 4.49,4.49 0 0 0 2.29,0.37 c 0,-0.09 0,-0.17 0,-0.27 0.8,0.26 1.71,1.18 1.7,1.86 h -3.9 c -0.14,0 2.88,0 3.06,0 -0.16,0.26 -0.64,1.3 -0.85,1.53 -0.21,0.23 -0.57,0.49 -1,0.11 -0.09,-0.09 -0.31,-0.07 -0.48,-0.07 -0.74,0 -1.49,0 -2.24,0 a 14,14 0 0 0 -1.94,0.2 c -0.12,0 -0.29,0.42 -0.24,0.57 0.13,0.35 0.34,0.43 0.62,0.65 1,0.82 2.14,1.56 3.18,2.37 a 8.07,8.07 0 0 1 2.59,2.83 7.48,7.48 0 0 1 0.45,4.82 10.54,10.54 0 0 1 -4.16,6.64 17,17 0 0 1 -3.05,1.51 c -0.91,0.42 -1.85,0.78 -2.76,1.2 a 4.1,4.1 0 0 0 -2.29,4.38 4.25,4.25 0 0 0 3.45,3.41 4.13,4.13 0 0 0 4.66,-3.06 4.07,4.07 0 0 0 -3.09,-5.07 L 26,30.74 M 24.67,26.88 A 5.41,5.41 0 0 0 26.2,24 a 3.56,3.56 0 0 0 -0.61,-2.81 3.62,3.62 0 0 0 -4.14,-1.26 3.58,3.58 0 0 0 -2.3,3.85 c 0.14,1.66 1.85,3 4.21,3.46 m -4.09,3.3 c -6.3,-2.87 -5.81,-10.79 -0.64,-14 a 8.15,8.15 0 0 1 4,-1.2 v 0 c 2.95,-0.1 6.91,1.45 8,5.31 M 17.5,34 c -0.85,0.15 -1.64,0.26 -2.42,0.46 -0.78,0.2 -1.5,0.48 -2.27,0.73 a 6,6 0 0 1 5.45,-4.68 v 0 c 0.16,0 0.85,0 1,0"
         id="path1"
         style="stroke:#000000;stroke-opacity:1;stroke-width:0.82535921;stroke-dasharray:none" /><circle
         class="cls-1"
         cx="28.809999"
         cy="7.5100002"
         r="0.75"
         id="circle1"
         style="stroke:#000000;stroke-opacity:1;stroke-width:0.82535921;stroke-dasharray:none" /></g></g></svg>
