<?xml version="1.0" encoding="UTF-8" standalone="no"?>
<!-- Created with Inkscape (http://www.inkscape.org/) -->

<svg
   width="512"
   height="512"
   viewBox="0 0 135.46667 135.46667"
   version="1.1"
   id="svg5"
   inkscape:version="1.3 (0e150ed6c4, 2023-07-21)"
   sodipodi:docname="com_kyobo_ebook_common_b2c.svg"
   xml:space="preserve"
   xmlns:inkscape="http://www.inkscape.org/namespaces/inkscape"
   xmlns:sodipodi="http://sodipodi.sourceforge.net/DTD/sodipodi-0.dtd"
   xmlns="http://www.w3.org/2000/svg"
   xmlns:svg="http://www.w3.org/2000/svg"><sodipodi:namedview
     id="namedview7"
     pagecolor="#ffffff"
     bordercolor="#666666"
     borderopacity="1.0"
     inkscape:showpageshadow="2"
     inkscape:pageopacity="0.0"
     inkscape:pagecheckerboard="0"
     inkscape:deskcolor="#d1d1d1"
     inkscape:document-units="px"
     showgrid="false"
     inkscape:zoom="1.1893044"
     inkscape:cx="255.6116"
     inkscape:cy="176.99422"
     inkscape:window-width="1920"
     inkscape:window-height="1009"
     inkscape:window-x="-8"
     inkscape:window-y="-8"
     inkscape:window-maximized="1"
     inkscape:current-layer="layer1"
     showguides="true" /><defs
     id="defs2" /><g
     inkscape:label="Layer 1"
     inkscape:groupmode="layer"
     id="layer1"><g
       aria-label="KYOBO"
       id="text356"
       style="font-size:25.4px;line-height:1.25;fill:#000000;fill-opacity:1;stroke-width:0.264583"
       transform="matrix(0.70900234,0,0,0.70900234,19.480715,0.38496252)"><path
         d="m 35.838031,73.754059 h -2.813793 l -5.476259,-7.554189 -0.711344,-0.940292 0.05562,8.494481 H 24.264626 V 56.951055 h 2.627626 l -0.05562,8.297515 5.836998,-8.297515 h 2.779925 l -5.875242,7.790607 z"
         id="path412"
         sodipodi:nodetypes="ccccccccccccc"
         style="fill:#000000;fill-opacity:1;stroke:#000000;stroke-opacity:1" /><path
         d="m 53.393823,56.860063 -5.633627,9.345848 v 7.567812 h -2.455664 v -7.307362 l -5.815741,-9.606298 h 2.716114 l 4.339862,7.23745 4.232162,-7.23745 z"
         id="path414"
         style="fill:#000000;fill-opacity:1;stroke:#000000;stroke-opacity:1"
         sodipodi:nodetypes="cccccccccc" /><path
         id="path416"
         style="fill:#000000;fill-opacity:1;stroke:#000000;stroke-opacity:1"
         d="m 64.082031,56.485402 c -3.033044,0.03937 -5.4877,1.864424 -6.628001,4.752933 -1.193751,3.023901 -1.200359,4.9893 -0.11801,8.03011 1.013674,2.592919 2.927174,4.553979 5.713772,4.838193 3.109317,0.500643 6.374161,-0.517185 8.118394,-3.294152 1.904751,-2.953131 2.039357,-5.264917 1.127179,-8.570712 -0.708486,-2.567605 -2.450739,-4.774643 -5.080573,-5.417119 -1.014921,-0.289165 -2.080653,-0.377401 -3.132761,-0.339253 z m 1.892384,2.215066 c 1.076673,0.137715 1.878398,0.909738 3.214395,2.848466 0.749999,2.270245 0.653382,4.663254 0.06716,6.93085 -1.440576,2.502068 -1.608012,3.477358 -4.212968,4.078357 -2.300961,0.219236 -3.409208,-0.991694 -4.327636,-3.173965 -1.084775,-2.354371 -1.145706,-4.595558 -0.56475,-7.07112 0.301914,-1.093308 0.649315,-1.768405 1.157397,-2.325651 0.508082,-0.557246 1.315887,-1.358153 2.482991,-1.423885 0.263582,-0.0312 0.724593,-0.04965 0.987637,-0.016 0,0 0.4264,0.0093 0.625696,0.03476 0.199296,0.02549 0.570078,0.118188 0.570078,0.118188 z"
         sodipodi:nodetypes="cscccsccscccccscszs" /><path
         id="path416-7"
         style="font-size:25.4px;line-height:1.25;fill:#000000;fill-opacity:1;stroke:#000000;stroke-width:0.264583;stroke-opacity:1"
         d="m 103.13613,56.415714 c -3.03304,0.03937 -5.487698,1.864424 -6.627999,4.752933 -1.193751,3.023901 -1.200359,4.9893 -0.11801,8.03011 1.013674,2.592919 2.927174,4.553979 5.713769,4.838193 3.10932,0.500643 6.37416,-0.517185 8.1184,-3.294152 1.90475,-2.953131 2.03935,-5.264917 1.12718,-8.570712 -0.70849,-2.567605 -2.45074,-4.774643 -5.08058,-5.417119 -1.01492,-0.289165 -2.08065,-0.377401 -3.13276,-0.339253 z m 1.89239,2.215066 c 1.07667,0.137715 1.87839,0.909738 3.21439,2.848466 0.75,2.270245 0.65338,4.663254 0.0672,6.93085 -1.44057,2.502068 -1.60801,3.477358 -4.21297,4.078357 -2.30096,0.219236 -3.4092,-0.991694 -4.327633,-3.173965 -1.084775,-2.354371 -1.145706,-4.595558 -0.56475,-7.07112 0.301914,-1.093308 0.649315,-1.768405 1.157393,-2.325651 0.50809,-0.557246 1.31589,-1.358153 2.483,-1.423885 0.26358,-0.0312 0.72459,-0.04965 0.98763,-0.016 0,0 0.4264,0.0093 0.6257,0.03476 0.19929,0.02549 0.57008,0.118188 0.57008,0.118188 z"
         sodipodi:nodetypes="cscccsccscccccscszs" /><path
         d="m 90.688429,68.469024 c 0,0.842098 -0.173771,1.585572 -0.521312,2.230421 -0.347541,0.644849 -0.815066,1.175902 -1.402576,1.593157 -0.695081,0.500707 -1.460499,0.85727 -2.296252,1.069691 -0.827478,0.212421 -1.292603,0.318632 -2.575195,0.318632 H 79.18785 V 56.736559 h 3.625384 c 1.34879,0 1.768404,0.04552 2.438661,0.136556 0.670258,0.09104 1.311554,0.280699 1.923887,0.568985 0.678533,0.326218 1.170883,0.747267 1.47705,1.263147 0.306167,0.508293 0.45925,1.119003 0.45925,1.83213 0,0.804165 -0.223419,1.49074 -0.670258,2.059725 -0.446838,0.561399 -1.042622,1.012793 -1.787353,1.354184 v 0.09104 c 1.249493,0.23518 2.234192,0.73968 2.954099,1.513499 0.719906,0.766233 1.079859,1.7373 1.079859,2.913201 z m -4.133255,-7.635775 c 0,-0.409669 -0.07447,-0.754853 -0.223419,-1.035552 -0.148946,-0.280699 -0.388915,-0.508293 -0.719906,-0.682782 -0.388915,-0.204834 -0.860578,-0.33001 -1.414988,-0.375529 -0.554411,-0.05311 -0.651308,-0.07966 -1.470512,-0.07966 h -1.080888 v 4.89327 h 1.329132 c 0.769555,0 0.791979,-0.03414 1.247092,-0.102418 0.455113,-0.07587 0.877127,-0.227594 1.266042,-0.455188 0.388915,-0.227593 0.661982,-0.519672 0.819203,-0.876236 0.165496,-0.364151 0.248244,-0.792786 0.248244,-1.285905 z m 1.576347,7.726813 c 0,-0.682782 -0.11171,-1.225214 -0.335129,-1.627296 -0.223419,-0.402083 -0.628884,-0.743474 -1.216393,-1.024173 -0.39719,-0.189662 -0.881265,-0.311045 -1.452225,-0.36415 -0.562686,-0.06069 -0.659583,-0.09104 -1.470511,-0.09104 h -2.011802 v 6.304352 h 1.403605 c 1.075722,0 1.367076,-0.04931 2.053883,-0.147937 0.686808,-0.10621 1.249494,-0.295871 1.688057,-0.568984 0.463387,-0.295872 0.802653,-0.63347 1.017798,-1.012793 0.215145,-0.379323 0.322717,-0.86865 0.322717,-1.467979 z"
         id="path418"
         style="fill:#000000;fill-opacity:1;stroke:#000000;stroke-width:0.253541;stroke-opacity:1"
         sodipodi:nodetypes="ssccsccssccsccccssssccsccscscsssccsccsccss" /></g><path
       id="path1351"
       style="fill:#000000;fill-opacity:1;stroke:none;stroke-width:1.50072;stroke-linecap:butt;stroke-linejoin:miter;stroke-dasharray:none;stroke-opacity:1"
       d="m 86.801419,19.752552 c -0.08595,0.0012 -0.173005,0.005 -0.2616,0.01136 -1.417514,0.101528 -3.224411,0.902902 -3.847798,2.314101 -0.623388,1.411201 -0.692389,3.500644 -0.111746,5.102674 0.58064,1.602029 0.604115,3.160215 3.80603,4.782085 3.201914,1.621869 5.729931,1.519407 5.729931,1.519407 l -0.473742,3.039547 h 2.816051 l -0.613329,-3.123083 c 0,0 1.074557,0.05781 2.202714,-0.306667 1.128164,-0.364464 3.109105,-1.256868 4.32191,-2.286622 1.2128,-1.029754 2.43821,-2.565387 2.81606,-3.708204 0.37784,-1.142818 0.27005,-1.866833 -0.0279,-2.565442 -0.2979,-0.698609 -0.79953,-1.15489 -1.42194,-1.394104 -0.62242,-0.239212 -1.20062,-0.223551 -2.007445,0.08354 -0.80681,0.307089 -1.746777,1.396672 -2.454064,2.007802 -0.707286,0.611129 -1.315235,0.849357 -2.077411,0.85588 -0.762179,0.0066 -1.41719,-0.160754 -1.881764,-0.409987 -0.929148,-0.498467 -1.838301,-2.959832 -3.06703,-4.210154 -1.151932,-1.172177 -2.157775,-1.730556 -3.446969,-1.712127 z m -0.127137,2.991185 a 1.7741396,1.7741396 0 0 1 1.774047,1.774045 1.7741396,1.7741396 0 0 1 -1.774047,1.774048 1.7741396,1.7741396 0 0 1 -1.774413,-1.774048 1.7741396,1.7741396 0 0 1 1.774413,-1.774045 z" /><path
       style="font-size:22.5778px;line-height:1.25;font-family:NanumGothic;-inkscape-font-specification:NanumGothic;stroke-width:0.264583"
       d="m 44.568352,68.099051 q 0,-0.925689 -0.180622,-1.648179 -0.180623,-0.72249 -0.564445,-1.309513 -0.835379,-1.33209 -2.415825,-1.33209 -1.625601,0 -2.641602,1.354668 -0.406401,0.609601 -0.677335,1.399824 -0.270933,0.790223 -0.293511,1.53529 z m -6.77334,1.286935 q -0.02258,1.12889 0.248356,2.009424 0.293511,0.857957 0.835379,1.44498 0.541867,0.587022 1.286934,0.903112 0.767645,0.316089 1.693335,0.316089 0.903112,0 1.693335,-0.158045 0.790223,-0.180622 1.467557,-0.564445 0.293512,-0.135467 0.293512,0.158045 v 1.016001 q 0,0.2032 -0.248356,0.316089 -0.745068,0.293511 -1.557868,0.428978 -0.812801,0.158045 -1.761069,0.158045 -2.777069,0 -4.199471,-1.603024 -1.422401,-1.625602 -1.422401,-4.876805 0,-2.867381 1.422401,-4.628449 1.490135,-1.783646 3.770493,-1.783646 1.264357,0 2.190047,0.451556 0.925689,0.451556 1.580446,1.354668 1.151468,1.603024 1.151468,4.289782 0,0.293511 -0.02258,0.451556 0,0.158044 -0.06773,0.225778 -0.06773,0.06773 -0.248355,0.09031 -0.158045,0 -0.474134,0 z m 19.258866,-6.863651 q 0,-2.77707 -3.680182,-2.77707 h -2.302935 v 5.892806 h 1.873957 q 2.05458,0 3.070581,-0.812801 1.038579,-0.812801 1.038579,-2.302935 z m 0.519289,7.857074 q 0,-1.670757 -1.219201,-2.483558 -1.219201,-0.812801 -3.860804,-0.812801 h -1.467557 v 6.547563 h 1.738491 q 4.809071,0 4.809071,-3.251204 z m 1.670757,-0.09031 q 0,4.763916 -6.524984,4.763916 h -2.731914 q -0.474134,0 -0.564445,-0.09031 -0.06773,-0.06773 -0.06773,-0.541867 V 58.97762 q 0,-0.474134 0.06773,-0.541867 0.09031,-0.09031 0.564445,-0.09031 h 3.38667 q 5.350939,0 5.350939,4.10916 0,3.138314 -2.98027,3.815649 1.715913,0.496711 2.596447,1.512712 0.903112,0.993423 0.903112,2.506136 z m 12.711324,-1.33209 q 0,-1.061157 -0.293511,-1.986847 -0.270934,-0.925689 -0.767646,-1.648179 -1.174045,-1.444979 -3.048003,-1.444979 -0.948267,0 -1.715913,0.383822 -0.745067,0.361245 -1.33209,1.061157 -0.519289,0.72249 -0.812801,1.648179 -0.270933,0.92569 -0.270933,1.986847 0,1.083734 0.270933,2.009424 0.293512,0.92569 0.812801,1.625602 1.196624,1.467557 3.048003,1.467557 0.948268,0 1.693335,-0.383823 0.767645,-0.383822 1.354668,-1.083734 0.496712,-0.699912 0.767646,-1.625602 0.293511,-0.92569 0.293511,-2.009424 z m 1.670757,0 q 0,1.33209 -0.383822,2.483558 -0.383823,1.12889 -1.016001,1.986846 -0.790223,0.948268 -1.896536,1.467557 -1.083734,0.51929 -2.483558,0.51929 -1.399823,0 -2.506136,-0.51929 -1.106312,-0.519289 -1.896535,-1.467557 -0.632178,-0.857956 -1.016001,-1.986846 -0.361245,-1.151468 -0.361245,-2.483558 0,-2.731914 1.377246,-4.470405 1.580446,-1.964268 4.402671,-1.964268 1.422402,0 2.506136,0.496711 1.083735,0.474134 1.873958,1.467557 1.399823,1.783647 1.399823,4.470405 z m 12.01141,0 q 0,-1.061157 -0.293511,-1.986847 -0.270934,-0.925689 -0.767646,-1.648179 -1.174045,-1.444979 -3.048003,-1.444979 -0.948267,0 -1.715913,0.383822 -0.745067,0.361245 -1.33209,1.061157 -0.519289,0.72249 -0.812801,1.648179 -0.270933,0.92569 -0.270933,1.986847 0,1.083734 0.270933,2.009424 0.293512,0.92569 0.812801,1.625602 1.196624,1.467557 3.048003,1.467557 0.948268,0 1.693335,-0.383823 0.767646,-0.383822 1.354668,-1.083734 0.496712,-0.699912 0.767646,-1.625602 0.293511,-0.92569 0.293511,-2.009424 z m 1.670757,0 q 0,1.33209 -0.383822,2.483558 -0.383823,1.12889 -1.016001,1.986846 -0.790223,0.948268 -1.896536,1.467557 -1.083734,0.51929 -2.483558,0.51929 -1.399823,0 -2.506136,-0.51929 -1.106312,-0.519289 -1.896535,-1.467557 -0.632178,-0.857956 -1.016001,-1.986846 -0.361245,-1.151468 -0.361245,-2.483558 0,-2.731914 1.377246,-4.470405 1.580446,-1.964268 4.402671,-1.964268 1.422402,0 2.506136,0.496711 1.083735,0.474134 1.873958,1.467557 1.399823,1.783647 1.399823,4.470405 z m 7.089449,-0.677334 4.876805,6.457251 q 0.06773,0.112889 0.04516,0.2032 -0.02258,0.112889 -0.158045,0.112889 h -0.970845 q -0.225778,0 -0.4064,-0.06773 -0.180623,-0.06773 -0.293512,-0.248356 l -4.064004,-5.373517 -1.512713,1.693335 v 3.680182 q 0,0.316089 -0.316089,0.316089 h -0.903112 q -0.316089,0 -0.316089,-0.316089 V 57.397174 q 0,-0.316089 0.316089,-0.316089 h 0.903112 q 0.316089,0 0.316089,0.316089 v 11.763034 l 5.147739,-6.005695 q 0.316089,-0.316089 0.745067,-0.316089 h 1.061157 q 0.135467,0 0.180622,0.112889 0.04516,0.09031 -0.06773,0.2032 z"
       id="text1260"
       aria-label="eBook" /><path
       id="path1326"
       style="fill:none;stroke:#000000;stroke-width:2.11667;stroke-linecap:round;stroke-linejoin:round;stroke-dasharray:none;stroke-opacity:1"
       d="m 109.31032,90.138244 10.55939,0.157309 M 67.519337,95.884132 V 140.37793 M -3.3034958,89.823626 H 61.036019 c 0,0 2.372749,0.524364 4.12937,2.398967 1.756621,1.874603 2.398967,4.12937 2.398967,4.12937 0,0 0.786546,-2.50384 2.910222,-4.326007 2.123676,-1.822166 4.404661,-1.887712 4.404661,-1.887712 h 34.450741 v 18.405186 l 5.34852,-5.50582 4.87659,5.50582 V 90.295552 h 18.09057" /></g></svg>
