<?xml version="1.0" encoding="UTF-8" standalone="no"?>
<!-- Created with Inkscape (http://www.inkscape.org/) -->

<svg
   width="512"
   height="512"
   viewBox="0 0 135.46667 135.46667"
   version="1.1"
   id="svg5"
   inkscape:version="1.3 (0e150ed6c4, 2023-07-21)"
   sodipodi:docname="com_flyersoft_moonreader.svg"
   xml:space="preserve"
   inkscape:export-filename="com_android_vending.png"
   inkscape:export-xdpi="96"
   inkscape:export-ydpi="96"
   xmlns:inkscape="http://www.inkscape.org/namespaces/inkscape"
   xmlns:sodipodi="http://sodipodi.sourceforge.net/DTD/sodipodi-0.dtd"
   xmlns="http://www.w3.org/2000/svg"
   xmlns:svg="http://www.w3.org/2000/svg"><sodipodi:namedview
     id="namedview7"
     pagecolor="#ffffff"
     bordercolor="#666666"
     borderopacity="1.0"
     inkscape:showpageshadow="2"
     inkscape:pageopacity="0.0"
     inkscape:pagecheckerboard="0"
     inkscape:deskcolor="#d1d1d1"
     inkscape:document-units="px"
     showgrid="false"
     inkscape:zoom="0.92972592"
     inkscape:cx="235.55329"
     inkscape:cy="261.90514"
     inkscape:window-width="1920"
     inkscape:window-height="1009"
     inkscape:window-x="-8"
     inkscape:window-y="-8"
     inkscape:window-maximized="1"
     inkscape:current-layer="layer1" /><defs
     id="defs2"><inkscape:path-effect
       effect="copy_rotate"
       starting_point="82.813552,67.733335"
       origin="67.733335,67.733335"
       id="path-effect2"
       is_visible="true"
       lpeversion="1.2"
       lpesatellites=""
       method="normal"
       num_copies="3"
       starting_angle="0"
       rotation_angle="120"
       gap="0"
       copies_to_360="false"
       mirror_copies="false"
       split_items="false"
       link_styles="false" /><inkscape:path-effect
       effect="fillet_chamfer"
       id="path-effect1"
       is_visible="true"
       lpeversion="1"
       nodesatellites_param="F,0,0,1,0,5,0,1 @ F,0,0,1,0,5,0,1 @ F,0,0,1,0,5,0,1 @ F,0,0,1,0,5,0,1 @ F,0,0,1,0,5,0,1 @ F,0,0,1,0,5,0,1"
       radius="5"
       unit="px"
       method="auto"
       mode="F"
       chamfer_steps="1"
       flexible="false"
       use_knot_distance="true"
       apply_no_radius="true"
       apply_with_radius="true"
       only_selected="false"
       hide_knots="false" /><style
       id="style1">.cls-1{fill:none;stroke:#000000;stroke-linecap:round;stroke-linejoin:round;}</style><style
       id="style1-4">.cls-1{fill:none;stroke:#000000;stroke-miterlimit:10;}</style><style
       id="style1-49">.c{fill:none;stroke:#000000;stroke-linecap:round;stroke-linejoin:round;}</style></defs><g
     inkscape:label="Layer 1"
     inkscape:groupmode="layer"
     id="layer1"><path
       id="rect1"
       style="fill:none;stroke:#000000;stroke-width:2.11667;stroke-linecap:round;stroke-linejoin:round"
       d="m 67.690272,67.733335 c 1.803401,-0.50689 3.892502,-1.197555 6.843551,-2.037783 2.95105,-0.840227 6.336434,-1.226322 8.845869,-1.224675 5.018871,0.0033 15.946739,-0.05944 15.946739,4.252891 v 27.359764 c 0,1.172634 -0.944033,2.116667 -2.116667,2.116667 H 38.256903 c -1.172634,0 -2.116667,-0.944033 -2.116667,-2.116667 V 68.723768 c 0,-2.090646 3.274028,-3.212629 6.017434,-3.7157"
       sodipodi:nodetypes="cssssssssc" /><path
       style="fill:none;stroke:#000000;stroke-width:2.11667;stroke-linecap:round;stroke-linejoin:round"
       d="m 67.733332,98.200199 c 0,0 -7.619686,-2.58245 -12.586601,-3.722752 C 50.179816,93.337145 42.15767,93.169454 42.15767,93.169454 V 61.07328 c 0,0 8.726452,-2.106424 15.202592,-0.09088 6.47614,2.015544 10.373073,6.750936 10.373073,6.750936 l -3e-6,30.466864"
       id="path1"
       sodipodi:nodetypes="czcczcc" /><path
       style="fill:none;stroke:#000000;stroke-width:2.11667;stroke-linecap:round;stroke-linejoin:round"
       d="m 78.829238,55.351216 c 0,0 3.059257,-0.474303 5.905078,-1.387337 2.845821,-0.913034 2.762309,-1.254896 3.699567,-2.383375 0.653958,-0.787379 1.185758,-1.743065 1.42291,-4.624459 0.237152,-2.881393 -1.067183,-7.754861 -1.067183,-7.754861 0,0 3.782879,3.046208 4.660032,6.403097 0.877153,3.356888 0.515751,7.130483 -0.462446,8.395171 -0.978197,1.264688 -2.229226,2.656099 -6.260806,3.308266 -4.031579,0.652167 -7.897152,-1.956502 -7.897152,-1.956502 z"
       id="path2"
       sodipodi:nodetypes="czszczzzc" /><path
       style="fill:none;stroke:#000000;stroke-width:2.11667;stroke-linecap:round;stroke-linejoin:round"
       d="m 67.11018,40.698752 v 3.471217"
       id="path3" /><path
       style="fill:none;stroke:#000000;stroke-width:2.11667;stroke-linecap:round;stroke-linejoin:round"
       d="m 65.097881,42.43436 h 3.974291"
       id="path4" /></g></svg>
