<?xml version="1.0" encoding="UTF-8" standalone="no"?>
<!-- Created with Inkscape (http://www.inkscape.org/) -->

<svg
   width="512"
   height="512"
   viewBox="0 0 135.46667 135.46667"
   version="1.1"
   id="svg5"
   inkscape:version="1.3 (0e150ed6c4, 2023-07-21)"
   sodipodi:docname="com_microsoft_office_word.svg"
   xml:space="preserve"
   inkscape:export-filename="com_android_vending.png"
   inkscape:export-xdpi="96"
   inkscape:export-ydpi="96"
   xmlns:inkscape="http://www.inkscape.org/namespaces/inkscape"
   xmlns:sodipodi="http://sodipodi.sourceforge.net/DTD/sodipodi-0.dtd"
   xmlns="http://www.w3.org/2000/svg"
   xmlns:svg="http://www.w3.org/2000/svg"><sodipodi:namedview
     id="namedview7"
     pagecolor="#ffffff"
     bordercolor="#666666"
     borderopacity="1.0"
     inkscape:showpageshadow="2"
     inkscape:pageopacity="0.0"
     inkscape:pagecheckerboard="0"
     inkscape:deskcolor="#d1d1d1"
     inkscape:document-units="px"
     showgrid="false"
     inkscape:zoom="1.8594518"
     inkscape:cx="253.30046"
     inkscape:cy="250.3426"
     inkscape:window-width="1920"
     inkscape:window-height="1009"
     inkscape:window-x="-8"
     inkscape:window-y="-8"
     inkscape:window-maximized="1"
     inkscape:current-layer="layer1" /><defs
     id="defs2"><inkscape:path-effect
       effect="copy_rotate"
       starting_point="82.813552,67.733335"
       origin="67.733335,67.733335"
       id="path-effect2"
       is_visible="true"
       lpeversion="1.2"
       lpesatellites=""
       method="normal"
       num_copies="3"
       starting_angle="0"
       rotation_angle="120"
       gap="0"
       copies_to_360="false"
       mirror_copies="false"
       split_items="false"
       link_styles="false" /><inkscape:path-effect
       effect="fillet_chamfer"
       id="path-effect1"
       is_visible="true"
       lpeversion="1"
       nodesatellites_param="F,0,0,1,0,5,0,1 @ F,0,0,1,0,5,0,1 @ F,0,0,1,0,5,0,1 @ F,0,0,1,0,5,0,1 @ F,0,0,1,0,5,0,1 @ F,0,0,1,0,5,0,1"
       radius="5"
       unit="px"
       method="auto"
       mode="F"
       chamfer_steps="1"
       flexible="false"
       use_knot_distance="true"
       apply_no_radius="true"
       apply_with_radius="true"
       only_selected="false"
       hide_knots="false" /><style
       id="style1">.cls-1{fill:none;stroke:#000000;stroke-linecap:round;stroke-linejoin:round;}</style><style
       id="style1-4">.cls-1{fill:none;stroke:#000000;stroke-miterlimit:10;}</style><style
       id="style1-49">.c{fill:none;stroke:#000000;stroke-linecap:round;stroke-linejoin:round;}</style></defs><g
     inkscape:label="Layer 1"
     inkscape:groupmode="layer"
     id="layer1"><path
       id="rect1"
       style="fill:none;stroke:#000000;stroke-width:2.11667;stroke-linecap:round;stroke-linejoin:round"
       d="m 31.980087,49.804665 h 27.390675 c 2.345267,0 4.233333,1.888066 4.233333,4.233333 v 27.390675 c 0,2.345267 -1.888066,4.233333 -4.233333,4.233333 H 31.980087 c -2.345267,0 -4.233333,-1.888066 -4.233333,-4.233333 V 54.037998 c 0,-2.345267 1.888066,-4.233333 4.233333,-4.233333 z"
       sodipodi:nodetypes="sssssssss" /><path
       id="rect2"
       style="fill:none;stroke:#000000;stroke-width:2.11667;stroke-linecap:round;stroke-linejoin:round"
       d="m 45.675423,49.804665 0,-11.113608 c 0,-1.172633 0.944033,-2.116667 2.116666,-2.116667 h 49.268097 c 1.172634,0 2.116667,0.944034 2.116667,2.116667 v 58.084549 c 0,1.172634 -0.944033,2.116667 -2.116667,2.116667 H 47.792089 c -1.172633,0 -2.116666,-0.944033 -2.116666,-2.116667 V 85.703239"
       sodipodi:nodetypes="cssssssssc" /><path
       style="font-weight:bold;font-size:29.6333px;font-family:'Noto Sans CJK JP';-inkscape-font-specification:'Noto Sans CJK JP Bold';text-align:center;text-anchor:middle;stroke-width:2.11667;stroke-linecap:round;stroke-linejoin:round"
       d="m 36.903967,78.712471 h 5.363627 L 44.667892,67.83705 c 0.325966,-1.689099 0.651932,-3.378197 0.977899,-5.037662 h 0.118533 c 0.237066,1.659465 0.563033,3.348563 0.918632,5.037662 l 2.459564,10.875421 h 5.452528 L 58.65481,56.754195 H 54.506148 L 52.757783,67.48145 c -0.325966,2.281764 -0.651933,4.622795 -0.977899,6.993459 H 51.631717 C 51.157585,72.104245 50.742718,69.733581 50.238952,67.48145 L 47.690488,56.754195 h -3.763429 l -2.51883,10.727255 c -0.474133,2.281764 -0.948266,4.622795 -1.392765,6.993459 H 39.89693 C 39.570964,72.104245 39.215364,69.792847 38.859765,67.48145 L 37.170667,56.754195 h -4.474629 z"
       id="text2"
       aria-label="W" /><path
       style="fill:none;fill-opacity:1;stroke:#000000;stroke-width:2.11667;stroke-linecap:round;stroke-linejoin:round;stroke-opacity:1"
       d="M 99.176853,51.224774 H 62.539278"
       id="path2" /><path
       style="fill:none;fill-opacity:1;stroke:#000000;stroke-width:2.11667;stroke-linecap:round;stroke-linejoin:round;stroke-opacity:1"
       d="m 99.176853,67.733332 -35.572758,0"
       id="path3"
       sodipodi:nodetypes="cc" /><path
       style="fill:none;fill-opacity:1;stroke:#000000;stroke-width:2.11667;stroke-linecap:round;stroke-linejoin:round;stroke-opacity:1"
       d="M 99.176853,84.24189 H 62.539278"
       id="path4" /></g></svg>
