<?xml version="1.0" encoding="UTF-8" standalone="no"?>
<!-- Created with Inkscape (http://www.inkscape.org/) -->

<svg
   width="512"
   height="512"
   viewBox="0 0 135.46667 135.46667"
   version="1.1"
   id="svg5"
   inkscape:version="1.2.1 (9c6d41e410, 2022-07-14)"
   sodipodi:docname="com_bookcube_digitallibrary.svg"
   xml:space="preserve"
   inkscape:export-filename="com_android_vending.png"
   inkscape:export-xdpi="96"
   inkscape:export-ydpi="96"
   xmlns:inkscape="http://www.inkscape.org/namespaces/inkscape"
   xmlns:sodipodi="http://sodipodi.sourceforge.net/DTD/sodipodi-0.dtd"
   xmlns="http://www.w3.org/2000/svg"
   xmlns:svg="http://www.w3.org/2000/svg"><sodipodi:namedview
     id="namedview7"
     pagecolor="#ffffff"
     bordercolor="#666666"
     borderopacity="1.0"
     inkscape:showpageshadow="2"
     inkscape:pageopacity="0.0"
     inkscape:pagecheckerboard="0"
     inkscape:deskcolor="#d1d1d1"
     inkscape:document-units="px"
     showgrid="false"
     inkscape:zoom="1.6819304"
     inkscape:cx="353.76018"
     inkscape:cy="317.49233"
     inkscape:window-width="1920"
     inkscape:window-height="1017"
     inkscape:window-x="-8"
     inkscape:window-y="-8"
     inkscape:window-maximized="1"
     inkscape:current-layer="layer1" /><defs
     id="defs2" /><g
     inkscape:label="Layer 1"
     inkscape:groupmode="layer"
     id="layer1"><path
       style="fill:none;stroke:#000000;stroke-width:2.11667;stroke-linecap:round;stroke-linejoin:round"
       d="M 66.390987,110.1137 V 54.273989 L 22.008423,39.924741 28.126321,93.206063 Z"
       id="path300" /><path
       style="fill:none;stroke:#000000;stroke-width:2.11667;stroke-linecap:round;stroke-linejoin:round"
       d="M 69.075674,110.11367 V 54.273953 l 44.382576,-14.349248 -6.11793,53.281322 z"
       id="path300-8" /><path
       id="path1038"
       style="fill:none;stroke:#000000;stroke-width:2.11667;stroke-linecap:round;stroke-linejoin:round"
       d="M 67.859475,52.271768 63.715173,25.913147 M 56.726484,27.735021 67.859475,52.271768 60.077014,26.895173 M 49.49788,29.881057 67.859475,52.271768 53.35687,28.749627 M 41.809203,32.189991 67.859475,52.271768 45.702412,31.035524 M 31.819502,35.364127 67.859475,52.271768 37.321656,33.774264 M 67.859475,25.353022 V 52.271768 L 25.3679,37.811286"
       sodipodi:nodetypes="ccccccccccccccccc" /><path
       id="path1041"
       style="fill:none;stroke:#000000;stroke-width:2.11667;stroke-linecap:round;stroke-linejoin:round"
       d="M 67.70126,52.271768 71.845562,25.913147 M 78.834251,27.735021 67.70126,52.271768 75.483721,26.895173 M 86.062855,29.881057 67.70126,52.271768 82.203865,28.749627 M 93.751532,32.189991 67.70126,52.271768 89.858323,31.035524 M 103.74123,35.364127 67.70126,52.271768 98.239079,33.774264 M 67.70126,25.353022 v 26.918746 l 42.49161,-14.460482"
       sodipodi:nodetypes="ccccccccccccccccc" /></g></svg>
