<?xml version="1.0" encoding="UTF-8" standalone="no"?>
<!-- Created with Inkscape (http://www.inkscape.org/) -->

<svg
   width="512"
   height="512"
   viewBox="0 0 135.46667 135.46667"
   version="1.1"
   id="svg5"
   inkscape:version="1.2 (dc2aedaf03, 2022-05-15)"
   sodipodi:docname="com_joara_mobile.svg"
   xml:space="preserve"
   inkscape:export-filename="com_android_vending.png"
   inkscape:export-xdpi="96"
   inkscape:export-ydpi="96"
   xmlns:inkscape="http://www.inkscape.org/namespaces/inkscape"
   xmlns:sodipodi="http://sodipodi.sourceforge.net/DTD/sodipodi-0.dtd"
   xmlns="http://www.w3.org/2000/svg"
   xmlns:svg="http://www.w3.org/2000/svg"><sodipodi:namedview
     id="namedview7"
     pagecolor="#ffffff"
     bordercolor="#666666"
     borderopacity="1.0"
     inkscape:showpageshadow="2"
     inkscape:pageopacity="0.0"
     inkscape:pagecheckerboard="0"
     inkscape:deskcolor="#d1d1d1"
     inkscape:document-units="px"
     showgrid="false"
     inkscape:zoom="1.1893044"
     inkscape:cx="464.55727"
     inkscape:cy="323.71864"
     inkscape:window-width="1920"
     inkscape:window-height="1017"
     inkscape:window-x="-8"
     inkscape:window-y="-8"
     inkscape:window-maximized="1"
     inkscape:current-layer="layer1" /><defs
     id="defs2" /><g
     inkscape:label="Layer 1"
     inkscape:groupmode="layer"
     id="layer1"><path
       style="fill:none;stroke:#000000;stroke-width:2.11666672;stroke-linecap:round;stroke-linejoin:round;stroke-dasharray:none"
       d="m 61.89609,108.09697 c -2.103328,0.008 -5.404518,-1.33812 -5.411953,-4.05897 -0.0075,-2.72085 -0.869249,-43.54102 0,-50.06056 0.869248,-6.519541 1.921033,-8.060765 4.058965,-11.613149 2.137933,-3.552386 5.666453,-6.737676 8.794424,-9.132672 3.127971,-2.394995 5.421838,-3.744378 9.245421,-4.73546 3.823582,-0.991081 8.903055,-1.171678 13.304385,-0.450997 4.401331,0.720681 8.392108,1.191027 12.402398,0.676496 4.01028,-0.514531 6.08243,-2.512083 10.5984,-2.931474 -0.42895,5.55913 -4.7732,11.555628 -8.11793,15.897612 -3.34473,4.341984 -6.58229,7.489919 -10.598407,10.372911 -4.016121,2.88299 -8.585291,4.909208 -13.417133,6.652192 -4.831843,1.742983 -14.99562,2.931475 -14.99562,2.931475 0,0 -0.016,40.344926 0,42.844626 0.016,2.4997 -3.759622,3.59965 -5.86295,3.60797 z"
       id="path354"
       sodipodi:nodetypes="zzzzzzzzczzzczz" /><path
       style="fill:none;stroke:#000000;stroke-width:2.11666672;stroke-linecap:round;stroke-linejoin:round;stroke-dasharray:none"
       d="m 62.594066,50.142045 c 0,0 1.860263,-4.730387 3.4282,-6.856402 1.567937,-2.126016 3.520194,-4.238554 5.979419,-5.899695 2.459225,-1.661141 4.873971,-3.726319 7.98327,-4.536863 3.109298,-0.810542 10.364327,-0.956706 10.364327,-0.956706"
       id="path452"
       sodipodi:nodetypes="czzzc" /></g></svg>
