<?xml version="1.0" encoding="UTF-8" standalone="no"?>
<!-- Created with Inkscape (http://www.inkscape.org/) -->

<svg
   width="512"
   height="512"
   viewBox="0 0 135.46667 135.46667"
   version="1.1"
   id="svg5"
   inkscape:version="1.2.1 (9c6d41e410, 2022-07-14)"
   sodipodi:docname="com_amazon_kindle.svg"
   xml:space="preserve"
   xmlns:inkscape="http://www.inkscape.org/namespaces/inkscape"
   xmlns:sodipodi="http://sodipodi.sourceforge.net/DTD/sodipodi-0.dtd"
   xmlns="http://www.w3.org/2000/svg"
   xmlns:svg="http://www.w3.org/2000/svg"><sodipodi:namedview
     id="namedview7"
     pagecolor="#ffffff"
     bordercolor="#666666"
     borderopacity="1.0"
     inkscape:showpageshadow="2"
     inkscape:pageopacity="0.0"
     inkscape:pagecheckerboard="0"
     inkscape:deskcolor="#d1d1d1"
     inkscape:document-units="px"
     showgrid="false"
     inkscape:zoom="1.1893044"
     inkscape:cx="-97.536005"
     inkscape:cy="292.60802"
     inkscape:window-width="1920"
     inkscape:window-height="1017"
     inkscape:window-x="-8"
     inkscape:window-y="-8"
     inkscape:window-maximized="1"
     inkscape:current-layer="layer1"
     showguides="true" /><defs
     id="defs2" /><g
     inkscape:label="Layer 1"
     inkscape:groupmode="layer"
     id="layer1"><path
       style="fill:none;stroke:#000000;stroke-width:2.11666672;stroke-linecap:round;stroke-linejoin:round;stroke-dasharray:none;stroke-opacity:1"
       d="m 0,110.58846 c 0,0 6.9231541,-3.74689 10.829669,-4.95293 3.906515,-1.20604 12.609421,-2.2833 12.609421,-2.2833 0,0 -0.875515,-1.22985 -1.952871,-2.5956 -1.077357,-1.365762 -1.649212,-2.199415 -1.507934,-2.59561 0.215593,-0.604601 1.087477,-0.387104 1.670832,-0.957351 0.583356,-0.570246 1.003426,-1.402288 1.003426,-1.402288 0,0 -2.018803,0.681674 -2.988877,0.786546 -0.970074,0.104873 -2.831568,-0.157309 -2.831568,-0.157309 0,0 -0.363874,-9.190644 -1.018558,-14.397756 -0.654684,-5.207112 -0.239917,-15.176398 -0.239917,-15.176398 0,0 0.81653,-6.619621 4.367169,-13.572361 C 23.491431,46.331362 30.203389,42.1589 30.203389,42.1589 c 0,0 0.280449,-1.233847 0.490194,-1.836866 0.209746,-0.603019 1.213219,-1.670014 1.213219,-1.670014 0,0 1.655811,0.31582 2.483716,0.654485 0.827905,0.338666 2.483716,1.377509 2.483716,1.377509 0,0 0.199826,-0.818369 0.06952,-1.19577 -0.137174,-0.397296 -0.737429,-0.481445 -0.834259,-0.945493 -0.09683,-0.464047 0.475736,-0.884982 0.597886,-1.265292 0.122149,-0.380309 0.139043,-1.015016 0.139043,-1.015016 0,0 -1.927566,0.108861 -2.057839,-0.08343 -0.209583,-0.309358 0.901283,-0.72146 0.862068,-0.875972 -0.129924,-0.51191 -1.319348,-0.0744 -1.557285,-0.291988 -0.184822,-0.169014 0.435602,-0.4919 0.472747,-0.792546 0.01857,-0.150323 -0.492888,-2.557269 -0.615717,-5.12327 -0.12283,-2.566002 -0.144305,-3.301308 0.378934,-5.409042 0.523239,-2.107734 1.724615,-5.107856 3.196496,-6.816246 1.471881,-1.708391 5.445097,-4.544577 6.578646,-4.967862 1.133549,-0.423285 1.928065,-0.330909 2.892097,-0.358717 0.964032,-0.02781 2.281372,-0.173161 2.892097,0.191865 0.610725,0.365026 0.747717,1.637348 1.466903,1.487761 0.251174,-0.05224 0.774324,-0.507609 1.290298,-0.908201 0.515974,-0.400593 0.841964,-0.777625 1.024772,-0.746412 0.192837,0.03292 -1.246456,1.331349 -1.001112,1.446048 0.135743,0.06346 1.790496,-0.217886 3.253611,0.222469 0.731557,0.220177 3.64451,2.430963 5.874018,5.309728 2.229508,2.878766 2.742047,4.059795 3.135974,6.147425 0.393926,2.08763 -0.06414,4.225734 -0.472746,5.45049 -0.408611,1.224756 -0.720911,1.900902 -1.001111,1.890987 -0.2802,-0.0099 -0.148092,-0.99511 -0.444937,-1.112346 -0.345291,-0.136369 -0.802533,-0.319921 -1.112345,0.05562 -0.309812,0.375541 -1.188789,2.144811 -1.334815,3.00333 -0.146026,0.858519 -0.298972,3.421648 -0.22247,3.948824 0.0765,0.527176 0.682996,1.461514 0.389321,1.779752 -0.293675,0.318238 -1.644213,-0.286651 -2.057836,0.111236 -0.413623,0.397887 -0.556173,2.335924 -0.556173,2.335924 0,0 -0.785096,-0.168555 -0.945494,0 -0.160398,0.168555 0.110017,1.322452 -0.166851,1.6129 -0.358394,0.375973 -1.557282,0.05562 -1.557282,0.05562 0,0 0.05178,1.954104 0,2.280309 -0.06908,0.435221 -1.279197,0.333703 -1.279197,0.333703 0,0 -1.26361,-0.0024 -2.355588,-0.176973 -1.091977,-0.174612 -4.302049,-2.350689 -5.263976,-2.270188 -0.738287,0.06179 -1.890985,1.167964 -1.890985,1.167964 0,0 1.310089,0.962648 2.113455,2.280306 0.803366,1.317658 2.681481,6.014091 3.615121,7.619564 0.93364,1.605473 4.97834,7.171512 5.839809,8.008882 0.861469,0.83737 1.838789,0.978966 2.335925,1.835369 0.25404,0.437628 0.334953,1.008309 0.222469,1.501667 -0.154308,0.676796 -1.16796,1.724134 -1.16796,1.724134 0,0 1.050098,-0.420471 1.972435,-0.08145 0.922338,0.339021 1.008946,1.538795 1.740425,1.399972 1.895317,-0.359699 5.574674,-2.128587 8.086719,-3.546827 2.512046,-1.41824 6.900808,-4.147368 7.221518,-5.001939 0.32071,-0.854571 1.181627,-1.385013 0.278085,-2.169073 C 76.27867,58.176461 75.073167,59.23703 75.005782,58.601493 74.955331,58.125647 88.320186,42.82528 88.320186,42.82528 h 8.856637 c 0,0 -7.90792,8.77355 -9.579661,11.123449 -1.671741,2.349899 -1.377085,3.593331 -1.890988,5.228022 -0.513903,1.634691 -0.647342,4.14656 -1.223578,4.560615 -2.082336,1.496265 -6.00264,3.216351 -6.729686,3.726354 -0.727046,0.510003 -6.959806,4.935184 -6.729688,5.506107 3.14545,7.803864 12.625116,21.857579 12.625116,21.857579 l -2.169073,2.002221 0.500555,0.611788 1.056727,-0.500555 c 0,0 1.965144,4.03688 2.419351,4.78308 0.454208,0.7462 1.414351,2.67406 3.03114,4.1713 1.616789,1.49724 4.402181,3.44718 6.691758,4.85615 2.289577,1.40897 4.829194,2.9205 7.045704,3.59767 2.21651,0.67717 5.09783,0.54055 5.95104,0.72302 0.40426,0.0865 -2.66963,4.00444 -2.66963,4.00444 0,0 10.25564,0.56171 13.29253,0.11124 3.03689,-0.45047 3.29069,-0.89915 4.89432,-1.52948 1.60363,-0.63033 3.32688,-1.31301 4.72746,-2.2525 1.40058,-0.93949 2.15875,-1.94771 3.61512,-3.28141 1.45637,-1.3337 5.11679,-4.72747 5.11679,-4.72747 l 2.83648,31.64621 -50.055524,0.38933 -99.4992522,-0.9455 4.4493795,-28.36479 z"
       id="path405"
       sodipodi:nodetypes="czczszczczczczczcazzcssssszzzzzsssssszzzszzzzzczscsczsczzzaaczszzsscczzszscccczzzzsczzzzcccccc" /><path
       style="fill:none;stroke:#000000;stroke-width:2.11666672;stroke-linecap:round;stroke-linejoin:round;stroke-dasharray:none;stroke-opacity:1"
       d="m 45.619706,71.103815 c 0,0 -0.635793,3.100305 -0.766884,4.581635 -0.131092,1.481329 -0.01967,4.306343 -0.01967,4.306343 0,0 2.726695,-1.356793 4.011388,-2.104013 1.284693,-0.747219 2.988794,-1.635225 3.696769,-2.379304 0.240184,-0.252433 0.05182,-0.968799 -0.294954,-1.002846 -0.853008,-0.08375 -2.221995,0.373609 -2.221995,0.373609 0,0 -1.153601,-1.514102 -2.04502,-2.398967 -0.891419,-0.884865 -2.359639,-1.376457 -2.359639,-1.376457 z"
       id="path1130"
       sodipodi:nodetypes="czczssczc" /><path
       style="fill:none;stroke:#000000;stroke-width:2.11666672;stroke-linecap:round;stroke-linejoin:round;stroke-dasharray:none;stroke-opacity:1"
       d="m 43.158983,104.56042 c 0,0 7.211703,-4.505 10.316999,-7.25805 3.105296,-2.753053 10.316998,-7.25805 10.316998,-7.25805 0,0 1.112346,2.206151 2.44716,3.781974 1.334814,1.575822 2.892097,3.003332 2.892097,3.003332 0,0 0.04241,2.049127 0.556173,3.225804 0.513767,1.17667 3.003331,3.28141 3.003331,3.28141 l 2.391542,-1.11234 c 0,0 1.858544,2.80404 2.753054,3.92102 0.89451,1.11698 3.309225,3.47607 3.309225,3.47607 l -0.22247,5.22802 c 0,0 -12.08748,-4.09713 -18.381499,-5.812 -6.294019,-1.71487 -19.38261,-4.47719 -19.38261,-4.47719 z"
       id="path2162"
       sodipodi:nodetypes="czczczcczcczc" /><path
       style="fill:none;stroke:#000000;stroke-width:2.11667;stroke-linecap:round;stroke-linejoin:round;stroke-dasharray:none;stroke-opacity:1"
       d="m 22.469367,103.22561 c 0,0 7.378555,-0.0371 10.956598,0.16685 3.578043,0.20393 10.51166,1.05673 10.51166,1.05673"
       id="path2172"
       sodipodi:nodetypes="czc" /><path
       style="fill:none;stroke:#000000;stroke-width:2.11667;stroke-linecap:round;stroke-linejoin:round;stroke-dasharray:none;stroke-opacity:1"
       d="m 80.616257,114.77147 c 0,0 8.234114,1.76496 12.469153,2.47046 4.235038,0.70551 12.8231,1.91989 12.8231,1.91989"
       id="path2174"
       sodipodi:nodetypes="czc" /></g></svg>
