<?xml version="1.0" encoding="UTF-8" standalone="no"?>
<!-- Created with Inkscape (http://www.inkscape.org/) -->

<svg
   width="512"
   height="512"
   viewBox="0 0 135.46667 135.46667"
   version="1.1"
   id="svg5"
   inkscape:version="1.3 (0e150ed6c4, 2023-07-21)"
   sodipodi:docname="com_microsoft_officehubrow.svg"
   xml:space="preserve"
   inkscape:export-filename="com_android_vending.png"
   inkscape:export-xdpi="96"
   inkscape:export-ydpi="96"
   xmlns:inkscape="http://www.inkscape.org/namespaces/inkscape"
   xmlns:sodipodi="http://sodipodi.sourceforge.net/DTD/sodipodi-0.dtd"
   xmlns="http://www.w3.org/2000/svg"
   xmlns:svg="http://www.w3.org/2000/svg"><sodipodi:namedview
     id="namedview7"
     pagecolor="#ffffff"
     bordercolor="#666666"
     borderopacity="1.0"
     inkscape:showpageshadow="2"
     inkscape:pageopacity="0.0"
     inkscape:pagecheckerboard="0"
     inkscape:deskcolor="#d1d1d1"
     inkscape:document-units="px"
     showgrid="false"
     inkscape:zoom="0.92972592"
     inkscape:cx="115.08768"
     inkscape:cy="144.66629"
     inkscape:window-width="1920"
     inkscape:window-height="1009"
     inkscape:window-x="-8"
     inkscape:window-y="-8"
     inkscape:window-maximized="1"
     inkscape:current-layer="layer1" /><defs
     id="defs2"><inkscape:path-effect
       effect="copy_rotate"
       starting_point="82.813552,67.733335"
       origin="67.733335,67.733335"
       id="path-effect2"
       is_visible="true"
       lpeversion="1.2"
       lpesatellites=""
       method="normal"
       num_copies="3"
       starting_angle="0"
       rotation_angle="120"
       gap="0"
       copies_to_360="false"
       mirror_copies="false"
       split_items="false"
       link_styles="false" /><inkscape:path-effect
       effect="fillet_chamfer"
       id="path-effect1"
       is_visible="true"
       lpeversion="1"
       nodesatellites_param="F,0,0,1,0,5,0,1 @ F,0,0,1,0,5,0,1 @ F,0,0,1,0,5,0,1 @ F,0,0,1,0,5,0,1 @ F,0,0,1,0,5,0,1 @ F,0,0,1,0,5,0,1"
       radius="5"
       unit="px"
       method="auto"
       mode="F"
       chamfer_steps="1"
       flexible="false"
       use_knot_distance="true"
       apply_no_radius="true"
       apply_with_radius="true"
       only_selected="false"
       hide_knots="false" /><style
       id="style1">.cls-1{fill:none;stroke:#000000;stroke-linecap:round;stroke-linejoin:round;}</style><style
       id="style1-4">.cls-1{fill:none;stroke:#000000;stroke-miterlimit:10;}</style><style
       id="style1-49">.c{fill:none;stroke:#000000;stroke-linecap:round;stroke-linejoin:round;}</style></defs><g
     inkscape:label="Layer 1"
     inkscape:groupmode="layer"
     id="layer1"><path
       id="path1"
       style="fill:none;stroke:#000000;stroke-width:2.19152;stroke-linecap:round;stroke-linejoin:round"
       d="m 57.705523,37.561016 -16.632577,9.603031 c -2.774245,1.601713 -4.483447,4.561995 -4.483447,7.765418 v 25.60774 c 0,3.203423 1.709202,6.163707 4.483447,7.765417 l 5.544365,3.200839 c 0,0 5.101337,-1.172746 5.886902,-1.630857 l 14.24572,-8.307555 c 0,0 -10.747665,-4.688168 -10.747665,-10.382829 V 45.847332 c 0,-3.527744 1.703255,-8.286316 1.703255,-8.286316 z m -11.088277,53.942818 16.632758,9.602716 c 2.774246,1.60171 6.192527,1.60178 8.966772,7e-5 L 94.39373,88.302753 c 2.774245,-1.601711 4.483326,-4.562066 4.483325,-7.765487 l -1.75e-4,-6.401981 c 0,0 -3.566296,-3.831515 -4.355815,-4.282778 L 80.203652,61.669129 c 0,0 1.31376,11.651835 -3.617961,14.499166 L 54.645034,88.835739 c -3.055116,1.763872 -8.027788,2.668095 -8.027788,2.668095 z m 52.25999,-17.368679 -1.81e-4,-19.20575 c -10e-7,-3.203423 -1.70908,-6.163777 -4.483325,-7.765488 L 72.216776,34.360047 c -2.774245,-1.601712 -6.192528,-1.601641 -8.966772,7e-5 l -5.54419,3.201142 c 0,0 -1.535041,5.00426 -1.531088,5.913635 l 0.07169,16.490933 c 0,0 9.433905,-6.963667 14.365626,-4.116337 l 21.940657,12.667444 c 3.055116,1.763872 6.324533,5.618221 6.324533,5.618221 z"
       sodipodi:nodetypes="ccssccscssc"
       inkscape:path-effect="#path-effect2"
       inkscape:original-d="m 57.705523,37.561016 -16.632577,9.603031 c -2.774245,1.601713 -4.483447,4.561995 -4.483447,7.765418 v 25.60774 c 0,3.203423 1.709202,6.163707 4.483447,7.765417 l 5.544365,3.200839 c 0,0 5.101337,-1.172746 5.886902,-1.630857 l 14.24572,-8.307555 c 0,0 -10.747665,-4.688168 -10.747665,-10.382829 V 45.847332 c 0,-3.527744 1.703255,-8.286316 1.703255,-8.286316 z" /></g></svg>
