<?xml version="1.0" encoding="UTF-8" standalone="no"?>
<!-- Created with Inkscape (http://www.inkscape.org/) -->

<svg
   width="512"
   height="512"
   viewBox="0 0 135.46667 135.46667"
   version="1.1"
   id="svg5"
   inkscape:version="1.3 (0e150ed6c4, 2023-07-21)"
   sodipodi:docname="com_microsoft_office_powerpoint.svg"
   xml:space="preserve"
   inkscape:export-filename="com_android_vending.png"
   inkscape:export-xdpi="96"
   inkscape:export-ydpi="96"
   xmlns:inkscape="http://www.inkscape.org/namespaces/inkscape"
   xmlns:sodipodi="http://sodipodi.sourceforge.net/DTD/sodipodi-0.dtd"
   xmlns="http://www.w3.org/2000/svg"
   xmlns:svg="http://www.w3.org/2000/svg"><sodipodi:namedview
     id="namedview7"
     pagecolor="#ffffff"
     bordercolor="#666666"
     borderopacity="1.0"
     inkscape:showpageshadow="2"
     inkscape:pageopacity="0.0"
     inkscape:pagecheckerboard="0"
     inkscape:deskcolor="#d1d1d1"
     inkscape:document-units="px"
     showgrid="false"
     inkscape:zoom="1.8594518"
     inkscape:cx="233.93992"
     inkscape:cy="286.91252"
     inkscape:window-width="1920"
     inkscape:window-height="1009"
     inkscape:window-x="-8"
     inkscape:window-y="-8"
     inkscape:window-maximized="1"
     inkscape:current-layer="layer1" /><defs
     id="defs2"><inkscape:path-effect
       effect="copy_rotate"
       starting_point="82.813552,67.733335"
       origin="67.733335,67.733335"
       id="path-effect2"
       is_visible="true"
       lpeversion="1.2"
       lpesatellites=""
       method="normal"
       num_copies="3"
       starting_angle="0"
       rotation_angle="120"
       gap="0"
       copies_to_360="false"
       mirror_copies="false"
       split_items="false"
       link_styles="false" /><inkscape:path-effect
       effect="fillet_chamfer"
       id="path-effect1"
       is_visible="true"
       lpeversion="1"
       nodesatellites_param="F,0,0,1,0,5,0,1 @ F,0,0,1,0,5,0,1 @ F,0,0,1,0,5,0,1 @ F,0,0,1,0,5,0,1 @ F,0,0,1,0,5,0,1 @ F,0,0,1,0,5,0,1"
       radius="5"
       unit="px"
       method="auto"
       mode="F"
       chamfer_steps="1"
       flexible="false"
       use_knot_distance="true"
       apply_no_radius="true"
       apply_with_radius="true"
       only_selected="false"
       hide_knots="false" /><style
       id="style1">.cls-1{fill:none;stroke:#000000;stroke-linecap:round;stroke-linejoin:round;}</style><style
       id="style1-4">.cls-1{fill:none;stroke:#000000;stroke-miterlimit:10;}</style><style
       id="style1-49">.c{fill:none;stroke:#000000;stroke-linecap:round;stroke-linejoin:round;}</style></defs><g
     inkscape:label="Layer 1"
     inkscape:groupmode="layer"
     id="layer1"><path
       d="m 37.778149,78.712471 h 4.385729 v -7.793558 h 2.933697 c 4.711694,0 8.475124,-2.252131 8.475124,-7.260159 0,-5.185827 -3.733796,-6.904559 -8.593658,-6.904559 h -7.200892 z m 4.385729,-11.260654 v -7.200892 h 2.489197 c 3.022597,0 4.622795,0.859365 4.622795,3.407829 0,2.518831 -1.452032,3.793063 -4.474628,3.793063 z"
       id="text1"
       style="font-weight:bold;font-size:29.6333px;font-family:'Noto Sans CJK JP';-inkscape-font-specification:'Noto Sans CJK JP Bold';text-align:center;text-anchor:middle;stroke-width:2.11667;stroke-linecap:round;stroke-linejoin:round"
       aria-label="P" /><path
       id="path1"
       style="fill:none;stroke:#000000;stroke-width:2.11667;stroke-linecap:round;stroke-linejoin:round"
       d="M 67.733335,35.459335 A 31.604412,32.273941 0 0 0 41.497726,49.804713 h -9.517765 c -2.345265,0 -4.233334,1.888069 -4.233334,4.233334 v 27.390576 c 0,2.345265 1.888069,4.233334 4.233334,4.233334 h 9.517765 a 31.604412,32.273941 0 0 0 26.235609,14.345373 31.604412,32.273941 0 0 0 31.604273,-32.273995 31.604412,32.273941 0 0 0 -31.604273,-32.274 z m -35.753248,14.34533 h 27.390675 c 2.345267,0 4.233333,1.888066 4.233333,4.233333 v 27.390675 c 0,2.345267 -1.888066,4.233333 -4.233333,4.233333 H 31.980087 c -2.345267,0 -4.233333,-1.888066 -4.233333,-4.233333 V 54.037998 c 0,-2.345267 1.888066,-4.233333 4.233333,-4.233333 z" /><path
       style="fill:none;stroke:#000000;stroke-width:2.11667;stroke-linecap:round;stroke-linejoin:round;stroke-dasharray:none;stroke-opacity:1"
       d="M 63.604094,67.733335 H 99.337609"
       id="path2" /><path
       style="fill:none;stroke:#000000;stroke-width:2.11667;stroke-linecap:round;stroke-linejoin:round;stroke-dasharray:none;stroke-opacity:1"
       d="m 67.733335,35.459335 v 32.274"
       id="path3" /></g></svg>
