<?xml version="1.0" encoding="UTF-8" standalone="no"?>
<!-- Created with Inkscape (http://www.inkscape.org/) -->

<svg
   width="512"
   height="512"
   viewBox="0 0 135.46667 135.46667"
   version="1.1"
   id="svg5"
   inkscape:version="1.3 (0e150ed6c4, 2023-07-21)"
   sodipodi:docname="com_yes24_yes24viewer.svg"
   xml:space="preserve"
   inkscape:export-filename="com_incube_newepub.png"
   inkscape:export-xdpi="96"
   inkscape:export-ydpi="96"
   xmlns:inkscape="http://www.inkscape.org/namespaces/inkscape"
   xmlns:sodipodi="http://sodipodi.sourceforge.net/DTD/sodipodi-0.dtd"
   xmlns="http://www.w3.org/2000/svg"
   xmlns:svg="http://www.w3.org/2000/svg"><sodipodi:namedview
     id="namedview7"
     pagecolor="#ffffff"
     bordercolor="#666666"
     borderopacity="1.0"
     inkscape:showpageshadow="2"
     inkscape:pageopacity="0.0"
     inkscape:pagecheckerboard="0"
     inkscape:deskcolor="#d1d1d1"
     inkscape:document-units="px"
     showgrid="false"
     inkscape:zoom="1.1893044"
     inkscape:cx="130.32828"
     inkscape:cy="273.68939"
     inkscape:window-width="1920"
     inkscape:window-height="1009"
     inkscape:window-x="-8"
     inkscape:window-y="-8"
     inkscape:window-maximized="1"
     inkscape:current-layer="layer1" /><defs
     id="defs2" /><g
     inkscape:label="Layer 1"
     inkscape:groupmode="layer"
     id="layer1"><path
       style="fill:#000000;fill-opacity:1;stroke:#000000;stroke-width:2.11667;stroke-linecap:butt;stroke-linejoin:miter;stroke-dasharray:none;stroke-opacity:1"
       d="m 12.235794,37.486023 6.395983,10.344809 -2.280307,11.012212 h 4.949935 l 1.446048,-10.678509 9.232463,-10.456043 h -5.394873 l -5.005552,5.784194 -3.448269,-5.895427 z"
       id="path1014" /><path
       style="fill:#000000;fill-opacity:1;stroke:#000000;stroke-width:2.11667;stroke-linecap:butt;stroke-linejoin:miter;stroke-dasharray:none;stroke-opacity:1"
       d="M 35.650655,37.708492 31.9243,58.95428 h 12.235794 l 0.55617,-3.83759 h -6.896536 l 0.945493,-4.894319 h 6.618452 l 0.667406,-4.282527 h -6.562833 l 0.945491,-4.560612 h 6.507218 l 0.667406,-3.781973 z"
       id="path1016" /><path
       style="fill:#000000;fill-opacity:1;stroke:#000000;stroke-width:2.11667;stroke-linecap:butt;stroke-linejoin:miter;stroke-dasharray:none;stroke-opacity:1"
       d="m 63.292425,41.601698 c 0,0 -1.520205,-1.381161 -3.976633,-1.112345 -2.456428,0.268817 -3.113936,1.739611 -3.003331,2.808672 0.110604,1.069061 1.308655,2.135342 3.837589,2.586202 0.814235,0.145163 1.473032,0.267144 2.613393,1.17366 0.94106,0.748085 1.139032,1.34239 1.502285,2.413654 0.363254,1.071264 0.531087,2.626891 -0.08342,4.254718 -0.614509,1.627827 -2.65783,3.53206 -4.282527,4.449379 -1.624697,0.917319 -3.23301,0.904662 -4.922128,0.917686 -1.689118,0.01302 -3.813778,-0.445273 -4.977742,-0.862068 -1.163964,-0.416795 -2.05784,-1.167963 -2.05784,-1.167963 l 2.66963,-3.726355 c 0,0 2.953009,2.195014 4.504997,2.280306 1.551988,0.08529 2.987719,-0.296771 4.00444,-1.501664 1.016721,-1.204893 0.701023,-2.497765 0,-3.503887 -0.701023,-1.006122 -2.034831,-0.461565 -3.670738,-1.112344 -1.635908,-0.650779 -3.877771,-1.923793 -4.22691,-3.948826 -0.174569,-1.012516 -0.04943,-2.625416 0.453054,-3.985187 0.502485,-1.359771 1.054008,-1.849871 1.938487,-2.716691 0.88448,-0.866819 2.042525,-1.343083 3.531695,-1.724135 1.489169,-0.381051 3.761291,-0.469647 5.200212,-0.19466 1.438921,0.274987 3.281418,1.446048 3.281418,1.446048 z"
       id="path1018"
       sodipodi:nodetypes="czzsszzzzzcczzzzsszzzcc" /><path
       style="fill:#000000;fill-opacity:1;stroke:#000000;stroke-width:2.11667;stroke-linecap:square;stroke-linejoin:miter;stroke-dasharray:none;stroke-opacity:1"
       d="m 72.969825,59.065514 h 16.740792 v -3.615121 h -7.675179 c 0,0 5.87243,-5.735274 6.963095,-7.100742 1.090665,-1.365467 1.714932,-2.240127 1.923496,-3.468341 0.208565,-1.228214 0.07026,-2.591497 -0.436143,-3.684641 -0.506398,-1.093145 -1.235338,-2.169686 -2.236449,-2.762937 -1.001111,-0.593251 -2.192826,-1.090007 -3.376942,-1.209506 -1.184115,-0.1195 -2.475819,0.167943 -3.625242,0.566533 -1.149423,0.398591 -2.452915,1.164888 -3.487597,2.159291 -1.034682,0.994403 -2.731991,4.098809 -2.731991,4.098809 h 4.504997 c 0,0 0.514562,-1.659554 1.135621,-2.243536 0.621059,-0.583981 1.767608,-1.256014 2.590733,-1.260352 0.823125,-0.0043 1.698882,0.426366 2.282863,0.963999 0.583981,0.537633 0.794712,1.412666 1.024388,2.399447 0.229677,0.98678 -0.508103,1.971469 -1.649433,3.723561 -1.141331,1.752092 -3.616499,3.995982 -5.60804,5.902995 -1.991542,1.907013 -6.338969,5.530541 -6.338969,5.530541 z"
       id="path1850"
       sodipodi:nodetypes="cccczzzzzzzcczzzzzzc" /><path
       id="path1854"
       style="fill:#000000;fill-opacity:1;stroke:#000000;stroke-width:2.11667;stroke-linecap:butt;stroke-linejoin:miter;stroke-dasharray:none;stroke-opacity:1"
       d="m 105.00536,41.935402 -6.284749,8.509439 0.166851,1.167963 h 5.172398 l 2.588,-9.658559 z m -1.33482,12.569499 H 92.658332 l 0.667406,-2.947715 11.012212,-13.348139 h 5.95104 l -1.9466,13.459373 h 2.50278 v 2.66963 h -2.44716 l -0.94549,1.001109 v 3.392652 h -4.44939 z" /><path
       style="fill:#000000;fill-opacity:1;stroke:#000000;stroke-width:2.11667;stroke-linecap:butt;stroke-linejoin:miter;stroke-dasharray:none;stroke-opacity:1"
       d="m 63.737362,63.959832 c -2.315214,1.839634 -1.043231,3.847133 -1.043231,3.847133 0,0 3.7314,7.572941 11.276806,11.503226 7.545407,3.930286 11.197002,3.843326 16.740792,3.893206 5.54379,0.0499 10.418961,-0.14831 17.908751,-3.448268 7.48979,-3.299956 12.68073,-12.347027 12.68073,-12.347027 0,0 0.49378,-2.382109 -1.26291,-3.601627 -1.75669,-1.219518 -3.74264,0.820763 -3.74264,0.820763 0,0 -4.11568,7.044851 -9.59398,9.872061 -5.4783,2.827211 -9.960282,3.109497 -14.599521,3.086758 -4.639239,-0.02274 -9.751557,-0.463477 -15.322551,-3.503886 -5.570993,-3.040409 -9.348467,-9.752102 -9.348467,-9.752102 0,0 -1.378564,-2.209872 -3.693779,-0.370237 z"
       id="path1857"
       sodipodi:nodetypes="zczzzczczzzcz" /><path
       style="fill:#000000;fill-opacity:1;stroke:#000000;stroke-width:2.11667;stroke-linecap:butt;stroke-linejoin:miter;stroke-dasharray:none;stroke-opacity:1"
       d="m 86.928054,30.026831 c 0.551667,0.16573 1.37318,0.114705 1.956535,-0.06882 0.583356,-0.183528 1.103036,-0.706369 1.504272,-1.169988 0.401235,-0.463618 3.345668,-10.801318 3.43131,-11.503244 0.08564,-0.701926 0.0033,-1.491161 -0.324451,-2.054853 -0.327728,-0.563692 -0.912553,-1.225022 -1.533766,-1.405952 -0.621213,-0.18093 -1.55343,0.05899 -2.123676,0.353946 -0.570246,0.294954 -1.146641,1.19192 -1.533766,1.995861 -0.387125,0.803941 -3.389598,10.555475 -3.352655,11.149297 0.03694,0.593823 0.101595,1.222425 0.442432,1.641917 0.340836,0.419491 0.982098,0.896108 1.533765,1.061838 z"
       id="path2596"
       sodipodi:nodetypes="zzzzzzzzzzz" /><path
       style="fill:#000000;fill-opacity:1;stroke:#000000;stroke-width:2.11667;stroke-linecap:butt;stroke-linejoin:miter;stroke-dasharray:none;stroke-opacity:1"
       d="m 102.03363,30.008345 c 0.55166,0.165731 1.37318,0.114705 1.95653,-0.06882 0.58336,-0.183528 1.10304,-0.706369 1.50427,-1.169988 0.40124,-0.463617 3.34567,-10.801318 3.43131,-11.503244 0.0856,-0.701926 0.003,-1.491161 -0.32445,-2.054853 -0.32773,-0.563692 -0.91255,-1.225022 -1.53376,-1.405952 -0.62122,-0.18093 -1.55343,0.05899 -2.12368,0.353946 -0.57025,0.294954 -1.14664,1.19192 -1.53377,1.995861 -0.38712,0.803941 -3.38959,10.555475 -3.35265,11.149297 0.0369,0.593824 0.10159,1.222426 0.44243,1.641917 0.34084,0.419491 0.9821,0.896108 1.53377,1.061839 z"
       id="path2596-3"
       sodipodi:nodetypes="zzzzzzzzzzz" /><path
       style="fill:none;stroke:#000000;stroke-width:2.11666672;stroke-linecap:butt;stroke-linejoin:miter;stroke-opacity:1;stroke-dasharray:none"
       d="M -4.8943177,94.771787 H 163.73717"
       id="path361" /><path
       style="font-weight:900;font-size:16.9333px;line-height:1.25;font-family:'Noto Sans JP';-inkscape-font-specification:'Noto Sans JP Heavy';text-align:center;text-anchor:middle;stroke-width:0.264583"
       d="m 28.783726,107.5 v 3.94546 h -2.116663 v 2.1844 h 2.116663 v 5.41865 H 31.52692 V 107.5 Z m -7.941718,10.60025 v 5.04612 h 11.006645 v -2.16746 h -8.26345 v -2.87866 z m -2.184396,-9.65198 v 2.15052 h 2.912528 c -0.03387,1.84573 -0.914398,3.82693 -3.623726,4.69053 l 1.354664,2.16746 c 1.811863,-0.57573 2.997194,-1.7272 3.691459,-3.16653 0.677332,1.30387 1.79493,2.3368 3.48826,2.87867 l 1.320797,-2.11667 c -2.573861,-0.84666 -3.420526,-2.72626 -3.454393,-4.45346 h 2.878661 v -2.15052 z m 15.273838,0.50799 v 2.2352 h 3.115727 v 0.28787 c 0,2.55692 -0.948265,5.50332 -3.759192,6.80718 l 1.523997,2.15053 c 1.811863,-0.82973 2.98026,-2.42146 3.657592,-4.31799 0.694266,1.71026 1.828797,3.14959 3.555993,3.91159 l 1.490131,-2.15053 c -2.777061,-1.25306 -3.725326,-4.06399 -3.725326,-6.40078 v -0.28787 h 2.946394 v -2.2352 z M 43.515698,107.5 v 15.88344 h 2.743194 v -7.78932 h 2.133596 v -2.2352 H 46.258892 V 107.5 Z m 7.349053,0.98213 v 8.07719 h 4.216392 v 2.92946 h -5.808122 v 2.21826 h 14.376372 v -2.21826 h -5.841989 v -2.92946 h 4.368791 v -2.16747 h -8.585183 v -3.74226 h 8.483584 v -2.16746 z m 24.72262,-1.016 v 4.75826 h -2.692395 v 2.1844 h 2.692395 v 9.00851 h 2.726261 v -15.95117 z m -7.281319,1.15147 v 2.01506 c 0,3.06493 -0.897465,6.14679 -3.793059,7.45065 l 1.69333,2.1844 c 1.710263,-0.82973 2.810928,-2.286 3.471326,-4.11479 0.626533,1.71026 1.69333,3.06492 3.352794,3.86079 l 1.625597,-2.16746 c -2.810928,-1.2192 -3.606793,-4.13173 -3.606793,-7.21359 v -2.01506 z m 12.733842,-0.0169 v 2.16746 h 5.604922 c -0.03387,0.89746 -0.08467,1.94733 -0.304799,3.25119 l 2.641595,0.3048 c 0.355599,-1.9304 0.355599,-3.48826 0.355599,-4.63972 v -1.08373 z m -0.677332,8.83918 c 2.692395,-0.0169 6.333054,-0.0847 9.601181,-0.7112 l -0.169333,-1.9304 c -1.371597,0.2032 -2.861728,0.32174 -4.334925,0.38947 v -2.794 h -2.692394 v 2.87867 l -2.641595,0.0169 z m 10.176913,-9.95678 v 11.85331 h 2.743195 v -4.96146 H 94.976 v -2.21826 h -1.69333 v -4.67359 z m -8.16185,10.82038 v 4.84292 h 11.413044 v -2.16746 h -8.66985 v -2.67546 z M 102.2912,108.04187 v 7.01038 h 11.20984 v -7.01038 h -2.69239 v 1.52399 h -5.80812 v -1.52399 z m 2.70933,3.65759 h 5.80812 v 1.18533 h -5.80812 z m -4.25026,4.65666 v 2.15053 h 2.98026 v 4.87679 h 2.74319 v -4.87679 h 2.92946 v 4.87679 h 2.7432 v -4.87679 h 2.98026 v -2.15053 z m 19.98129,-5.35093 c 0.9652,0 1.5748,1.03294 1.5748,3.2512 0,2.25213 -0.6096,3.28506 -1.5748,3.28506 -0.94826,0 -1.57479,-1.03293 -1.57479,-3.28506 0,-2.21826 0.62653,-3.2512 1.57479,-3.2512 z m 6.33306,-3.53906 v 5.55413 h -2.2352 c -0.3556,-2.794 -1.9812,-4.50426 -4.09786,-4.50426 -2.40453,0 -4.18252,2.21826 -4.18252,5.74039 0,3.55599 1.77799,5.77425 4.18252,5.77425 2.1844,0 3.84386,-1.82879 4.13173,-4.82599 h 2.20133 v 8.21265 h 2.72626 v -15.95117 z"
       id="text972"
       transform="skewX(-3)"
       aria-label="전자도서관 뷰어" /></g></svg>
