<?xml version="1.0" encoding="UTF-8" standalone="no"?>
<!-- Created with Inkscape (http://www.inkscape.org/) -->

<svg
   width="512"
   height="512"
   viewBox="0 0 135.46666 135.46667"
   version="1.1"
   id="svg5"
   inkscape:version="1.2 (dc2aedaf03, 2022-05-15)"
   sodipodi:docname="Group.svg"
   xml:space="preserve"
   inkscape:export-filename="Group.png"
   inkscape:export-xdpi="96"
   inkscape:export-ydpi="96"
   xmlns:inkscape="http://www.inkscape.org/namespaces/inkscape"
   xmlns:sodipodi="http://sodipodi.sourceforge.net/DTD/sodipodi-0.dtd"
   xmlns="http://www.w3.org/2000/svg"
   xmlns:svg="http://www.w3.org/2000/svg"><sodipodi:namedview
     id="namedview7"
     pagecolor="#ffffff"
     bordercolor="#666666"
     borderopacity="1.0"
     inkscape:showpageshadow="2"
     inkscape:pageopacity="0.0"
     inkscape:pagecheckerboard="0"
     inkscape:deskcolor="#d1d1d1"
     inkscape:document-units="px"
     showgrid="false"
     inkscape:zoom="1.0116323"
     inkscape:cx="140.36721"
     inkscape:cy="278.75742"
     inkscape:window-width="1920"
     inkscape:window-height="1017"
     inkscape:window-x="-8"
     inkscape:window-y="-8"
     inkscape:window-maximized="1"
     inkscape:current-layer="layer1" /><defs
     id="defs2" /><g
     inkscape:label="Layer 1"
     inkscape:groupmode="layer"
     id="layer1"><g
       style="fill:#000000"
       id="g1044"
       transform="matrix(4.381357,0,0,4.381357,15.157048,15.157048)"><g
         id="g1016"><rect
           fill="none"
           height="24"
           width="24"
           id="rect1014"
           x="0"
           y="0" /></g><g
         id="g1028"><g
           id="g1026"
           style="fill:none;stroke:#000000;stroke-width:0.583196;stroke-dasharray:none;stroke-opacity:1"
           transform="translate(0.12025792,-0.0636298)"><path
             d="m 5,11 h 4 c 1.1,0 2,-0.9 2,-2 V 5 C 11,3.9 10.1,3 9,3 H 5 C 3.9,3 3,3.9 3,5 v 4 c 0,1.1 0.9,2 2,2 z"
             id="path1018"
             style="fill:none;stroke:#000000;stroke-width:0.583196;stroke-dasharray:none;stroke-opacity:1" /><path
             d="m 5,21 h 4 c 1.1,0 2,-0.9 2,-2 V 15 C 11,13.9 10.1,13 9,13 H 5 c -1.1,0 -2,0.9 -2,2 v 4 c 0,1.1 0.9,2 2,2 z"
             id="path1020"
             style="fill:none;stroke:#000000;stroke-width:0.583196;stroke-dasharray:none;stroke-opacity:1" /><path
             d="m 13,5 v 4 c 0,1.1 0.9,2 2,2 h 4 c 1.1,0 2,-0.9 2,-2 V 5 C 21,3.9 20.1,3 19,3 h -4 c -1.1,0 -2,0.9 -2,2 z"
             id="path1022"
             style="fill:none;stroke:#000000;stroke-width:0.583196;stroke-dasharray:none;stroke-opacity:1" /><path
             d="m 15,21 h 4 c 1.1,0 2,-0.9 2,-2 v -4 c 0,-1.1 -0.9,-2 -2,-2 h -4 c -1.1,0 -2,0.9 -2,2 v 4 c 0,1.1 0.9,2 2,2 z"
             id="path1024"
             style="fill:none;stroke:#000000;stroke-width:0.583196;stroke-dasharray:none;stroke-opacity:1" /></g></g></g></g></svg>
