<?xml version="1.0" encoding="UTF-8" standalone="no"?>
<!-- Created with Inkscape (http://www.inkscape.org/) -->

<svg
   width="512"
   height="512"
   viewBox="0 0 135.46667 135.46667"
   version="1.1"
   id="svg5"
   inkscape:version="1.2.1 (9c6d41e410, 2022-07-14)"
   sodipodi:docname="info_plateaukao_einkbro.svg"
   xml:space="preserve"
   xmlns:inkscape="http://www.inkscape.org/namespaces/inkscape"
   xmlns:sodipodi="http://sodipodi.sourceforge.net/DTD/sodipodi-0.dtd"
   xmlns="http://www.w3.org/2000/svg"
   xmlns:svg="http://www.w3.org/2000/svg"><sodipodi:namedview
     id="namedview7"
     pagecolor="#ffffff"
     bordercolor="#666666"
     borderopacity="1.0"
     inkscape:showpageshadow="2"
     inkscape:pageopacity="0.0"
     inkscape:pagecheckerboard="0"
     inkscape:deskcolor="#d1d1d1"
     inkscape:document-units="px"
     showgrid="false"
     inkscape:zoom="1.1893044"
     inkscape:cx="224.50098"
     inkscape:cy="292.60802"
     inkscape:window-width="1920"
     inkscape:window-height="1017"
     inkscape:window-x="-8"
     inkscape:window-y="-8"
     inkscape:window-maximized="1"
     inkscape:current-layer="g196"
     showguides="true" /><defs
     id="defs2" /><g
     inkscape:label="Layer 1"
     inkscape:groupmode="layer"
     id="layer1"><g
       style="fill:#000000;stroke-width:0.48973984;stroke-dasharray:none"
       id="g196"
       transform="matrix(4.8622756,0,0,4.8622756,9.3860278,9.3860278)"><path
         d="M 0,0 H 24 V 24 H 0 Z"
         fill="none"
         id="path184"
         style="stroke-width:0.48973984;stroke-dasharray:none" /><path
         d="M 11.99,2 C 6.47,2 2,6.48 2,12 2,17.52 6.47,22 11.99,22 17.52,22 22,17.52 22,12 22,6.48 17.52,2 11.99,2 Z m 6.93,6 H 15.97 C 15.65,6.75 15.19,5.55 14.59,4.44 16.43,5.07 17.96,6.35 18.92,8 Z M 12,4.04 c 0.83,1.2 1.48,2.53 1.91,3.96 H 10.09 C 10.52,6.57 11.17,5.24 12,4.04 Z M 4.26,14 C 4.1,13.36 4,12.69 4,12 4,11.31 4.1,10.64 4.26,10 h 3.38 c -0.08,0.66 -0.14,1.32 -0.14,2 0,0.68 0.06,1.34 0.14,2 z m 0.82,2 h 2.95 c 0.32,1.25 0.78,2.45 1.38,3.56 C 7.57,18.93 6.04,17.66 5.08,16 Z M 8.03,8 H 5.08 C 6.04,6.34 7.57,5.07 9.41,4.44 8.81,5.55 8.35,6.75 8.03,8 Z M 12,19.96 C 11.17,18.76 10.52,17.43 10.09,16 h 3.82 C 13.48,17.43 12.83,18.76 12,19.96 Z M 14.34,14 H 9.66 C 9.57,13.34 9.5,12.68 9.5,12 c 0,-0.68 0.07,-1.35 0.16,-2 h 4.68 c 0.09,0.65 0.16,1.32 0.16,2 0,0.68 -0.07,1.34 -0.16,2 z m 0.25,5.56 c 0.6,-1.11 1.06,-2.31 1.38,-3.56 h 2.95 c -0.96,1.65 -2.49,2.93 -4.33,3.56 z M 16.36,14 c 0.08,-0.66 0.14,-1.32 0.14,-2 0,-0.68 -0.06,-1.34 -0.14,-2 h 3.38 c 0.16,0.64 0.26,1.31 0.26,2 0,0.69 -0.1,1.36 -0.26,2 z"
         id="path186"
         style="stroke-width:0.4353243;stroke-dasharray:none;stroke:#000000;stroke-opacity:1;fill:none" /></g></g></svg>
