<?xml version="1.0" encoding="UTF-8" standalone="no"?>
<!-- Created with Inkscape (http://www.inkscape.org/) -->

<svg
   width="512"
   height="512"
   viewBox="0 0 135.46667 135.46667"
   version="1.1"
   id="svg5"
   inkscape:version="1.3 (0e150ed6c4, 2023-07-21)"
   sodipodi:docname="kr_co_kyobobook_KEL.svg"
   xml:space="preserve"
   xmlns:inkscape="http://www.inkscape.org/namespaces/inkscape"
   xmlns:sodipodi="http://sodipodi.sourceforge.net/DTD/sodipodi-0.dtd"
   xmlns="http://www.w3.org/2000/svg"
   xmlns:svg="http://www.w3.org/2000/svg"><sodipodi:namedview
     id="namedview7"
     pagecolor="#ffffff"
     bordercolor="#666666"
     borderopacity="1.0"
     inkscape:showpageshadow="2"
     inkscape:pageopacity="0.0"
     inkscape:pagecheckerboard="0"
     inkscape:deskcolor="#d1d1d1"
     inkscape:document-units="px"
     showgrid="false"
     inkscape:zoom="1.1893044"
     inkscape:cx="182.4596"
     inkscape:cy="244.26043"
     inkscape:window-width="1920"
     inkscape:window-height="1009"
     inkscape:window-x="-8"
     inkscape:window-y="-8"
     inkscape:window-maximized="1"
     inkscape:current-layer="layer1"
     showguides="true" /><defs
     id="defs2" /><g
     inkscape:label="Layer 1"
     inkscape:groupmode="layer"
     id="layer1"><g
       aria-label="KYOBO"
       id="text356"
       style="font-size:25.4px;line-height:1.25;fill:#000000;fill-opacity:1;stroke-width:0.264583"
       transform="matrix(0.70900234,0,0,0.70900234,19.480715,0.38496252)"><path
         d="m 35.838031,73.754059 h -2.813793 l -5.476259,-7.554189 -0.711344,-0.940292 0.05562,8.494481 H 24.264626 V 56.951055 h 2.627626 l -0.05562,8.297515 5.836998,-8.297515 h 2.779925 l -5.875242,7.790607 z"
         id="path412"
         sodipodi:nodetypes="ccccccccccccc"
         style="fill:#000000;fill-opacity:1;stroke:#000000;stroke-opacity:1" /><path
         d="m 53.393823,56.860063 -5.633627,9.345848 v 7.567812 h -2.455664 v -7.307362 l -5.815741,-9.606298 h 2.716114 l 4.339862,7.23745 4.232162,-7.23745 z"
         id="path414"
         style="fill:#000000;fill-opacity:1;stroke:#000000;stroke-opacity:1"
         sodipodi:nodetypes="cccccccccc" /><path
         id="path416"
         style="fill:#000000;fill-opacity:1;stroke:#000000;stroke-opacity:1"
         d="m 64.082031,56.485402 c -3.033044,0.03937 -5.4877,1.864424 -6.628001,4.752933 -1.193751,3.023901 -1.200359,4.9893 -0.11801,8.03011 1.013674,2.592919 2.927174,4.553979 5.713772,4.838193 3.109317,0.500643 6.374161,-0.517185 8.118394,-3.294152 1.904751,-2.953131 2.039357,-5.264917 1.127179,-8.570712 -0.708486,-2.567605 -2.450739,-4.774643 -5.080573,-5.417119 -1.014921,-0.289165 -2.080653,-0.377401 -3.132761,-0.339253 z m 1.892384,2.215066 c 1.076673,0.137715 1.878398,0.909738 3.214395,2.848466 0.749999,2.270245 0.653382,4.663254 0.06716,6.93085 -1.440576,2.502068 -1.608012,3.477358 -4.212968,4.078357 -2.300961,0.219236 -3.409208,-0.991694 -4.327636,-3.173965 -1.084775,-2.354371 -1.145706,-4.595558 -0.56475,-7.07112 0.301914,-1.093308 0.649315,-1.768405 1.157397,-2.325651 0.508082,-0.557246 1.315887,-1.358153 2.482991,-1.423885 0.263582,-0.0312 0.724593,-0.04965 0.987637,-0.016 0,0 0.4264,0.0093 0.625696,0.03476 0.199296,0.02549 0.570078,0.118188 0.570078,0.118188 z"
         sodipodi:nodetypes="cscccsccscccccscszs" /><path
         id="path416-7"
         style="font-size:25.4px;line-height:1.25;fill:#000000;fill-opacity:1;stroke:#000000;stroke-width:0.264583;stroke-opacity:1"
         d="m 103.13613,56.415714 c -3.03304,0.03937 -5.487698,1.864424 -6.627999,4.752933 -1.193751,3.023901 -1.200359,4.9893 -0.11801,8.03011 1.013674,2.592919 2.927174,4.553979 5.713769,4.838193 3.10932,0.500643 6.37416,-0.517185 8.1184,-3.294152 1.90475,-2.953131 2.03935,-5.264917 1.12718,-8.570712 -0.70849,-2.567605 -2.45074,-4.774643 -5.08058,-5.417119 -1.01492,-0.289165 -2.08065,-0.377401 -3.13276,-0.339253 z m 1.89239,2.215066 c 1.07667,0.137715 1.87839,0.909738 3.21439,2.848466 0.75,2.270245 0.65338,4.663254 0.0672,6.93085 -1.44057,2.502068 -1.60801,3.477358 -4.21297,4.078357 -2.30096,0.219236 -3.4092,-0.991694 -4.327633,-3.173965 -1.084775,-2.354371 -1.145706,-4.595558 -0.56475,-7.07112 0.301914,-1.093308 0.649315,-1.768405 1.157393,-2.325651 0.50809,-0.557246 1.31589,-1.358153 2.483,-1.423885 0.26358,-0.0312 0.72459,-0.04965 0.98763,-0.016 0,0 0.4264,0.0093 0.6257,0.03476 0.19929,0.02549 0.57008,0.118188 0.57008,0.118188 z"
         sodipodi:nodetypes="cscccsccscccccscszs" /><path
         d="m 90.688429,68.469024 c 0,0.842098 -0.173771,1.585572 -0.521312,2.230421 -0.347541,0.644849 -0.815066,1.175902 -1.402576,1.593157 -0.695081,0.500707 -1.460499,0.85727 -2.296252,1.069691 -0.827478,0.212421 -1.292603,0.318632 -2.575195,0.318632 H 79.18785 V 56.736559 h 3.625384 c 1.34879,0 1.768404,0.04552 2.438661,0.136556 0.670258,0.09104 1.311554,0.280699 1.923887,0.568985 0.678533,0.326218 1.170883,0.747267 1.47705,1.263147 0.306167,0.508293 0.45925,1.119003 0.45925,1.83213 0,0.804165 -0.223419,1.49074 -0.670258,2.059725 -0.446838,0.561399 -1.042622,1.012793 -1.787353,1.354184 v 0.09104 c 1.249493,0.23518 2.234192,0.73968 2.954099,1.513499 0.719906,0.766233 1.079859,1.7373 1.079859,2.913201 z m -4.133255,-7.635775 c 0,-0.409669 -0.07447,-0.754853 -0.223419,-1.035552 -0.148946,-0.280699 -0.388915,-0.508293 -0.719906,-0.682782 -0.388915,-0.204834 -0.860578,-0.33001 -1.414988,-0.375529 -0.554411,-0.05311 -0.651308,-0.07966 -1.470512,-0.07966 h -1.080888 v 4.89327 h 1.329132 c 0.769555,0 0.791979,-0.03414 1.247092,-0.102418 0.455113,-0.07587 0.877127,-0.227594 1.266042,-0.455188 0.388915,-0.227593 0.661982,-0.519672 0.819203,-0.876236 0.165496,-0.364151 0.248244,-0.792786 0.248244,-1.285905 z m 1.576347,7.726813 c 0,-0.682782 -0.11171,-1.225214 -0.335129,-1.627296 -0.223419,-0.402083 -0.628884,-0.743474 -1.216393,-1.024173 -0.39719,-0.189662 -0.881265,-0.311045 -1.452225,-0.36415 -0.562686,-0.06069 -0.659583,-0.09104 -1.470511,-0.09104 h -2.011802 v 6.304352 h 1.403605 c 1.075722,0 1.367076,-0.04931 2.053883,-0.147937 0.686808,-0.10621 1.249494,-0.295871 1.688057,-0.568984 0.463387,-0.295872 0.802653,-0.63347 1.017798,-1.012793 0.215145,-0.379323 0.322717,-0.86865 0.322717,-1.467979 z"
         id="path418"
         style="fill:#000000;fill-opacity:1;stroke:#000000;stroke-width:0.253541;stroke-opacity:1"
         sodipodi:nodetypes="ssccsccssccsccccssssccsccscscsssccsccsccss" /></g><path
       id="path1351"
       style="fill:#000000;fill-opacity:1;stroke:none;stroke-width:1.50072;stroke-linecap:butt;stroke-linejoin:miter;stroke-dasharray:none;stroke-opacity:1"
       d="m 86.801419,19.752552 c -0.08595,0.0012 -0.173005,0.005 -0.2616,0.01136 -1.417514,0.101528 -3.224411,0.902902 -3.847798,2.314101 -0.623388,1.411201 -0.692389,3.500644 -0.111746,5.102674 0.58064,1.602029 0.604115,3.160215 3.80603,4.782085 3.201914,1.621869 5.729931,1.519407 5.729931,1.519407 l -0.473742,3.039547 h 2.816051 l -0.613329,-3.123083 c 0,0 1.074557,0.05781 2.202714,-0.306667 1.128164,-0.364464 3.109105,-1.256868 4.32191,-2.286622 1.2128,-1.029754 2.43821,-2.565387 2.81606,-3.708204 0.37784,-1.142818 0.27005,-1.866833 -0.0279,-2.565442 -0.2979,-0.698609 -0.79953,-1.15489 -1.42194,-1.394104 -0.62242,-0.239212 -1.20062,-0.223551 -2.007445,0.08354 -0.80681,0.307089 -1.746777,1.396672 -2.454064,2.007802 -0.707286,0.611129 -1.315235,0.849357 -2.077411,0.85588 -0.762179,0.0066 -1.41719,-0.160754 -1.881764,-0.409987 -0.929148,-0.498467 -1.838301,-2.959832 -3.06703,-4.210154 -1.151932,-1.172177 -2.157775,-1.730556 -3.446969,-1.712127 z m -0.127137,2.991185 a 1.7741396,1.7741396 0 0 1 1.774047,1.774045 1.7741396,1.7741396 0 0 1 -1.774047,1.774048 1.7741396,1.7741396 0 0 1 -1.774413,-1.774048 1.7741396,1.7741396 0 0 1 1.774413,-1.774045 z" /><path
       id="path1326"
       style="fill:none;stroke:#000000;stroke-width:2.11667;stroke-linecap:round;stroke-linejoin:round;stroke-dasharray:none;stroke-opacity:1"
       d="m 109.31032,90.138244 10.55939,0.157309 M 67.519337,95.884132 V 140.37793 M -3.3034958,89.823626 H 61.036019 c 0,0 2.372749,0.524364 4.12937,2.398967 1.756621,1.874603 2.398967,4.12937 2.398967,4.12937 0,0 0.786546,-2.50384 2.910222,-4.326007 2.123676,-1.822166 4.404661,-1.887712 4.404661,-1.887712 h 34.450741 v 18.405186 l 5.34852,-5.50582 4.87659,5.50582 V 90.295552 h 18.09057" /><path
       d="m 25.725055,60.893911 q -0.316089,0.948267 -0.903112,1.919113 -0.587023,0.970845 -1.377246,1.919113 0.903112,1.061156 2.077158,2.009424 1.196623,0.92569 2.348091,1.535291 0.293511,0.135466 0.135467,0.428978 l -0.51929,0.767645 q -0.06773,0.112889 -0.2032,0.135467 -0.135467,0 -0.248356,-0.06773 -1.151467,-0.632178 -2.348091,-1.625601 -1.174046,-0.993424 -2.190047,-2.099736 -1.286934,1.354668 -2.822225,2.483558 -1.53529,1.12889 -3.093158,1.85138 -0.112889,0.04516 -0.225778,0.09031 -0.112889,0.02258 -0.180623,-0.09031 l -0.451556,-0.790223 q -0.06773,-0.112889 -0.02258,-0.225778 0.04516,-0.135467 0.158045,-0.180622 2.66418,-1.354669 4.763916,-3.364093 2.122313,-2.009424 3.38667,-4.605871 0.158045,-0.316089 0.04516,-0.451556 -0.112889,-0.135467 -0.428979,-0.135467 h -6.615295 q -0.270934,0 -0.270934,-0.293511 v -0.790223 q 0,-0.270934 0.270934,-0.270934 h 7.224896 q 1.174046,0 1.512713,0.428978 0.338667,0.406401 -0.02258,1.422402 z m 4.944538,2.619025 v -5.712184 q 0,-0.316089 0.316089,-0.316089 h 0.92569 q 0.31609,0 0.31609,0.316089 v 14.585259 q 0,0.316089 -0.31609,0.316089 h -0.92569 q -0.316089,0 -0.316089,-0.316089 v -7.563563 h -4.267204 q -0.293511,0 -0.293511,-0.270934 v -0.767645 q 0,-0.270933 0.293511,-0.270933 z m 2.25778,14.111125 q 0,0.135467 -0.112889,0.2032 -0.112889,0.06773 -0.225778,0.06773 H 21.164339 q -1.061156,0 -1.399823,-0.406401 -0.31609,-0.383822 -0.31609,-1.309512 V 71.8893 q 0,-0.31609 0.31609,-0.31609 h 0.925689 q 0.31609,0 0.31609,0.31609 v 4.176893 q 0,0.316089 0.09031,0.383822 0.112889,0.09031 0.428978,0.09031 h 11.063122 q 0.112889,0 0.225778,0.06773 0.112889,0.09031 0.112889,0.2032 z m 15.307761,-5.508983 q -0.06773,0.112889 -0.180622,0.135466 -0.09031,0.02258 -0.270934,-0.112889 -0.541867,-0.4064 -1.151468,-0.925689 -0.6096,-0.541868 -1.196623,-1.12889 -0.587023,-0.609601 -1.151468,-1.241779 -0.564445,-0.654757 -1.038579,-1.286935 -1.12889,1.422401 -2.573869,2.731914 -1.444979,1.286934 -3.296359,2.573869 -0.112889,0.06773 -0.225778,0.112889 -0.112889,0.02258 -0.180622,-0.06773 l -0.541868,-0.699912 q -0.09031,-0.112889 -0.06773,-0.225778 0.02258,-0.135467 0.112889,-0.2032 3.612448,-2.551292 5.621872,-5.170317 2.032002,-2.619025 2.822225,-5.463828 0.09031,-0.316089 0,-0.451556 -0.06773,-0.158044 -0.383822,-0.158044 h -6.841074 q -0.270933,0 -0.270933,-0.293512 v -0.790223 q 0,-0.270933 0.316089,-0.270933 h 7.405518 q 1.174046,0 1.490135,0.4064 0.316089,0.406401 0,1.444979 -0.880534,2.889959 -2.483558,5.305784 0.51929,0.722489 1.106312,1.422401 0.587023,0.699912 1.174046,1.33209 0.587023,0.609601 1.174046,1.12889 0.587022,0.496712 1.106312,0.835379 0.112889,0.09031 0.112889,0.2032 0,0.112889 -0.06773,0.2032 z m 4.425249,5.870228 q 0,0.316089 -0.316089,0.316089 h -0.92569 q -0.316089,0 -0.316089,-0.316089 V 57.800752 q 0,-0.316089 0.316089,-0.316089 h 0.92569 q 0.316089,0 0.316089,0.316089 v 8.218319 h 3.115737 q 0.135466,0 0.225778,0.09031 0.112889,0.06773 0.112889,0.2032 v 0.767645 q 0,0.112889 -0.112889,0.2032 -0.09031,0.09031 -0.225778,0.09031 h -3.115737 z m 21.584389,-9.843921 q 0,0.316089 -0.293511,0.316089 h -6.118584 v 4.92196 h 8.873076 q 0.112889,0 0.225778,0.09031 0.112889,0.06773 0.112889,0.2032 v 0.767645 q 0,0.112889 -0.112889,0.2032 -0.112889,0.09031 -0.225778,0.09031 H 57.514622 q -0.135467,0 -0.248356,-0.09031 -0.09031,-0.09031 -0.09031,-0.2032 v -0.767645 q 0,-0.135467 0.09031,-0.2032 0.112889,-0.09031 0.248356,-0.09031 h 8.760187 v -4.92196 h -4.51556 q -0.993424,0 -1.354668,-0.316089 -0.361245,-0.338667 -0.361245,-1.286935 v -6.299206 q 0,-0.948268 0.361245,-1.264357 0.361244,-0.338667 1.354668,-0.338667 h 12.033967 q 0.293512,0 0.293512,0.293511 v 0.745068 q 0,0.316089 -0.293512,0.316089 H 62.143071 q -0.316089,0 -0.428978,0.135467 -0.112889,0.135466 -0.112889,0.474133 v 5.599295 q 0,0.316089 0.112889,0.451556 0.112889,0.135467 0.428978,0.135467 h 11.80819 q 0.293511,0 0.293511,0.293511 z m 21.652123,9.843921 q 0,0.316089 -0.316089,0.316089 h -0.92569 q -0.316089,0 -0.316089,-0.316089 V 66.199694 h -4.944538 q -0.293512,0 -0.293512,-0.270934 v -0.812801 q 0,-0.270933 0.293512,-0.270933 h 4.944538 v -7.044274 q 0,-0.316089 0.316089,-0.316089 h 0.92569 q 0.316089,0 0.316089,0.316089 z M 85.917507,58.95222 q 0,1.490135 -0.135467,2.86738 -0.112889,1.354669 -0.383822,2.619025 0.225778,0.903112 0.699912,1.919113 0.474133,0.993424 1.106312,1.986847 0.654756,0.993423 1.444979,1.941691 0.812801,0.92569 1.715913,1.670757 0.112889,0.09031 0.112889,0.225778 0.02258,0.135467 -0.04516,0.225778 l -0.564445,0.699912 q -0.2032,0.248356 -0.474133,0 -0.632179,-0.541867 -1.309513,-1.286935 -0.654756,-0.767645 -1.286935,-1.603024 -0.6096,-0.835378 -1.151467,-1.715912 -0.541868,-0.880535 -0.92569,-1.693336 -0.72249,2.05458 -1.896536,3.793071 -1.174045,1.715913 -2.799647,3.206048 -0.225778,0.180622 -0.383822,0.02258 l -0.677334,-0.699911 q -0.06773,-0.06773 -0.06773,-0.180623 0.02258,-0.112889 0.135467,-0.225778 1.377246,-1.309512 2.393247,-2.754491 1.016001,-1.44498 1.648179,-3.115737 0.654757,-1.670757 0.948268,-3.635026 0.316089,-1.964269 0.316089,-4.31236 0,-0.158044 0.06773,-0.225778 0.09031,-0.09031 0.2032,-0.09031 l 1.061156,0.04516 q 0.248356,0 0.248356,0.316089 z m 30.412313,13.840192 q 0,0.316089 -0.31609,0.316089 h -0.92569 q -0.31609,0 -0.31609,-0.316089 v -14.99166 q 0,-0.316089 0.31609,-0.316089 h 0.92569 q 0.31609,0 0.31609,0.316089 v 6.953963 h 3.11573 q 0.13547,0 0.22578,0.09031 0.11289,0.06773 0.11289,0.2032 v 0.767645 q 0,0.112889 -0.11289,0.2032 -0.0903,0.09031 -0.22578,0.09031 h -3.11573 z m -2.68676,-4.62845 q 0.2032,-0.02258 0.24835,0.04516 0.0677,0.04516 0.0903,0.158045 l 0.0903,0.767645 q 0.0226,0.135467 -0.0452,0.225778 -0.0452,0.06773 -0.24835,0.09031 -1.46756,0.180623 -3.74792,0.316089 -2.25778,0.135467 -5.08,0.135467 h -4.69619 q -0.13546,0 -0.24835,-0.09031 -0.09031,-0.09031 -0.09031,-0.2032 v -0.790223 q 0,-0.135467 0.09031,-0.2032 0.11289,-0.06773 0.24835,-0.06773 h 3.90596 0.88054 v -4.583293 q 0,-0.31609 0.31609,-0.31609 h 0.92569 q 0.31608,0 0.31608,0.31609 v 4.583293 q 2.00943,-0.04516 3.81565,-0.112889 1.80623,-0.09031 3.22863,-0.270934 z m 3.70276,9.460099 q 0,0.135467 -0.11289,0.2032 -0.11289,0.06773 -0.22578,0.06773 h -11.85334 q -1.06116,0 -1.39983,-0.406401 -0.31609,-0.4064 -0.31609,-1.33209 v -3.90596 q 0,-0.316089 0.31609,-0.316089 h 0.92569 q 0.31609,0 0.31609,0.316089 v 3.815649 q 0,0.316089 0.0903,0.383822 0.11289,0.09031 0.42898,0.09031 h 11.4921 q 0.11289,0 0.22578,0.06773 0.11289,0.09031 0.11289,0.2032 z M 101.42847,59.177998 q 0,-0.135467 0.11289,-0.2032 0.11289,-0.06773 0.22578,-0.06773 h 8.24089 q 0.54187,0 0.85796,0.112889 0.33867,0.112889 0.51929,0.338667 0.18062,0.2032 0.24835,0.541867 0.0677,0.338667 0.0903,0.812801 0.0451,1.151468 -0.11289,2.528714 -0.15805,1.377246 -0.51929,2.731914 -0.0452,0.135467 -0.13547,0.248356 -0.0677,0.112889 -0.2032,0.09031 l -0.90311,-0.06773 q -0.38382,-0.02258 -0.27094,-0.4064 0.33867,-1.12889 0.49672,-2.415825 0.15804,-1.286934 0.11288,-2.686758 -0.0226,-0.316089 -0.11288,-0.383823 -0.0903,-0.09031 -0.4064,-0.09031 h -7.90223 q -0.11289,0 -0.22578,-0.06773 -0.11289,-0.09031 -0.11289,-0.2032 z"
       id="text363"
       style="font-size:22.5778px;line-height:1.25;font-family:NanumGothic;-inkscape-font-specification:NanumGothic;stroke-width:0.264583"
       aria-label="전자도서관" /></g></svg>
