<?xml version="1.0" encoding="UTF-8" standalone="no"?>
<!-- Created with Inkscape (http://www.inkscape.org/) -->

<svg
   width="512"
   height="512"
   viewBox="0 0 135.46667 135.46667"
   version="1.1"
   id="svg5"
   inkscape:version="1.2 (dc2aedaf03, 2022-05-15)"
   sodipodi:docname="kr.co.aladin.ebook.svg"
   xml:space="preserve"
   xmlns:inkscape="http://www.inkscape.org/namespaces/inkscape"
   xmlns:sodipodi="http://sodipodi.sourceforge.net/DTD/sodipodi-0.dtd"
   xmlns="http://www.w3.org/2000/svg"
   xmlns:svg="http://www.w3.org/2000/svg"><sodipodi:namedview
     id="namedview7"
     pagecolor="#ffffff"
     bordercolor="#666666"
     borderopacity="1.0"
     inkscape:showpageshadow="2"
     inkscape:pageopacity="0.0"
     inkscape:pagecheckerboard="0"
     inkscape:deskcolor="#d1d1d1"
     inkscape:document-units="px"
     showgrid="false"
     inkscape:zoom="1.6819304"
     inkscape:cx="280.62992"
     inkscape:cy="245.55118"
     inkscape:window-width="1920"
     inkscape:window-height="1017"
     inkscape:window-x="-8"
     inkscape:window-y="-8"
     inkscape:window-maximized="1"
     inkscape:current-layer="layer1" /><defs
     id="defs2" /><g
     inkscape:label="Layer 1"
     inkscape:groupmode="layer"
     id="layer1"><path
       style="fill:none;stroke:#000000;stroke-width:2.11666672;stroke-linecap:round;stroke-linejoin:round;stroke-opacity:1;stroke-dasharray:none"
       d="m 11.798199,62.76642 7.118247,-0.03933 c 0,0 3.925261,0.0082 7.23623,0.550583 3.310968,0.542382 8.022776,1.848384 12.38811,3.500132 4.365334,1.651748 8.254086,3.559603 12.860038,6.095737 4.605951,2.536134 14.669094,9.241924 14.669094,9.241924 l -5.112554,6.449682 c 0,0 5.296081,3.709878 12.152146,3.657441 6.856065,-0.05244 13.410621,-2.556277 13.410621,-2.556277 0,0 -2.215441,-2.844676 -3.342825,-4.090041 -1.127384,-1.245366 -3.421479,-3.38215 -3.421479,-3.38215 0,0 5.073227,-3.605006 7.747486,-5.230535 2.674259,-1.62553 4.478608,-2.953001 7.629503,-4.404662 3.150896,-1.451661 5.427174,-2.543168 9.753174,-3.69677 4.32601,-1.153601 9.10619,-1.891305 11.83753,-4.404661 1.36567,-1.256678 2.66348,-1.895747 3.58053,-4.069031 0.91706,-2.173284 1.46955,-4.471907 1.25673,-6.824639 -0.10641,-1.176366 -0.84379,-3.457352 -2.02651,-5.050972 -1.18271,-1.593621 -1.76697,-2.038896 -3.5973,-3.168442 -1.83033,-1.129545 -5.34747,-2.181155 -7.82613,-2.123675 -2.47867,0.05748 -4.48152,0.814161 -6.21372,2.241658 -1.7322,1.427497 -2.666343,3.926062 -2.988883,6.056409 -0.322539,2.130347 0.265772,4.338163 1.573093,6.135065 1.30732,1.796902 3.49248,2.927365 5.82045,3.028205 1.16398,0.05042 3.06153,-0.195376 4.47144,-0.886378 1.40991,-0.691002 1.95395,-1.661402 2.4895,-2.810392 0.53555,-1.14899 0.19906,-2.516159 -0.4326,-3.618115 -0.63166,-1.101956 -2.23077,-1.964823 -3.46081,-2.123676 -1.23004,-0.158854 -2.50213,0.501271 -2.8709,1.258475 -0.36876,0.757204 -0.13991,1.371531 0.47193,1.809057 0.61184,0.437526 2.10975,-0.758883 2.89196,-0.191867 0.51421,0.372739 0.72853,1.185439 0.47152,1.846 -0.25701,0.660561 -0.93341,0.993186 -1.94769,1.138109 -1.01428,0.144923 -2.70733,-0.01484 -3.83105,-0.86043 -1.12371,-0.845591 -2.08239,-2.554904 -2.11413,-4.127395 -0.0317,-1.572492 1.28631,-3.241636 2.82325,-4.312103 1.53694,-1.070467 3.8463,-1.173822 5.79618,-0.689215 1.94988,0.484607 4.01258,1.490112 5.2516,3.414319 0.61951,0.962104 1.43029,2.487828 1.57494,4.126972 0.14464,1.639144 -0.075,2.376626 -0.65214,3.666999 -0.57715,1.290374 -1.91906,2.694544 -3.10686,3.50013 -1.1878,0.805586 -1.2852,0.824113 -5.75461,1.420557 -2.2347,0.298222 -7.67833,0.159383 -12.366652,-0.407957 -4.68832,-0.56734 -4.814416,-0.616119 -8.621327,-1.563182 C 83.57842,60.324919 73.306145,56.788668 73.306145,56.788668 v -2.595605 c 0,0 1.048729,-1.559984 1.533767,-2.438294 0.485037,-0.878311 1.376457,-2.831568 1.376457,-2.831568 0,0 -0.472314,-1.237413 -1.219148,-1.769729 -0.746833,-0.532317 -1.234769,-0.599366 -1.927039,-0.58991 -0.69227,0.0095 -1.198495,0.0234 -2.180111,0.667745 -0.981616,0.644346 -1.123384,1.613238 -1.123384,1.613238 0,0 0.601019,1.906388 1.033619,2.810917 0.4326,0.904529 1.561983,2.616256 1.561983,2.616256 v 2.674258 c 0,0 -5.505826,1.009401 -8.258738,1.691075 -2.752913,0.681674 -5.70214,1.330764 -8.258739,1.691075 -2.556599,0.360311 -4.706171,0.550583 -7.039593,0.550583 -2.333422,0 -3.514867,-0.220644 -6.960938,-0.550583 -1.723036,-0.164969 -4.833905,-0.982745 -7.828635,-1.326677 -2.994729,-0.343932 -3.367519,-0.290258 -5.873318,-0.214021 -2.505799,0.07624 -6.950359,0.360651 -9.199885,0.771894 -2.249525,0.411243 -3.115525,0.793741 -4.319341,1.308594 -1.203817,0.514853 -2.824903,1.898504 -2.824903,1.898504 z"
       id="path354"
       sodipodi:nodetypes="cczzzcczczczzzsssszzzzzszzzzzzazzzzzzsszzsszcczczzzczcczzzsszzzc" /></g></svg>
