<?xml version="1.0" encoding="UTF-8" standalone="no"?>
<!-- Created with Inkscape (http://www.inkscape.org/) -->

<svg
   width="512"
   height="512"
   viewBox="0 0 135.46666 135.46667"
   version="1.1"
   id="svg5"
   inkscape:version="1.2 (dc2aedaf03, 2022-05-15)"
   sodipodi:docname="Milie.svg"
   xml:space="preserve"
   xmlns:inkscape="http://www.inkscape.org/namespaces/inkscape"
   xmlns:sodipodi="http://sodipodi.sourceforge.net/DTD/sodipodi-0.dtd"
   xmlns="http://www.w3.org/2000/svg"
   xmlns:svg="http://www.w3.org/2000/svg"><sodipodi:namedview
     id="namedview7"
     pagecolor="#ffffff"
     bordercolor="#666666"
     borderopacity="1.0"
     inkscape:showpageshadow="2"
     inkscape:pageopacity="0.0"
     inkscape:pagecheckerboard="0"
     inkscape:deskcolor="#d1d1d1"
     inkscape:document-units="px"
     showgrid="false"
     inkscape:zoom="0.74564396"
     inkscape:cx="423.79476"
     inkscape:cy="197.14503"
     inkscape:window-width="1920"
     inkscape:window-height="1017"
     inkscape:window-x="-8"
     inkscape:window-y="-8"
     inkscape:window-maximized="1"
     inkscape:current-layer="layer1" /><defs
     id="defs2" /><g
     inkscape:label="Layer 1"
     inkscape:groupmode="layer"
     id="layer1"><path
       id="path3151"
       style="fill:none;stroke:#000000;stroke-width:2.11667;stroke-linecap:round;stroke-linejoin:round;stroke-dasharray:none;stroke-opacity:1"
       d="m 23.682332,83.632704 c 5.110659,-2.715281 4.198796,-10.912724 5.599579,-21.479302 1.35194,-10.19813 5.994824,-18.415417 12.96542,-18.508241 6.970596,-0.09282 10.533225,9.849061 12.329479,18.917549 1.843798,9.308518 1.700678,19.396307 5.620317,19.19717 2.790547,-0.324589 3.919766,-9.138187 4.799672,-18.456908 0.879905,-9.318721 5.775949,-19.393477 12.712878,-19.480392 6.936929,-0.08692 11.206986,8.694585 12.493686,18.247768 1.286699,9.553183 2.600948,19.501684 5.758983,19.741499 2.656217,-0.387457 3.988551,-7.723092 4.581574,-16.484947 0.59302,-8.761855 4.71218,-19.451747 8.80206,-19.647721 0,0 -3.75798,-9.396863 -16.370841,-17.643682 -12.612861,-8.246819 -25.241809,-7.35336 -25.241809,-7.35336 -25.985656,0 -47.051193,21.065537 -47.051193,47.051193 0,0 0.231248,5.462426 0.723888,8.104929 0.49264,2.642503 2.276307,7.794445 2.276307,7.794445 z M 67.73333,114.78452 c 25.985654,0 47.05119,-21.065536 47.05119,-47.05119 0,0 0.0336,-3.860395 -0.39314,-6.50027 -0.42675,-2.639875 -1.63508,-7.209947 -1.63508,-7.209947 -1.50745,1.928642 -3.69481,14.215603 -4.77767,21.665602 -1.18501,8.152811 -6.26224,15.176134 -12.050418,15.003014 C 88.69893,90.475507 85.92873,86.6421 83.544468,75.301261 81.641166,66.248132 81.080162,54.733461 77.960586,55.155894 74.464646,54.8256 74.852803,65.724382 72.291283,74.410979 69.63061,83.433824 70.345586,89.53698 59.903167,90.826101 53.148323,91.659989 49.00686,84.853436 47.606174,75.50327 46.205488,66.153103 44.485277,53.836375 42.048387,55.177419 c -4.130525,0.52559 -3.729641,11.950915 -5.336552,19.10352 -1.751119,7.794499 -2.630726,11.910065 -9.79883,16.538091 0,0 4.913227,10.56108 17.216614,17.74887 12.303388,7.1878 23.603711,6.21662 23.603711,6.21662 z"
       sodipodi:nodetypes="cssscssscsczcczccczcssscssscsczc" /></g></svg>
