<?xml version="1.0" encoding="UTF-8" standalone="no"?>
<!-- Created with Inkscape (http://www.inkscape.org/) -->

<svg
   width="512"
   height="512"
   viewBox="0 0 135.46667 135.46667"
   version="1.1"
   id="svg5"
   inkscape:version="1.2 (dc2aedaf03, 2022-05-15)"
   sodipodi:docname="kr_munpia_forandroid.svg"
   xml:space="preserve"
   xmlns:inkscape="http://www.inkscape.org/namespaces/inkscape"
   xmlns:sodipodi="http://sodipodi.sourceforge.net/DTD/sodipodi-0.dtd"
   xmlns="http://www.w3.org/2000/svg"
   xmlns:svg="http://www.w3.org/2000/svg"><sodipodi:namedview
     id="namedview7"
     pagecolor="#ffffff"
     bordercolor="#666666"
     borderopacity="1.0"
     inkscape:showpageshadow="2"
     inkscape:pageopacity="0.0"
     inkscape:pagecheckerboard="0"
     inkscape:deskcolor="#d1d1d1"
     inkscape:document-units="px"
     showgrid="false"
     inkscape:zoom="1.1893044"
     inkscape:cx="105.94428"
     inkscape:cy="269.06484"
     inkscape:window-width="1920"
     inkscape:window-height="1017"
     inkscape:window-x="-8"
     inkscape:window-y="-8"
     inkscape:window-maximized="1"
     inkscape:current-layer="layer1"
     showguides="true" /><defs
     id="defs2" /><g
     inkscape:label="Layer 1"
     inkscape:groupmode="layer"
     id="layer1"><path
       style="fill:none;stroke:#000000;stroke-width:2.11666672;stroke-linecap:round;stroke-linejoin:round;stroke-opacity:1;stroke-dasharray:none"
       d="M 89.16576,32.628189 C 86.042908,30.828765 83.734302,31.905341 76.301291,38.998539 68.86828,46.091737 56.48959,60.475932 46.500717,72.703899 36.511844,84.931865 24.254266,102.33523 18.090573,109.80191 c -6.163693,7.46668 -3.058812,3.80698 -7.550848,8.4947 -4.4920365,4.68772 -19.8209752,19.19174 -19.8209752,19.19174 l 15.416314,4.24735 c 0,0 13.0010342,-10.63264 17.1434422,-15.64504 4.142408,-5.01241 4.310585,-5.77224 8.82214,-12.96617 4.511555,-7.19392 14.166187,-22.006675 20.912598,-31.166332 6.746411,-9.159657 19.191737,-24.225634 19.191737,-24.225634 0,0 -10.207185,36.357388 -10.261639,39.198649 -0.05445,2.841262 0.1185,5.113417 2.319014,7.558897 2.200514,2.44547 4.371987,3.36041 7.157714,2.77581 2.785728,-0.58461 5.696488,-4.14557 8.711584,-7.10823 3.015095,-2.962658 4.682239,-5.344367 8.989669,-10.723345 4.307431,-5.378978 16.747857,-21.633985 16.747857,-21.633985 0,0 -9.24678,22.232438 -10.539729,27.529131 -1.292949,5.296689 -0.500019,9.644779 0.629238,11.798199 1.129257,2.15342 4.479331,4.12117 8.809321,3.46081 4.32999,-0.66036 9.86903,-3.38584 12.97243,-5.46766 3.1034,-2.08183 4.57971,-3.79992 6.062,-5.858616 1.48229,-2.0587 0.31266,-3.729426 -0.73768,-4.699616 -1.05034,-0.97019 -2.85314,-0.674275 -4.29622,-0.334281 -1.44308,0.339994 -4.05071,2.477621 -4.05071,2.477621 0,0 -0.26324,-1.613578 -0.23597,-2.320313 0.0273,-0.706524 1.99364,-7.116879 3.99252,-14.107653 1.99887,-6.990775 2.92865,-9.721547 3.91228,-14.050715 0.98363,-4.329167 2.16305,-8.932672 2.12367,-12.152146 -0.0394,-3.219475 -0.70806,-6.756028 -3.3035,-8.101431 -2.59543,-1.345402 -4.42266,-1.017425 -8.49469,1.691077 -4.07203,2.708502 -10.19916,9.30562 -15.494976,15.18035 -5.295816,5.87473 -15.888243,20.214248 -15.888243,20.214248 0,0 3.270945,-8.489398 5.067301,-18.104501 1.846772,-9.88496 4.155157,-19.711202 4.444324,-22.368433 0.578336,-5.314462 1.448065,-8.158779 -1.674786,-9.958202 z"
       id="path354"
       sodipodi:nodetypes="zzzzzcczzzczzzzzczzzzzzzcsszzzzzcssz" /></g></svg>
