<?xml version="1.0" encoding="UTF-8" standalone="no"?>
<!-- Created with Inkscape (http://www.inkscape.org/) -->

<svg
   width="512"
   height="512"
   viewBox="0 0 135.46667 135.46667"
   version="1.1"
   id="svg5"
   inkscape:version="1.2 (dc2aedaf03, 2022-05-15)"
   sodipodi:docname="mok_android.svg"
   xml:space="preserve"
   xmlns:inkscape="http://www.inkscape.org/namespaces/inkscape"
   xmlns:sodipodi="http://sodipodi.sourceforge.net/DTD/sodipodi-0.dtd"
   xmlns="http://www.w3.org/2000/svg"
   xmlns:svg="http://www.w3.org/2000/svg"><sodipodi:namedview
     id="namedview7"
     pagecolor="#ffffff"
     bordercolor="#666666"
     borderopacity="1.0"
     inkscape:showpageshadow="2"
     inkscape:pageopacity="0.0"
     inkscape:pagecheckerboard="0"
     inkscape:deskcolor="#d1d1d1"
     inkscape:document-units="px"
     showgrid="false"
     inkscape:zoom="0.5946522"
     inkscape:cx="31.95145"
     inkscape:cy="198.43532"
     inkscape:window-width="1920"
     inkscape:window-height="1017"
     inkscape:window-x="-8"
     inkscape:window-y="-8"
     inkscape:window-maximized="1"
     inkscape:current-layer="layer1"
     showguides="true" /><defs
     id="defs2" /><g
     inkscape:label="Layer 1"
     inkscape:groupmode="layer"
     id="layer1"><g
       aria-label="KYOBO"
       id="text356"
       style="font-size:25.4px;line-height:1.25;stroke-width:0.264583;fill:#000000;fill-opacity:1"><path
         d="m 35.838031,73.754059 h -2.813793 l -5.476259,-7.554189 -0.711344,-0.940292 0.05562,8.494481 H 24.264626 V 56.951055 h 2.627626 l -0.05562,8.297515 5.836998,-8.297515 h 2.779925 l -5.875242,7.790607 z"
         id="path412"
         sodipodi:nodetypes="ccccccccccccc"
         style="fill:#000000;stroke:#000000;stroke-opacity:1;fill-opacity:1" /><path
         d="m 53.393823,56.860063 -5.633627,9.345848 v 7.567812 h -2.455664 v -7.307362 l -5.815741,-9.606298 h 2.716114 l 4.339862,7.23745 4.232162,-7.23745 z"
         id="path414"
         style="fill:#000000;stroke:#000000;stroke-opacity:1;fill-opacity:1"
         sodipodi:nodetypes="cccccccccc" /><path
         id="path416"
         style="fill:#000000;stroke:#000000;stroke-opacity:1;fill-opacity:1"
         d="m 64.082031,56.485402 c -3.033044,0.03937 -5.4877,1.864424 -6.628001,4.752933 -1.193751,3.023901 -1.200359,4.9893 -0.11801,8.03011 1.013674,2.592919 2.927174,4.553979 5.713772,4.838193 3.109317,0.500643 6.374161,-0.517185 8.118394,-3.294152 1.904751,-2.953131 2.039357,-5.264917 1.127179,-8.570712 -0.708486,-2.567605 -2.450739,-4.774643 -5.080573,-5.417119 -1.014921,-0.289165 -2.080653,-0.377401 -3.132761,-0.339253 z m 1.892384,2.215066 c 1.076673,0.137715 1.878398,0.909738 3.214395,2.848466 0.749999,2.270245 0.653382,4.663254 0.06716,6.93085 -1.440576,2.502068 -1.608012,3.477358 -4.212968,4.078357 -2.300961,0.219236 -3.409208,-0.991694 -4.327636,-3.173965 -1.084775,-2.354371 -1.145706,-4.595558 -0.56475,-7.07112 0.301914,-1.093308 0.649315,-1.768405 1.157397,-2.325651 0.508082,-0.557246 1.315887,-1.358153 2.482991,-1.423885 0.263582,-0.0312 0.724593,-0.04965 0.987637,-0.016 0,0 0.4264,0.0093 0.625696,0.03476 0.199296,0.02549 0.570078,0.118188 0.570078,0.118188 z"
         sodipodi:nodetypes="cscccsccscccccscszs" /><path
         id="path416-7"
         style="font-size:25.4px;line-height:1.25;fill:#000000;stroke:#000000;stroke-width:0.264583;stroke-opacity:1;fill-opacity:1"
         d="m 103.13613,56.415714 c -3.03304,0.03937 -5.487698,1.864424 -6.627999,4.752933 -1.193751,3.023901 -1.200359,4.9893 -0.11801,8.03011 1.013674,2.592919 2.927174,4.553979 5.713769,4.838193 3.10932,0.500643 6.37416,-0.517185 8.1184,-3.294152 1.90475,-2.953131 2.03935,-5.264917 1.12718,-8.570712 -0.70849,-2.567605 -2.45074,-4.774643 -5.08058,-5.417119 -1.01492,-0.289165 -2.08065,-0.377401 -3.13276,-0.339253 z m 1.89239,2.215066 c 1.07667,0.137715 1.87839,0.909738 3.21439,2.848466 0.75,2.270245 0.65338,4.663254 0.0672,6.93085 -1.44057,2.502068 -1.60801,3.477358 -4.21297,4.078357 -2.30096,0.219236 -3.4092,-0.991694 -4.327633,-3.173965 -1.084775,-2.354371 -1.145706,-4.595558 -0.56475,-7.07112 0.301914,-1.093308 0.649315,-1.768405 1.157393,-2.325651 0.50809,-0.557246 1.31589,-1.358153 2.483,-1.423885 0.26358,-0.0312 0.72459,-0.04965 0.98763,-0.016 0,0 0.4264,0.0093 0.6257,0.03476 0.19929,0.02549 0.57008,0.118188 0.57008,0.118188 z"
         sodipodi:nodetypes="cscccsccscccccscszs" /><path
         d="m 90.688429,68.469024 c 0,0.842098 -0.173771,1.585572 -0.521312,2.230421 -0.347541,0.644849 -0.815066,1.175902 -1.402576,1.593157 -0.695081,0.500707 -1.460499,0.85727 -2.296252,1.069691 -0.827478,0.212421 -1.292603,0.318632 -2.575195,0.318632 l -4.705244,0 V 56.736559 l 3.625384,0 c 1.34879,0 1.768404,0.04552 2.438661,0.136556 0.670258,0.09104 1.311554,0.280699 1.923887,0.568985 0.678533,0.326218 1.170883,0.747267 1.47705,1.263147 0.306167,0.508293 0.45925,1.119003 0.45925,1.83213 0,0.804165 -0.223419,1.49074 -0.670258,2.059725 -0.446838,0.561399 -1.042622,1.012793 -1.787353,1.354184 v 0.09104 c 1.249493,0.23518 2.234192,0.73968 2.954099,1.513499 0.719906,0.766233 1.079859,1.7373 1.079859,2.913201 z m -4.133255,-7.635775 c 0,-0.409669 -0.07447,-0.754853 -0.223419,-1.035552 -0.148946,-0.280699 -0.388915,-0.508293 -0.719906,-0.682782 -0.388915,-0.204834 -0.860578,-0.33001 -1.414988,-0.375529 -0.554411,-0.05311 -0.651308,-0.07966 -1.470512,-0.07966 l -1.080888,0 v 4.89327 l 1.329132,0 c 0.769555,0 0.791979,-0.03414 1.247092,-0.102418 0.455113,-0.07587 0.877127,-0.227594 1.266042,-0.455188 0.388915,-0.227593 0.661982,-0.519672 0.819203,-0.876236 0.165496,-0.364151 0.248244,-0.792786 0.248244,-1.285905 z m 1.576347,7.726813 c 0,-0.682782 -0.11171,-1.225214 -0.335129,-1.627296 -0.223419,-0.402083 -0.628884,-0.743474 -1.216393,-1.024173 -0.39719,-0.189662 -0.881265,-0.311045 -1.452225,-0.36415 -0.562686,-0.06069 -0.659583,-0.09104 -1.470511,-0.09104 l -2.011802,0 v 6.304352 l 1.403605,0 c 1.075722,0 1.367076,-0.04931 2.053883,-0.147937 0.686808,-0.10621 1.249494,-0.295871 1.688057,-0.568984 0.463387,-0.295872 0.802653,-0.63347 1.017798,-1.012793 0.215145,-0.379323 0.322717,-0.86865 0.322717,-1.467979 z"
         id="path418"
         style="fill:#000000;stroke:#000000;stroke-width:0.253541;stroke-opacity:1;fill-opacity:1"
         sodipodi:nodetypes="ssccsccssccsccccssssccsccscscsssccsccsccss" /></g><g
       aria-label="교보문고"
       id="text1184"
       style="font-size:14.1111px;line-height:1.25;stroke-width:0.26458334;stroke-dasharray:none;stroke:none;fill:#000000;fill-opacity:1"><path
         d="m 49.535434,84.720436 c -0.04264,1.253289 -0.65965,4.095062 -0.838794,5.757893 l -0.835837,-0.367163 c 0.142397,-1.244827 0.213595,-3.367503 0.213595,-4.952246 v -2.480368 h -7.915342 v -1.426268 h 9.49436 z m -10.702472,9.054669 v -1.046774 h 2.324481 v -5.502139 h 1.604564 v 5.502139 h 1.714491 v -5.502139 h 1.558347 v 5.502139 h 4.561303 v 1.046774 z"
         style="font-weight:bold;-inkscape-font-specification:'sans-serif Bold';fill:#000000;stroke:none;stroke-opacity:1;stroke-width:0.26458334;stroke-dasharray:none;fill-opacity:1"
         id="path1236"
         sodipodi:nodetypes="sccsccccsccccccccccccc" /><path
         d="m 55.178022,88.488045 v -6.902643 h 1.598681 v 2.457308 h 5.140078 v -2.457308 h 1.348937 v 6.902643 z m 5.029993,1.608887 v 2.552744 h 5.148134 v 1.223748 H 53.180026 v -1.223748 h 5.291663 v -2.552744 z m 1.708766,-4.738039 h -5.140078 v 2.082376 h 5.140078 z"
         style="font-weight:bold;-inkscape-font-specification:'sans-serif Bold';fill:#000000;stroke:none;stroke-opacity:1;stroke-width:0.26458334;stroke-dasharray:none;fill-opacity:1"
         id="path1238"
         sodipodi:nodetypes="ccccccccccccccccccccccc" /><path
         d="m 69.151476,86.316471 v -4.740448 l 9.399279,0 v 4.740448 z m 7.814378,-3.674009 h -6.40645 l 0,2.23396 h 6.40645 z m -1.879698,6.29917 v 2.5976 H 73.35672 v -2.5976 h -5.436357 v -1.217866 l 11.743523,0 v 1.217866 z m -5.616191,5.575383 v -3.996307 h 1.362717 v 2.955415 h 7.761586 v 1.040892 z"
         style="font-weight:bold;-inkscape-font-specification:'sans-serif Bold';fill:#000000;stroke:none;stroke-opacity:1;stroke-width:0.26458334;stroke-dasharray:none;fill-opacity:1"
         id="path1240"
         sodipodi:nodetypes="cccccccccccccccccccccccccc" /><path
         d="m 92.388653,85.70218 c -0.06073,1.51922 -0.548291,3.08016 -0.754995,4.623561 l -0.957934,-0.805334 c 0.188332,-1.419378 0.143454,-2.996917 0.143454,-4.287678 V 82.67642 h -7.63041 v -1.148183 h 9.366737 z m -10.298198,8.067043 v -1.139211 h 3.956449 v -5.82651 h 1.185743 v 5.82651 h 6.503013 v 1.139211 z"
         style="font-weight:bold;-inkscape-font-specification:'sans-serif Bold';fill:#000000;stroke:none;stroke-opacity:1;stroke-width:0.26458334;stroke-dasharray:none;fill-opacity:1"
         id="path1242"
         sodipodi:nodetypes="sccsccccsccccccccc" /></g><path
       id="path1351"
       style="fill:#000000;stroke:none;stroke-width:2.11666672;stroke-linecap:butt;stroke-linejoin:miter;stroke-opacity:1;stroke-dasharray:none;fill-opacity:1"
       d="M 94.951313 27.31668 C 94.830091 27.318412 94.7073 27.323749 94.582343 27.332699 C 92.583035 27.475905 90.03453 28.606181 89.155284 30.596583 C 88.276037 32.586986 88.178717 35.534004 88.997671 37.79356 C 89.816624 40.053115 89.849734 42.250831 94.365819 44.538368 C 98.881903 46.825906 102.4475 46.681389 102.4475 46.681389 L 101.77932 50.968466 L 105.75117 50.968466 L 104.88611 46.563567 C 104.88611 46.563567 106.4017 46.645089 107.99289 46.131035 C 109.58409 45.616982 112.37807 44.358308 114.08865 42.905909 C 115.79922 41.453511 117.52757 39.287605 118.0605 37.675737 C 118.59343 36.06387 118.4414 35.042694 118.02122 34.057354 C 117.60104 33.072014 116.89353 32.428459 116.01566 32.091065 C 115.13779 31.753672 114.32227 31.775761 113.18431 32.208888 C 112.04635 32.642014 110.7206 34.178799 109.72302 35.040756 C 108.72544 35.902713 107.86797 36.238718 106.79297 36.247918 C 105.71797 36.257145 104.79412 36.021185 104.13887 35.669658 C 102.82837 34.966606 101.54607 31.495015 99.813031 29.731519 C 98.188309 28.078243 96.769634 27.290688 94.951313 27.31668 z M 94.771995 31.535544 A 2.5023043 2.5023043 0 0 1 97.274168 34.037716 A 2.5023043 2.5023043 0 0 1 94.771995 36.539889 A 2.5023043 2.5023043 0 0 1 92.269306 34.037716 A 2.5023043 2.5023043 0 0 1 94.771995 31.535544 z " /></g></svg>
