<?xml version="1.0" encoding="UTF-8" standalone="no"?>
<!-- Created with Inkscape (http://www.inkscape.org/) -->

<svg
   width="512"
   height="512"
   viewBox="0 0 135.46667 135.46667"
   version="1.1"
   id="svg5"
   inkscape:version="1.2 (dc2aedaf03, 2022-05-15)"
   sodipodi:docname="org_mozilla_firefox.svg"
   xml:space="preserve"
   inkscape:export-filename="com_android_vending.png"
   inkscape:export-xdpi="96"
   inkscape:export-ydpi="96"
   xmlns:inkscape="http://www.inkscape.org/namespaces/inkscape"
   xmlns:sodipodi="http://sodipodi.sourceforge.net/DTD/sodipodi-0.dtd"
   xmlns="http://www.w3.org/2000/svg"
   xmlns:svg="http://www.w3.org/2000/svg"><sodipodi:namedview
     id="namedview7"
     pagecolor="#ffffff"
     bordercolor="#666666"
     borderopacity="1.0"
     inkscape:showpageshadow="2"
     inkscape:pageopacity="0.0"
     inkscape:pagecheckerboard="0"
     inkscape:deskcolor="#d1d1d1"
     inkscape:document-units="px"
     showgrid="false"
     inkscape:zoom="1.1893044"
     inkscape:cx="189.60663"
     inkscape:cy="266.54236"
     inkscape:window-width="1920"
     inkscape:window-height="1017"
     inkscape:window-x="-8"
     inkscape:window-y="-8"
     inkscape:window-maximized="1"
     inkscape:current-layer="layer1" /><defs
     id="defs2"><linearGradient
       id="a"
       x1="70.79"
       x2="6.447"
       y1="12.39"
       y2="74.47"
       gradientTransform="matrix(1.1808848,0,0,1.1808848,20.479884,20.539389)"
       gradientUnits="userSpaceOnUse"><stop
         stop-color="#fff44f"
         offset=".048"
         id="stop113" /><stop
         stop-color="#ffe847"
         offset=".111"
         id="stop115" /><stop
         stop-color="#ffc830"
         offset=".225"
         id="stop117" /><stop
         stop-color="#ff980e"
         offset=".368"
         id="stop119" /><stop
         stop-color="#ff8b16"
         offset=".401"
         id="stop121" /><stop
         stop-color="#ff672a"
         offset=".462"
         id="stop123" /><stop
         stop-color="#ff3647"
         offset=".534"
         id="stop125" /><stop
         stop-color="#e31587"
         offset=".705"
         id="stop127" /></linearGradient><radialGradient
       id="b"
       cx="-7907"
       cy="-8515"
       r="80.8"
       gradientTransform="matrix(1.1808848,0,0,1.1808848,9438.3904,10086.406)"
       gradientUnits="userSpaceOnUse"><stop
         stop-color="#ffbd4f"
         offset=".129"
         id="stop130" /><stop
         stop-color="#ffac31"
         offset=".186"
         id="stop132" /><stop
         stop-color="#ff9d17"
         offset=".247"
         id="stop134" /><stop
         stop-color="#ff980e"
         offset=".283"
         id="stop136" /><stop
         stop-color="#ff563b"
         offset=".403"
         id="stop138" /><stop
         stop-color="#ff3750"
         offset=".467"
         id="stop140" /><stop
         stop-color="#f5156c"
         offset=".71"
         id="stop142" /><stop
         stop-color="#eb0878"
         offset=".782"
         id="stop144" /><stop
         stop-color="#e50080"
         offset=".86"
         id="stop146" /></radialGradient><radialGradient
       id="c"
       cx="-7937"
       cy="-8482"
       r="80.8"
       gradientTransform="matrix(1.1808848,0,0,1.1808848,9438.3904,10086.406)"
       gradientUnits="userSpaceOnUse"><stop
         stop-color="#960e18"
         offset=".3"
         id="stop149" /><stop
         stop-color="#b11927"
         stop-opacity=".74"
         offset=".351"
         id="stop151" /><stop
         stop-color="#db293d"
         stop-opacity=".343"
         offset=".435"
         id="stop153" /><stop
         stop-color="#f5334b"
         stop-opacity=".094"
         offset=".497"
         id="stop155" /><stop
         stop-color="#ff3750"
         stop-opacity="0"
         offset=".53"
         id="stop157" /></radialGradient><radialGradient
       id="d"
       cx="-7927"
       cy="-8533"
       r="58.53"
       gradientTransform="matrix(1.1808848,0,0,1.1808848,9438.3904,10086.406)"
       gradientUnits="userSpaceOnUse"><stop
         stop-color="#fff44f"
         offset=".132"
         id="stop160" /><stop
         stop-color="#ffdc3e"
         offset=".252"
         id="stop162" /><stop
         stop-color="#ff9d12"
         offset=".506"
         id="stop164" /><stop
         stop-color="#ff980e"
         offset=".526"
         id="stop166" /></radialGradient><radialGradient
       id="e"
       cx="-7946"
       cy="-8461"
       r="38.47"
       gradientTransform="translate(7974,8524)"
       gradientUnits="userSpaceOnUse"><stop
         stop-color="#3a8ee6"
         offset=".353"
         id="stop169" /><stop
         stop-color="#5c79f0"
         offset=".472"
         id="stop171" /><stop
         stop-color="#9059ff"
         offset=".669"
         id="stop173" /><stop
         stop-color="#c139e6"
         offset="1"
         id="stop175" /></radialGradient><radialGradient
       id="f"
       cx="-7936"
       cy="-8492"
       r="20.4"
       gradientTransform="matrix(0.972,-0.235,0.275,1.138,10090,7834)"
       gradientUnits="userSpaceOnUse"><stop
         stop-color="#9059ff"
         stop-opacity="0"
         offset=".206"
         id="stop178" /><stop
         stop-color="#8c4ff3"
         stop-opacity=".064"
         offset=".278"
         id="stop180" /><stop
         stop-color="#7716a8"
         stop-opacity=".45"
         offset=".747"
         id="stop182" /><stop
         stop-color="#6e008b"
         stop-opacity=".6"
         offset=".975"
         id="stop184" /></radialGradient><radialGradient
       id="g"
       cx="-7938"
       cy="-8518"
       r="27.68"
       gradientTransform="matrix(1.1808848,0,0,1.1808848,9438.3904,10086.406)"
       gradientUnits="userSpaceOnUse"><stop
         stop-color="#ffe226"
         offset="0"
         id="stop187" /><stop
         stop-color="#ffdb27"
         offset=".121"
         id="stop189" /><stop
         stop-color="#ffc82a"
         offset=".295"
         id="stop191" /><stop
         stop-color="#ffa930"
         offset=".502"
         id="stop193" /><stop
         stop-color="#ff7e37"
         offset=".732"
         id="stop195" /><stop
         stop-color="#ff7139"
         offset=".792"
         id="stop197" /></radialGradient><radialGradient
       id="h"
       cx="-7916"
       cy="-8536"
       r="118.1"
       gradientTransform="matrix(1.1808848,0,0,1.1808848,9438.3904,10086.406)"
       gradientUnits="userSpaceOnUse"><stop
         stop-color="#fff44f"
         offset=".113"
         id="stop200" /><stop
         stop-color="#ff980e"
         offset=".456"
         id="stop202" /><stop
         stop-color="#ff5634"
         offset=".622"
         id="stop204" /><stop
         stop-color="#ff3647"
         offset=".716"
         id="stop206" /><stop
         stop-color="#e31587"
         offset=".904"
         id="stop208" /></radialGradient><radialGradient
       id="i"
       cx="-7927"
       cy="-8523"
       r="86.5"
       gradientTransform="matrix(0.1239929,1.1749804,-0.77111777,0.08148105,-5510.4303,10022.638)"
       gradientUnits="userSpaceOnUse"><stop
         stop-color="#fff44f"
         offset="0"
         id="stop211" /><stop
         stop-color="#ffe847"
         offset=".06"
         id="stop213" /><stop
         stop-color="#ffc830"
         offset=".168"
         id="stop215" /><stop
         stop-color="#ff980e"
         offset=".304"
         id="stop217" /><stop
         stop-color="#ff8b16"
         offset=".356"
         id="stop219" /><stop
         stop-color="#ff672a"
         offset=".455"
         id="stop221" /><stop
         stop-color="#ff3647"
         offset=".57"
         id="stop223" /><stop
         stop-color="#e31587"
         offset=".737"
         id="stop225" /></radialGradient><radialGradient
       id="j"
       cx="-7938"
       cy="-8508"
       r="73.72"
       gradientTransform="matrix(1.1808848,0,0,1.1808848,9438.3904,10086.406)"
       gradientUnits="userSpaceOnUse"><stop
         stop-color="#fff44f"
         offset=".137"
         id="stop228" /><stop
         stop-color="#ff980e"
         offset=".48"
         id="stop230" /><stop
         stop-color="#ff5634"
         offset=".592"
         id="stop232" /><stop
         stop-color="#ff3647"
         offset=".655"
         id="stop234" /><stop
         stop-color="#e31587"
         offset=".904"
         id="stop236" /></radialGradient><radialGradient
       id="k"
       cx="-7919"
       cy="-8504"
       r="80.69"
       gradientTransform="matrix(1.1808848,0,0,1.1808848,9438.3904,10086.406)"
       gradientUnits="userSpaceOnUse"><stop
         stop-color="#fff44f"
         offset=".094"
         id="stop239" /><stop
         stop-color="#ffe141"
         offset=".231"
         id="stop241" /><stop
         stop-color="#ffaf1e"
         offset=".509"
         id="stop243" /><stop
         stop-color="#ff980e"
         offset=".626"
         id="stop245" /></radialGradient><linearGradient
       id="l"
       x1="70.01"
       x2="15.27"
       y1="12.06"
       y2="66.81"
       gradientTransform="matrix(1.1808848,0,0,1.1808848,20.479884,20.539389)"
       gradientUnits="userSpaceOnUse"><stop
         stop-color="#fff44f"
         stop-opacity=".8"
         offset=".167"
         id="stop248" /><stop
         stop-color="#fff44f"
         stop-opacity=".634"
         offset=".266"
         id="stop250" /><stop
         stop-color="#fff44f"
         stop-opacity=".217"
         offset=".489"
         id="stop252" /><stop
         stop-color="#fff44f"
         stop-opacity="0"
         offset=".6"
         id="stop254" /></linearGradient></defs><g
     inkscape:label="Layer 1"
     inkscape:groupmode="layer"
     id="layer1"><path
       d="m 87.884788,57.600379 c 0.09919,0.06967 0.191303,0.139344 0.284593,0.209017 A 24.916669,24.916669 0 0 0 83.918196,52.265141 C 69.688534,38.03548 80.190143,21.420431 81.960289,20.570193 l 0.01771,-0.02598 c -11.495913,6.731043 -15.398737,19.189378 -15.753003,25.42445 0.53376,-0.03661 1.062796,-0.08148 1.608365,-0.08148 a 23.098107,23.098107 0 0 1 20.051424,11.710834 z"
       style="fill:none;stroke-width:2.11666672;stroke:#000000;stroke-opacity:1;stroke-dasharray:none;stroke-linejoin:round;stroke-linecap:round"
       id="path265" /><path
       d="m 51.489919,49.310568 c 0.370797,0.236177 0.676647,0.441651 0.944707,0.62705 A 21.2205,21.2205 0 0 1 52.30591,38.751096 33.891394,33.891394 0 0 0 41.289436,47.265275 c 0.223187,-0.0059 6.862121,-0.125174 10.200483,2.045293 z"
       style="fill:none;stroke-width:2.11666672;stroke:#000000;stroke-opacity:1;stroke-dasharray:none;stroke-linejoin:round;stroke-linecap:round"
       id="path271" /><path
       d="m 83.917015,52.26278 a 24.916669,24.916669 0 0 1 4.251185,5.550158 c 0.251529,0.190123 0.486525,0.379064 0.686095,0.562101 10.376434,9.565167 4.939641,23.086298 4.534597,24.042815 C 101.81805,75.47307 107.20524,65.200554 105.58743,54.596208 100.41043,41.689137 91.629374,36.481435 84.473212,25.15675 84.11068,24.584021 83.748149,24.010111 83.395064,23.404317 83.193133,23.058318 83.031352,22.746564 82.890826,22.459609 a 8.3287805,8.3287805 0 0 1 -0.682551,-1.812658 0.11808848,0.11808848 0 0 0 -0.103918,-0.118089 0.1629621,0.1629621 0 0 0 -0.0862,0 c -0.0059,0 -0.01535,0.01063 -0.02244,0.01299 -0.0071,0.0024 -0.02244,0.01299 -0.03307,0.01771 -1.770146,0.839609 -12.269393,17.465286 1.960269,31.683139 z"
       style="fill:none;stroke-width:2.11666672;stroke:#000000;stroke-opacity:1;stroke-dasharray:none;stroke-linejoin:round;stroke-linecap:round"
       id="path275" /><path
       d="M 88.853114,58.379763 C 88.653544,58.196726 88.418548,58.007784 88.16702,57.817662 88.07373,57.74799 87.981621,57.678317 87.882426,57.608645 A 15.800239,15.800239 0 0 0 76.847058,54.929218 C 93.308592,63.159985 88.892083,91.50122 66.078569,90.438424 A 20.358454,20.358454 0 0 1 60.123367,89.289423 Q 59.451444,89.037894 58.77952,88.73913 c -0.258613,-0.118088 -0.517227,-0.236177 -0.772298,-0.368436 l 0.03188,0.02008 c 3.181303,2.171647 18.894157,7.477363 35.320264,-5.904424 l 0.02598,-0.05904 c 0.409767,-0.956517 5.84656,-14.477648 -4.534598,-24.042814 z"
       style="fill:none;stroke-width:2.11666672;stroke:#000000;stroke-opacity:1;stroke-dasharray:none;stroke-linejoin:round;stroke-linecap:round"
       id="path277" /><path
       d="m 47.226924,73.377 c 0,0 2.112603,-7.872959 15.127135,-7.872959 1.406434,0 5.43207,-3.926442 5.504104,-5.064815 a 22.791077,22.791077 0 0 1 -17.181874,-0.675466 17.264536,17.264536 0 0 0 -16.827608,0.675466 11.753346,11.753346 0 0 0 10.841703,6.81961 c -0.847875,7.483267 3.108089,16.201739 12.682703,20.783572 0.21374,0.102737 0.41449,0.21374 0.634135,0.311754 C 52.418094,85.466899 47.803196,80.006487 47.226924,73.380543 Z"
       style="fill:none;stroke-width:2.11666672;stroke:#000000;stroke-opacity:1;stroke-dasharray:none;stroke-linejoin:round;stroke-linecap:round"
       id="path279" /><path
       d="m 110.13266,52.227353 c -1.98861,-4.784945 -6.02251,-9.951316 -9.18138,-11.58448 a 47.554231,47.554231 0 0 1 4.63497,13.887206 l 0.008,0.07676 C 100.41988,41.711574 91.648268,36.503872 84.480297,25.179187 84.117766,24.606458 83.755234,24.032548 83.402149,23.426754 83.200218,23.080755 83.038437,22.769001 82.897912,22.482046 a 8.3287805,8.3287805 0 0 1 -0.682552,-1.812658 0.11808848,0.11808848 0 0 0 -0.103918,-0.118089 0.1629621,0.1629621 0 0 0 -0.0862,0 c -0.0059,0 -0.01535,0.01063 -0.02244,0.01299 -0.0071,0.0024 -0.02244,0.01299 -0.03307,0.01771 l 0.01771,-0.0307 c -11.495913,6.731044 -15.398737,19.189378 -15.753003,25.42445 0.53376,-0.03661 1.062797,-0.08148 1.608365,-0.08148 A 23.098107,23.098107 0 0 1 87.894235,57.605103 15.800239,15.800239 0 0 0 76.858867,54.925675 C 93.320401,63.156442 88.903892,91.497677 66.090378,90.434881 A 20.358454,20.358454 0 0 1 60.135176,89.28588 q -0.671923,-0.251528 -1.343847,-0.550292 c -0.258613,-0.118089 -0.517227,-0.236177 -0.772298,-0.368436 l 0.03188,0.02007 q -0.33301,-0.15942 -0.666019,-0.331829 c 0.21374,0.102737 0.41449,0.21374 0.634135,0.311754 -5.589128,-2.888445 -10.204026,-8.348856 -10.780298,-14.97362 0,0 2.112603,-7.872959 15.127135,-7.872959 1.406433,0 5.43207,-3.926442 5.504104,-5.064815 C 67.852258,60.08378 59.88719,56.913104 56.781463,53.854612 55.12232,52.219087 54.33467,51.431437 53.636767,50.839814 a 13.686455,13.686455 0 0 0 -1.180885,-0.895111 21.2205,21.2205 0 0 1 -0.128716,-11.186522 33.891394,33.891394 0 0 0 -11.016474,8.51418 h -0.02126 c -1.813835,-2.299183 -1.6863,-9.880464 -1.582382,-11.46403 a 8.1811699,8.1811699 0 0 0 -1.528065,0.811268 33.324569,33.324569 0 0 0 -4.473191,3.831971 39.961142,39.961142 0 0 0 -4.278346,5.133306 v 0.0071 -0.0083 a 38.65036,38.65036 0 0 0 -6.140601,13.863588 l -0.06141,0.302306 c -0.0862,0.402682 -0.472354,2.447975 -0.527856,2.887264 v 0 a 53.246096,53.246096 0 0 0 -0.675466,6.38032 v 0.236177 A 45.771095,45.771095 0 0 0 112.8912,76.99285 c 0.0768,-0.590442 0.13935,-1.17498 0.20784,-1.771327 A 47.070068,47.070068 0 0 0 110.1303,52.229715 Z m -4.5405,2.351142 0.008,0.04842 z"
       style="fill:none;stroke-width:2.11666672;stroke:#000000;stroke-opacity:1;stroke-dasharray:none;stroke-linejoin:round;stroke-linecap:round"
       id="path281" /></g></svg>
