<?xml version="1.0" encoding="UTF-8" standalone="no"?>
<!-- Created with Inkscape (http://www.inkscape.org/) -->

<svg
   width="512"
   height="512"
   viewBox="0 0 135.46667 135.46667"
   version="1.1"
   id="svg5"
   inkscape:version="1.2.2 (732a01da63, 2022-12-09)"
   sodipodi:docname="org_localsend_localsend_app.svg"
   xml:space="preserve"
   inkscape:export-filename="com_android_vending.png"
   inkscape:export-xdpi="96"
   inkscape:export-ydpi="96"
   xmlns:inkscape="http://www.inkscape.org/namespaces/inkscape"
   xmlns:sodipodi="http://sodipodi.sourceforge.net/DTD/sodipodi-0.dtd"
   xmlns="http://www.w3.org/2000/svg"
   xmlns:svg="http://www.w3.org/2000/svg"><sodipodi:namedview
     id="namedview7"
     pagecolor="#ffffff"
     bordercolor="#666666"
     borderopacity="1.0"
     inkscape:showpageshadow="2"
     inkscape:pageopacity="0.0"
     inkscape:pagecheckerboard="0"
     inkscape:deskcolor="#d1d1d1"
     inkscape:document-units="px"
     showgrid="false"
     inkscape:zoom="0.84096521"
     inkscape:cx="-14.863873"
     inkscape:cy="315.11411"
     inkscape:window-width="1920"
     inkscape:window-height="1009"
     inkscape:window-x="-8"
     inkscape:window-y="-8"
     inkscape:window-maximized="1"
     inkscape:current-layer="layer1" /><defs
     id="defs2"><inkscape:path-effect
       effect="mirror_symmetry"
       start_point="67.733335,16.128999"
       end_point="67.733335,24.24237"
       center_point="67.733335,20.185685"
       id="path-effect642"
       is_visible="true"
       lpeversion="1.2"
       lpesatellites=""
       mode="free"
       discard_orig_path="false"
       fuse_paths="true"
       oposite_fuse="false"
       split_items="false"
       split_open="false"
       link_styles="false" /><linearGradient
       id="a"
       x1="70.79"
       x2="6.447"
       y1="12.39"
       y2="74.47"
       gradientTransform="matrix(1.1808848,0,0,1.1808848,20.479884,20.539389)"
       gradientUnits="userSpaceOnUse"><stop
         stop-color="#fff44f"
         offset=".048"
         id="stop113" /><stop
         stop-color="#ffe847"
         offset=".111"
         id="stop115" /><stop
         stop-color="#ffc830"
         offset=".225"
         id="stop117" /><stop
         stop-color="#ff980e"
         offset=".368"
         id="stop119" /><stop
         stop-color="#ff8b16"
         offset=".401"
         id="stop121" /><stop
         stop-color="#ff672a"
         offset=".462"
         id="stop123" /><stop
         stop-color="#ff3647"
         offset=".534"
         id="stop125" /><stop
         stop-color="#e31587"
         offset=".705"
         id="stop127" /></linearGradient><radialGradient
       id="b"
       cx="-7907"
       cy="-8515"
       r="80.8"
       gradientTransform="matrix(1.1808848,0,0,1.1808848,9438.3904,10086.406)"
       gradientUnits="userSpaceOnUse"><stop
         stop-color="#ffbd4f"
         offset=".129"
         id="stop130" /><stop
         stop-color="#ffac31"
         offset=".186"
         id="stop132" /><stop
         stop-color="#ff9d17"
         offset=".247"
         id="stop134" /><stop
         stop-color="#ff980e"
         offset=".283"
         id="stop136" /><stop
         stop-color="#ff563b"
         offset=".403"
         id="stop138" /><stop
         stop-color="#ff3750"
         offset=".467"
         id="stop140" /><stop
         stop-color="#f5156c"
         offset=".71"
         id="stop142" /><stop
         stop-color="#eb0878"
         offset=".782"
         id="stop144" /><stop
         stop-color="#e50080"
         offset=".86"
         id="stop146" /></radialGradient><radialGradient
       id="c"
       cx="-7937"
       cy="-8482"
       r="80.8"
       gradientTransform="matrix(1.1808848,0,0,1.1808848,9438.3904,10086.406)"
       gradientUnits="userSpaceOnUse"><stop
         stop-color="#960e18"
         offset=".3"
         id="stop149" /><stop
         stop-color="#b11927"
         stop-opacity=".74"
         offset=".351"
         id="stop151" /><stop
         stop-color="#db293d"
         stop-opacity=".343"
         offset=".435"
         id="stop153" /><stop
         stop-color="#f5334b"
         stop-opacity=".094"
         offset=".497"
         id="stop155" /><stop
         stop-color="#ff3750"
         stop-opacity="0"
         offset=".53"
         id="stop157" /></radialGradient><radialGradient
       id="d"
       cx="-7927"
       cy="-8533"
       r="58.53"
       gradientTransform="matrix(1.1808848,0,0,1.1808848,9438.3904,10086.406)"
       gradientUnits="userSpaceOnUse"><stop
         stop-color="#fff44f"
         offset=".132"
         id="stop160" /><stop
         stop-color="#ffdc3e"
         offset=".252"
         id="stop162" /><stop
         stop-color="#ff9d12"
         offset=".506"
         id="stop164" /><stop
         stop-color="#ff980e"
         offset=".526"
         id="stop166" /></radialGradient><radialGradient
       id="e"
       cx="-7946"
       cy="-8461"
       r="38.47"
       gradientTransform="translate(7974,8524)"
       gradientUnits="userSpaceOnUse"><stop
         stop-color="#3a8ee6"
         offset=".353"
         id="stop169" /><stop
         stop-color="#5c79f0"
         offset=".472"
         id="stop171" /><stop
         stop-color="#9059ff"
         offset=".669"
         id="stop173" /><stop
         stop-color="#c139e6"
         offset="1"
         id="stop175" /></radialGradient><radialGradient
       id="f"
       cx="-7936"
       cy="-8492"
       r="20.4"
       gradientTransform="matrix(0.972,-0.235,0.275,1.138,10090,7834)"
       gradientUnits="userSpaceOnUse"><stop
         stop-color="#9059ff"
         stop-opacity="0"
         offset=".206"
         id="stop178" /><stop
         stop-color="#8c4ff3"
         stop-opacity=".064"
         offset=".278"
         id="stop180" /><stop
         stop-color="#7716a8"
         stop-opacity=".45"
         offset=".747"
         id="stop182" /><stop
         stop-color="#6e008b"
         stop-opacity=".6"
         offset=".975"
         id="stop184" /></radialGradient><radialGradient
       id="g"
       cx="-7938"
       cy="-8518"
       r="27.68"
       gradientTransform="matrix(1.1808848,0,0,1.1808848,9438.3904,10086.406)"
       gradientUnits="userSpaceOnUse"><stop
         stop-color="#ffe226"
         offset="0"
         id="stop187" /><stop
         stop-color="#ffdb27"
         offset=".121"
         id="stop189" /><stop
         stop-color="#ffc82a"
         offset=".295"
         id="stop191" /><stop
         stop-color="#ffa930"
         offset=".502"
         id="stop193" /><stop
         stop-color="#ff7e37"
         offset=".732"
         id="stop195" /><stop
         stop-color="#ff7139"
         offset=".792"
         id="stop197" /></radialGradient><radialGradient
       id="h"
       cx="-7916"
       cy="-8536"
       r="118.1"
       gradientTransform="matrix(1.1808848,0,0,1.1808848,9438.3904,10086.406)"
       gradientUnits="userSpaceOnUse"><stop
         stop-color="#fff44f"
         offset=".113"
         id="stop200" /><stop
         stop-color="#ff980e"
         offset=".456"
         id="stop202" /><stop
         stop-color="#ff5634"
         offset=".622"
         id="stop204" /><stop
         stop-color="#ff3647"
         offset=".716"
         id="stop206" /><stop
         stop-color="#e31587"
         offset=".904"
         id="stop208" /></radialGradient><radialGradient
       id="i"
       cx="-7927"
       cy="-8523"
       r="86.5"
       gradientTransform="matrix(0.1239929,1.1749804,-0.77111777,0.08148105,-5510.4303,10022.638)"
       gradientUnits="userSpaceOnUse"><stop
         stop-color="#fff44f"
         offset="0"
         id="stop211" /><stop
         stop-color="#ffe847"
         offset=".06"
         id="stop213" /><stop
         stop-color="#ffc830"
         offset=".168"
         id="stop215" /><stop
         stop-color="#ff980e"
         offset=".304"
         id="stop217" /><stop
         stop-color="#ff8b16"
         offset=".356"
         id="stop219" /><stop
         stop-color="#ff672a"
         offset=".455"
         id="stop221" /><stop
         stop-color="#ff3647"
         offset=".57"
         id="stop223" /><stop
         stop-color="#e31587"
         offset=".737"
         id="stop225" /></radialGradient><radialGradient
       id="j"
       cx="-7938"
       cy="-8508"
       r="73.72"
       gradientTransform="matrix(1.1808848,0,0,1.1808848,9438.3904,10086.406)"
       gradientUnits="userSpaceOnUse"><stop
         stop-color="#fff44f"
         offset=".137"
         id="stop228" /><stop
         stop-color="#ff980e"
         offset=".48"
         id="stop230" /><stop
         stop-color="#ff5634"
         offset=".592"
         id="stop232" /><stop
         stop-color="#ff3647"
         offset=".655"
         id="stop234" /><stop
         stop-color="#e31587"
         offset=".904"
         id="stop236" /></radialGradient><radialGradient
       id="k"
       cx="-7919"
       cy="-8504"
       r="80.69"
       gradientTransform="matrix(1.1808848,0,0,1.1808848,9438.3904,10086.406)"
       gradientUnits="userSpaceOnUse"><stop
         stop-color="#fff44f"
         offset=".094"
         id="stop239" /><stop
         stop-color="#ffe141"
         offset=".231"
         id="stop241" /><stop
         stop-color="#ffaf1e"
         offset=".509"
         id="stop243" /><stop
         stop-color="#ff980e"
         offset=".626"
         id="stop245" /></radialGradient><linearGradient
       id="l"
       x1="70.01"
       x2="15.27"
       y1="12.06"
       y2="66.81"
       gradientTransform="matrix(1.1808848,0,0,1.1808848,20.479884,20.539389)"
       gradientUnits="userSpaceOnUse"><stop
         stop-color="#fff44f"
         stop-opacity=".8"
         offset=".167"
         id="stop248" /><stop
         stop-color="#fff44f"
         stop-opacity=".634"
         offset=".266"
         id="stop250" /><stop
         stop-color="#fff44f"
         stop-opacity=".217"
         offset=".489"
         id="stop252" /><stop
         stop-color="#fff44f"
         stop-opacity="0"
         offset=".6"
         id="stop254" /></linearGradient></defs><g
     inkscape:label="Layer 1"
     inkscape:groupmode="layer"
     id="layer1"><path
       id="path487"
       style="fill:none;stroke:#000000;stroke-width:2.11667;stroke-linecap:round;stroke-linejoin:round"
       d="M 94.994259,67.733337 A 27.260921,27.260921 0 0 1 67.733337,94.994259 27.260921,27.260921 0 0 1 40.472416,67.733337 27.260921,27.260921 0 0 1 67.733337,40.472416 27.260921,27.260921 0 0 1 94.994259,67.733337 Z" /><path
       id="path544"
       style="fill:none;stroke:#000000;stroke-width:2.11667;stroke-linecap:round;stroke-linejoin:round"
       d="M 67.732301 16.128732 C 67.224343 16.128732 67.343385 16.139977 67.732818 16.161288 C 68.12174 16.139989 68.240135 16.128732 67.732301 16.128732 z M 67.732818 16.161288 C 66.780123 16.21346 63.691648 16.350851 60.474863 16.712675 C 55.944777 17.222228 53.058778 18.242298 53.058778 18.242298 C 53.058778 18.242298 54.413364 20.124242 55.877211 21.556824 C 57.341056 22.989409 59.245998 24.241932 59.245998 24.241932 C 59.245998 24.241932 61.180148 24.110416 63.35169 23.941175 C 65.355176 23.785034 66.534132 23.624175 67.732301 23.642485 C 68.930472 23.660795 70.111495 23.785034 72.11498 23.941175 C 74.286523 24.110416 76.220672 24.241932 76.220672 24.241932 C 76.220672 24.241932 78.126129 22.989409 79.589976 21.556824 C 81.053821 20.124242 82.408409 18.242298 82.408409 18.242298 C 82.408409 18.242298 79.52241 17.222228 74.992324 16.712675 C 71.775862 16.350884 68.686439 16.213472 67.732818 16.161288 z M 18.242298 53.058261 C 18.242298 53.058261 17.222225 55.943743 16.712675 60.47383 C 16.350816 63.690615 16.213448 66.779606 16.161288 67.732301 C 16.213488 68.685923 16.350876 71.775345 16.712675 74.991807 C 17.222225 79.521893 18.242298 82.407375 18.242298 82.407375 C 18.242298 82.407375 20.124256 81.053305 21.556824 79.589459 C 22.989413 78.125613 24.241932 76.220156 24.241932 76.220156 C 24.241932 76.220156 24.110415 74.286006 23.941175 72.114463 C 23.785045 70.110978 23.660785 68.929956 23.642485 67.731785 C 23.624185 66.533615 23.785045 65.354659 23.941175 63.351173 C 24.110415 61.179632 24.241932 59.245481 24.241932 59.245481 C 24.241932 59.245481 22.989413 57.340024 21.556824 55.876177 C 20.124256 54.412332 18.242298 53.058261 18.242298 53.058261 z M 16.161288 67.732301 C 16.139988 67.342868 16.128732 67.223826 16.128732 67.731785 C 16.128732 68.239618 16.139988 68.121223 16.161288 67.732301 z M 117.22437 53.058261 C 117.22437 53.058261 115.34242 54.412848 113.90985 55.876694 C 112.47726 57.34054 111.22474 59.245481 111.22474 59.245481 C 111.22474 59.245481 111.35626 61.179632 111.5255 63.351173 C 111.68163 65.354659 111.84249 66.533615 111.82418 67.731785 C 111.80588 68.929956 111.68163 70.110978 111.5255 72.114463 C 111.35626 74.286006 111.22474 76.220156 111.22474 76.220156 C 111.22474 76.220156 112.47726 78.125613 113.90985 79.589459 C 115.34242 81.053305 117.22437 82.407892 117.22437 82.407892 C 117.22437 82.407892 118.24445 79.521893 118.75399 74.991807 C 119.11578 71.775345 119.25319 68.685923 119.30538 67.732301 C 119.25318 66.779606 119.11581 63.691131 118.75399 60.474346 C 118.24445 55.94426 117.22437 53.058261 117.22437 53.058261 z M 119.30538 67.732301 C 119.32668 68.121223 119.33794 68.239618 119.33794 67.731785 C 119.33794 67.223826 119.32678 67.342868 119.30538 67.732301 z M 59.245998 111.22474 C 59.245998 111.22474 57.340541 112.47726 55.876694 113.90985 C 54.412849 115.34241 53.058778 117.22437 53.058778 117.22437 C 53.058778 117.22437 55.94426 118.24445 60.474346 118.75399 C 63.691132 119.11585 66.780123 119.25322 67.732818 119.30538 C 68.686439 119.2532 71.775862 119.11579 74.992324 118.75399 C 79.52241 118.24445 82.407892 117.22437 82.407892 117.22437 C 82.407892 117.22437 81.053821 115.34241 79.589976 113.90985 C 78.126129 112.47726 76.220672 111.22474 76.220672 111.22474 C 76.220672 111.22474 74.286523 111.35626 72.11498 111.5255 C 70.111495 111.68162 68.930472 111.80588 67.732301 111.82418 C 66.534132 111.84249 65.355176 111.68162 63.35169 111.5255 C 61.180148 111.35626 59.245998 111.22474 59.245998 111.22474 z M 67.732818 119.30538 C 67.343385 119.32669 67.224343 119.33794 67.732301 119.33794 C 68.240135 119.33794 68.12174 119.32668 67.732818 119.30538 z " /><path
       id="path708"
       style="fill:none;stroke:#000000;stroke-width:2.11667;stroke-linecap:round;stroke-linejoin:round"
       d="m 104.22257,31.242639 c -0.35918,-0.359181 -0.28296,-0.267054 -0.0227,0.02339 0.29007,0.259949 0.38175,0.335707 0.0227,-0.02339 z m -0.0227,0.02339 c -0.71054,-0.636766 -2.99158,-2.723498 -5.522034,-4.74226 -3.563563,-2.842946 -6.325571,-4.162357 -6.325571,-4.162357 0,0 -0.372898,2.288572 -0.350791,4.336657 0.0221,2.048085 0.483434,4.28075 0.483434,4.28075 0,0 1.460647,1.274655 3.11583,2.690495 1.527087,1.306271 2.47448,2.026174 3.308766,2.886354 0.834288,0.860182 1.581546,1.783142 2.887816,3.310228 1.41584,1.655184 2.6905,3.11583 2.6905,3.11583 0,0 2.23302,0.461694 4.28111,0.4838 2.04808,0.02211 4.33666,-0.350791 4.33666,-0.350791 0,0 -1.31941,-2.762008 -4.16236,-6.325571 -2.01856,-2.530207 -4.10594,-4.811924 -4.74336,-5.523135 z M 43.114732,22.361042 c 0,0 -2.761644,1.319044 -6.325205,4.161993 -2.530484,2.018737 -4.811864,4.10585 -5.522404,4.742624 -0.637402,0.711224 -2.724805,2.992923 -4.743356,5.523136 -2.842949,3.56356 -4.161992,6.325205 -4.161992,6.325205 0,0 2.288217,0.373273 4.336291,0.351156 2.048089,-0.0221 4.281115,-0.483799 4.281115,-0.483799 0,0 1.274654,-1.460647 2.690496,-3.11583 1.306278,-1.527079 2.053521,-2.450053 2.887816,-3.310227 0.834294,-0.860175 1.781687,-1.580077 3.308766,-2.886355 1.655182,-1.415841 3.11583,-2.690496 3.11583,-2.690496 0,0 0.461697,-2.233026 0.4838,-4.281115 0.02212,-2.048074 -0.351157,-4.336292 -0.351157,-4.336292 z m -11.847609,8.904617 c 0.260309,-0.290432 0.336526,-0.382566 -0.02266,-0.02339 -0.359092,0.359092 -0.267415,0.283333 0.02266,0.02339 z m 81.838507,61.086278 c 0,0 -2.28858,-0.372902 -4.33666,-0.350787 -2.04809,0.0221 -4.28075,0.483433 -4.28075,0.483433 0,0 -1.27465,1.46065 -2.69049,3.115832 -1.30628,1.527079 -2.026181,2.474472 -2.886362,3.308759 -0.860175,0.834295 -1.783142,1.581546 -3.31022,2.887826 -1.655184,1.41584 -3.115833,2.69049 -3.115833,2.69049 0,0 -0.461696,2.23303 -0.483798,4.28112 -0.02212,2.04807 0.350787,4.33665 0.350787,4.33665 0,0 2.762015,-1.3194 6.325568,-4.16236 2.530208,-2.01856 4.811918,-4.10595 5.523138,-4.74335 0.63675,-0.71057 2.72349,-2.99159 4.74226,-5.522045 2.84295,-3.563553 4.16236,-6.325568 4.16236,-6.325568 z m -8.90462,11.847613 c -0.25995,0.29007 -0.3357,0.38175 0.0234,0.0226 0.35918,-0.35918 0.26711,-0.28289 -0.0234,-0.0226 z M 30.978815,92.484948 c 0,0 -2.233027,-0.461696 -4.281117,-0.483798 -2.048068,-0.02212 -4.336287,0.351152 -4.336287,0.351152 0,0 1.319038,2.76165 4.161994,6.325203 2.018737,2.530485 4.105848,4.811865 4.742623,5.522405 0.711208,0.63742 2.992924,2.72481 5.523137,4.74336 3.563554,2.84295 6.325203,4.16199 6.325203,4.16199 0,0 0.373274,-2.28822 0.351152,-4.33629 -0.0221,-2.04809 -0.483798,-4.28111 -0.483798,-4.28111 0,0 -1.460648,-1.27466 -3.115832,-2.6905 -1.527071,-1.30628 -2.450046,-2.053526 -3.310221,-2.887821 -0.86018,-0.834286 -1.580076,-1.781686 -2.886361,-3.308758 -1.415841,-1.655183 -2.690493,-3.115833 -2.690493,-3.115833 z m 0.287213,11.714962 c -0.290439,-0.2603 -0.38257,-0.33652 -0.02339,0.0227 0.359093,0.35909 0.283337,0.26741 0.02339,-0.0227 z" /></g></svg>
