<?xml version="1.0" encoding="UTF-8" standalone="no"?>
<!-- Created with Inkscape (http://www.inkscape.org/) -->

<svg
   width="512"
   height="512"
   viewBox="0 0 135.46667 135.46667"
   version="1.1"
   id="svg1015"
   xml:space="preserve"
   inkscape:version="1.2 (dc2aedaf03, 2022-05-15)"
   sodipodi:docname="koreader.svg"
   inkscape:export-filename="koreader.png"
   inkscape:export-xdpi="96"
   inkscape:export-ydpi="96"
   xmlns:inkscape="http://www.inkscape.org/namespaces/inkscape"
   xmlns:sodipodi="http://sodipodi.sourceforge.net/DTD/sodipodi-0.dtd"
   xmlns="http://www.w3.org/2000/svg"
   xmlns:svg="http://www.w3.org/2000/svg"><sodipodi:namedview
     id="namedview1017"
     pagecolor="#ffffff"
     bordercolor="#666666"
     borderopacity="1.0"
     inkscape:showpageshadow="2"
     inkscape:pageopacity="0.0"
     inkscape:pagecheckerboard="0"
     inkscape:deskcolor="#d1d1d1"
     inkscape:document-units="px"
     showgrid="false"
     inkscape:zoom="0.84096521"
     inkscape:cx="26.160416"
     inkscape:cy="312.73589"
     inkscape:window-width="1920"
     inkscape:window-height="1017"
     inkscape:window-x="-8"
     inkscape:window-y="-8"
     inkscape:window-maximized="1"
     inkscape:current-layer="layer1" /><defs
     id="defs1012" /><g
     inkscape:label="Layer 1"
     inkscape:groupmode="layer"
     id="layer1"><rect
       style="opacity:0.996;fill:none;fill-rule:evenodd;stroke:#000000;stroke-width:2.11666672;stroke-linecap:round;stroke-linejoin:round;stroke-dasharray:none;stroke-opacity:1"
       id="rect1200"
       width="80.061661"
       height="97.636711"
       x="27.266035"
       y="19.034685"
       ry="11.933167" /><path
       style="fill:none;fill-opacity:1;fill-rule:evenodd;stroke:#000000;stroke-width:2.11667;stroke-linecap:butt;stroke-linejoin:miter;stroke-dasharray:none;stroke-opacity:1"
       d="M 37.152319,19.438227 V 78.75402 l 7.119009,-6.229131 6.4516,5.784194 V 19.048906 c 0,0 -9.960114,0.02529 -12.180177,0 -1.256543,0.07303 -1.390432,0.389321 -1.390432,0.389321 z"
       id="path3649"
       sodipodi:nodetypes="ccccccc" /><path
       style="fill:none;stroke:#000000;stroke-width:2.11666672;stroke-linecap:round;stroke-linejoin:round;stroke-dasharray:none;stroke-opacity:1"
       d="m 78.865253,19.132332 c 0,0 -17.929631,20.257878 -21.904131,25.307485 -0.835139,1.061046 -1.02476,3.284279 -1.00622,4.415163 0.01854,1.130884 0.2551,3.02932 1.117456,3.864579 6.41933,6.217628 27.020916,25.923227 27.020916,25.923227 H 102.11326 L 68.742916,48.498237 96.217835,19.466036 Z"
       id="path3651"
       sodipodi:nodetypes="cszsccccc" /><path
       id="path3758"
       style="opacity:0.996;fill:none;fill-rule:evenodd;stroke:#000000;stroke-width:2.11666672;stroke-linecap:round;stroke-linejoin:round;stroke-dasharray:none;stroke-opacity:1"
       d="m 67.964329,77.579246 c -18.034513,-5.1e-5 -32.654387,14.619821 -32.654339,32.654334 0.0071,2.97117 0.341006,4.98362 3.192649,6.34878 l 58.627882,0 c 2.76653,-1.36605 3.487279,-3.37849 3.488149,-6.34878 5e-5,-18.034513 -14.619828,-32.654386 -32.654341,-32.654334 z"
       sodipodi:nodetypes="cccccc" /><path
       id="path3758-4"
       style="opacity:0.996;fill:none;fill-rule:evenodd;stroke:#000000;stroke-width:2.11666672;stroke-linecap:round;stroke-linejoin:round;stroke-dasharray:none;stroke-opacity:1"
       d="m 68.298988,88.813599 c -11.051227,-3.1e-5 -20.010023,8.958761 -20.009994,20.009991 0.0044,1.82068 0.208963,6.90794 1.956399,7.74449 h 35.926114 c 1.695281,-0.83709 2.136943,-5.92436 2.137476,-7.74449 3.2e-5,-11.05123 -8.958769,-20.010022 -20.009995,-20.009991 z"
       sodipodi:nodetypes="cccccc" /></g></svg>
